M48
; DRILL file {KiCad (5.1.9)-1} date 04/16/21 10:30:15
; FORMAT={-:-/ absolute / inch / decimal}
; #@! TF.CreationDate,2021-04-16T10:30:15-03:00
; #@! TF.GenerationSoftware,Kicad,Pcbnew,(5.1.9)-1
; #@! TF.FileFunction,Plated,1,2,PTH
FMAT,2
INCH
T1C0.0157
T2C0.0197
T3C0.0394
T4C0.1260
%
G90
G05
T1
X4.8Y-2.5
X4.8Y-2.6
X4.8Y-2.7
X4.8Y-2.8
X4.9Y-2.5
X4.9Y-2.6
X4.9Y-2.7
X5.0Y-2.5
X5.0Y-2.6
X5.0Y-2.7
X5.0Y-2.8
X5.1Y-2.5
X5.1Y-2.6
X5.1Y-2.7
X5.1Y-2.8
X5.1Y-2.9
X5.1Y-3.9
X5.1Y-4.0
X5.2Y-2.5
X5.2Y-2.6
X5.2Y-2.7
X5.2Y-2.8
X5.2Y-2.9
X5.2Y-3.9
X5.2Y-4.0
X5.27Y-3.47
X5.3Y-3.9
X5.3Y-4.0
X5.35Y-3.15
X5.35Y-3.325
X5.3512Y-2.5738
X5.4Y-2.9
X5.4Y-3.1
X5.4Y-3.9
X5.4Y-4.0
X5.5Y-3.9
X5.5Y-4.0
X5.525Y-3.325
X5.525Y-3.5
X5.575Y-2.825
X5.575Y-3.225
X5.6Y-3.9
X5.6Y-4.0
X5.625Y-3.325
X5.65Y-3.4
X5.7Y-3.1
X5.7Y-3.9
X5.7Y-4.0
X5.725Y-3.6
X5.725Y-3.7
X5.775Y-3.25
X5.8Y-3.0
X5.8Y-3.35
X5.8Y-3.9
X5.8Y-4.0
X5.82Y-2.94
X5.85Y-3.625
X5.9Y-2.925
X5.9Y-3.9
X5.9Y-4.0
X6.0Y-2.5
X6.0Y-2.6
X6.0Y-2.7
X6.0Y-2.8
X6.0Y-2.9
X6.0Y-3.9
X6.0Y-4.0
X6.1Y-2.5
X6.1Y-2.6
X6.1Y-2.7
X6.1Y-2.8
X6.1Y-2.9
X6.1Y-3.9
X6.1Y-4.0
X6.2Y-2.5
X6.2Y-2.6
X6.2Y-2.7
X6.2Y-2.8
X6.3Y-2.5
X6.3Y-2.6
X6.3Y-2.7
X6.4Y-2.5
X6.4Y-2.6
X6.4Y-2.7
X6.4Y-2.8
T2
X4.8055Y-2.9657
X4.8055Y-3.95
X4.8332Y-2.8989
X4.8332Y-3.0326
X4.8332Y-3.8832
X4.8332Y-4.0168
X4.9Y-2.8713
X4.9Y-3.0602
X4.9Y-3.8555
X4.9Y-4.0445
X4.9668Y-2.8989
X4.9668Y-3.0326
X4.9668Y-3.8832
X4.9668Y-4.0168
X4.9945Y-2.9657
X4.9945Y-3.95
X6.2305Y-2.9657
X6.2305Y-3.95
X6.2582Y-2.8989
X6.2582Y-3.0326
X6.2582Y-3.8832
X6.2582Y-4.0168
X6.325Y-2.8713
X6.325Y-3.0602
X6.325Y-3.8555
X6.325Y-4.0445
X6.3918Y-2.8989
X6.3918Y-3.0326
X6.3918Y-3.8832
X6.3918Y-4.0168
X6.4195Y-2.9657
X6.4195Y-3.95
T3
X5.15Y-3.275
X5.15Y-3.375
X5.15Y-3.475
X5.15Y-3.575
X5.15Y-3.675
X6.075Y-3.2
X6.075Y-3.3
X6.075Y-3.4
X6.075Y-3.5
X6.075Y-3.6
X6.075Y-3.7
T4
X4.9Y-2.9657
X4.9Y-3.95
X6.325Y-2.9657
X6.325Y-3.95
T0
M30
