M48
; DRILL file {KiCad (5.1.9)-1} date 04/28/21 11:17:09
; FORMAT={-:-/ absolute / inch / decimal}
; #@! TF.CreationDate,2021-04-28T11:17:09-03:00
; #@! TF.GenerationSoftware,Kicad,Pcbnew,(5.1.9)-1
; #@! TF.FileFunction,Plated,1,2,PTH
FMAT,2
INCH
T1C0.0157
T2C0.0197
T3C0.0394
T4C0.1260
%
G90
G05
T1
X4.8Y-2.5
X4.8Y-2.6
X4.8Y-2.7
X4.8Y-2.8
X4.9Y-2.5
X4.9Y-2.6
X4.9Y-2.7
X5.0Y-2.5
X5.0Y-2.6
X5.0Y-2.7
X5.0Y-2.8
X5.1Y-2.5
X5.1Y-2.6
X5.1Y-2.7
X5.1Y-2.8
X5.1Y-2.9
X5.1Y-3.9
X5.1Y-4.0
X5.2Y-2.5
X5.2Y-2.6
X5.2Y-2.7
X5.2Y-2.8
X5.2Y-2.9
X5.2Y-3.9
X5.2Y-4.0
X5.27Y-3.47
X5.3Y-3.9
X5.3Y-4.0
X5.35Y-3.15
X5.35Y-3.325
X5.3512Y-2.5738
X5.4Y-2.9
X5.4Y-3.1
X5.4Y-3.9
X5.4Y-4.0
X5.5Y-3.9
X5.5Y-4.0
X5.525Y-3.325
X5.525Y-3.5
X5.575Y-2.825
X5.575Y-3.225
X5.6Y-3.9
X5.6Y-4.0
X5.625Y-3.325
X5.65Y-3.4
X5.7Y-3.1
X5.7Y-3.9
X5.7Y-4.0
X5.725Y-3.6
X5.725Y-3.7
X5.775Y-3.25
X5.8Y-3.0
X5.8Y-3.35
X5.8Y-3.9
X5.8Y-4.0
X5.82Y-2.94
X5.85Y-3.625
X5.9Y-2.925
X5.9Y-3.9
X5.9Y-4.0
X6.0Y-2.5
X6.0Y-2.6
X6.0Y-2.7
X6.0Y-2.8
X6.0Y-2.9
X6.0Y-3.9
X6.0Y-4.0
X6.1Y-2.5
X6.1Y-2.6
X6.1Y-2.7
X6.1Y-2.8
X6.1Y-2.9
X6.1Y-3.9
X6.1Y-4.0
X6.2Y-2.5
X6.2Y-2.6
X6.2Y-2.7
X6.2Y-2.8
X6.3Y-2.5
X6.3Y-2.6
X6.3Y-2.7
X6.4Y-2.5
X6.4Y-2.6
X6.4Y-2.7
X6.4Y-2.8
T2
X4.8268Y-2.9528
X4.8268Y-3.937
X4.8544Y-2.8859
X4.8544Y-3.0196
X4.8544Y-3.8702
X4.8544Y-4.0038
X4.9213Y-2.8583
X4.9213Y-3.0472
X4.9213Y-3.8425
X4.9213Y-4.0315
X4.9881Y-2.8859
X4.9881Y-3.0196
X4.9881Y-3.8702
X4.9881Y-4.0038
X5.0157Y-2.9528
X5.0157Y-3.937
X6.2047Y-2.9528
X6.2047Y-3.937
X6.2324Y-2.8859
X6.2324Y-3.0196
X6.2324Y-3.8702
X6.2324Y-4.0038
X6.2992Y-2.8583
X6.2992Y-3.0472
X6.2992Y-3.8425
X6.2992Y-4.0315
X6.366Y-2.8859
X6.366Y-3.0196
X6.366Y-3.8702
X6.366Y-4.0038
X6.3937Y-2.9528
X6.3937Y-3.937
T3
X5.15Y-3.275
X5.15Y-3.375
X5.15Y-3.475
X5.15Y-3.575
X5.15Y-3.675
X6.075Y-3.2
X6.075Y-3.3
X6.075Y-3.4
X6.075Y-3.5
X6.075Y-3.6
X6.075Y-3.7
T4
X4.9213Y-2.9528
X4.9213Y-3.937
X6.2992Y-2.9528
X6.2992Y-3.937
T0
M30
