%TF.GenerationSoftware,KiCad,Pcbnew,(5.1.9)-1*%
%TF.CreationDate,2021-03-29T15:47:30-03:00*%
%TF.ProjectId,1335_rev1,31333335-5f72-4657-9631-2e6b69636164,rev?*%
%TF.SameCoordinates,Original*%
%TF.FileFunction,Copper,L2,Bot*%
%TF.FilePolarity,Positive*%
%FSLAX46Y46*%
G04 Gerber Fmt 4.6, Leading zero omitted, Abs format (unit mm)*
G04 Created by KiCad (PCBNEW (5.1.9)-1) date 2021-03-29 15:47:30*
%MOMM*%
%LPD*%
G01*
G04 APERTURE LIST*
%TA.AperFunction,ComponentPad*%
%ADD10O,1.700000X1.700000*%
%TD*%
%TA.AperFunction,ComponentPad*%
%ADD11R,1.700000X1.700000*%
%TD*%
%TA.AperFunction,SMDPad,CuDef*%
%ADD12R,1.000000X1.500000*%
%TD*%
%TA.AperFunction,SMDPad,CuDef*%
%ADD13C,0.100000*%
%TD*%
%TA.AperFunction,ComponentPad*%
%ADD14C,6.400000*%
%TD*%
%TA.AperFunction,ComponentPad*%
%ADD15C,0.800000*%
%TD*%
%TA.AperFunction,ViaPad*%
%ADD16C,0.800000*%
%TD*%
%TA.AperFunction,Conductor*%
%ADD17C,0.300000*%
%TD*%
%TA.AperFunction,Conductor*%
%ADD18C,0.250000*%
%TD*%
%TA.AperFunction,Conductor*%
%ADD19C,0.254000*%
%TD*%
%TA.AperFunction,Conductor*%
%ADD20C,0.100000*%
%TD*%
G04 APERTURE END LIST*
D10*
%TO.P,J1,5*%
%TO.N,+3V3*%
X130810000Y-83185000D03*
%TO.P,J1,4*%
%TO.N,SDA*%
X130810000Y-85725000D03*
%TO.P,J1,3*%
%TO.N,SCL*%
X130810000Y-88265000D03*
%TO.P,J1,2*%
%TO.N,GND*%
X130810000Y-90805000D03*
D11*
%TO.P,J1,1*%
%TO.N,+5V*%
X130810000Y-93345000D03*
%TD*%
D10*
%TO.P,J2,6*%
%TO.N,+5V*%
X154305000Y-93980000D03*
%TO.P,J2,5*%
%TO.N,GND*%
X154305000Y-91440000D03*
%TO.P,J2,4*%
%TO.N,MOSI*%
X154305000Y-88900000D03*
%TO.P,J2,3*%
%TO.N,MISO*%
X154305000Y-86360000D03*
%TO.P,J2,2*%
%TO.N,SCK*%
X154305000Y-83820000D03*
D11*
%TO.P,J2,1*%
%TO.N,CS*%
X154305000Y-81280000D03*
%TD*%
D12*
%TO.P,JP7,2*%
%TO.N,/SA1-MOSI*%
X137160000Y-81915000D03*
%TA.AperFunction,SMDPad,CuDef*%
D13*
%TO.P,JP7,3*%
%TO.N,GND*%
G36*
X135860000Y-82664398D02*
G01*
X135835466Y-82664398D01*
X135786635Y-82659588D01*
X135738510Y-82650016D01*
X135691555Y-82635772D01*
X135646222Y-82616995D01*
X135602949Y-82593864D01*
X135562150Y-82566604D01*
X135524221Y-82535476D01*
X135489524Y-82500779D01*
X135458396Y-82462850D01*
X135431136Y-82422051D01*
X135408005Y-82378778D01*
X135389228Y-82333445D01*
X135374984Y-82286490D01*
X135365412Y-82238365D01*
X135360602Y-82189534D01*
X135360602Y-82165000D01*
X135360000Y-82165000D01*
X135360000Y-81665000D01*
X135360602Y-81665000D01*
X135360602Y-81640466D01*
X135365412Y-81591635D01*
X135374984Y-81543510D01*
X135389228Y-81496555D01*
X135408005Y-81451222D01*
X135431136Y-81407949D01*
X135458396Y-81367150D01*
X135489524Y-81329221D01*
X135524221Y-81294524D01*
X135562150Y-81263396D01*
X135602949Y-81236136D01*
X135646222Y-81213005D01*
X135691555Y-81194228D01*
X135738510Y-81179984D01*
X135786635Y-81170412D01*
X135835466Y-81165602D01*
X135860000Y-81165602D01*
X135860000Y-81165000D01*
X136410000Y-81165000D01*
X136410000Y-82665000D01*
X135860000Y-82665000D01*
X135860000Y-82664398D01*
G37*
%TD.AperFunction*%
%TA.AperFunction,SMDPad,CuDef*%
%TO.P,JP7,1*%
%TO.N,/BYP*%
G36*
X137910000Y-81165000D02*
G01*
X138460000Y-81165000D01*
X138460000Y-81165602D01*
X138484534Y-81165602D01*
X138533365Y-81170412D01*
X138581490Y-81179984D01*
X138628445Y-81194228D01*
X138673778Y-81213005D01*
X138717051Y-81236136D01*
X138757850Y-81263396D01*
X138795779Y-81294524D01*
X138830476Y-81329221D01*
X138861604Y-81367150D01*
X138888864Y-81407949D01*
X138911995Y-81451222D01*
X138930772Y-81496555D01*
X138945016Y-81543510D01*
X138954588Y-81591635D01*
X138959398Y-81640466D01*
X138959398Y-81665000D01*
X138960000Y-81665000D01*
X138960000Y-82165000D01*
X138959398Y-82165000D01*
X138959398Y-82189534D01*
X138954588Y-82238365D01*
X138945016Y-82286490D01*
X138930772Y-82333445D01*
X138911995Y-82378778D01*
X138888864Y-82422051D01*
X138861604Y-82462850D01*
X138830476Y-82500779D01*
X138795779Y-82535476D01*
X138757850Y-82566604D01*
X138717051Y-82593864D01*
X138673778Y-82616995D01*
X138628445Y-82635772D01*
X138581490Y-82650016D01*
X138533365Y-82659588D01*
X138484534Y-82664398D01*
X138460000Y-82664398D01*
X138460000Y-82665000D01*
X137910000Y-82665000D01*
X137910000Y-81165000D01*
G37*
%TD.AperFunction*%
%TD*%
D12*
%TO.P,JP6,2*%
%TO.N,/SA1-MOSI*%
X137160000Y-94615000D03*
%TA.AperFunction,SMDPad,CuDef*%
D13*
%TO.P,JP6,3*%
%TO.N,MOSI*%
G36*
X135860000Y-95364398D02*
G01*
X135835466Y-95364398D01*
X135786635Y-95359588D01*
X135738510Y-95350016D01*
X135691555Y-95335772D01*
X135646222Y-95316995D01*
X135602949Y-95293864D01*
X135562150Y-95266604D01*
X135524221Y-95235476D01*
X135489524Y-95200779D01*
X135458396Y-95162850D01*
X135431136Y-95122051D01*
X135408005Y-95078778D01*
X135389228Y-95033445D01*
X135374984Y-94986490D01*
X135365412Y-94938365D01*
X135360602Y-94889534D01*
X135360602Y-94865000D01*
X135360000Y-94865000D01*
X135360000Y-94365000D01*
X135360602Y-94365000D01*
X135360602Y-94340466D01*
X135365412Y-94291635D01*
X135374984Y-94243510D01*
X135389228Y-94196555D01*
X135408005Y-94151222D01*
X135431136Y-94107949D01*
X135458396Y-94067150D01*
X135489524Y-94029221D01*
X135524221Y-93994524D01*
X135562150Y-93963396D01*
X135602949Y-93936136D01*
X135646222Y-93913005D01*
X135691555Y-93894228D01*
X135738510Y-93879984D01*
X135786635Y-93870412D01*
X135835466Y-93865602D01*
X135860000Y-93865602D01*
X135860000Y-93865000D01*
X136410000Y-93865000D01*
X136410000Y-95365000D01*
X135860000Y-95365000D01*
X135860000Y-95364398D01*
G37*
%TD.AperFunction*%
%TA.AperFunction,SMDPad,CuDef*%
%TO.P,JP6,1*%
%TO.N,Net-(JP6-Pad1)*%
G36*
X137910000Y-93865000D02*
G01*
X138460000Y-93865000D01*
X138460000Y-93865602D01*
X138484534Y-93865602D01*
X138533365Y-93870412D01*
X138581490Y-93879984D01*
X138628445Y-93894228D01*
X138673778Y-93913005D01*
X138717051Y-93936136D01*
X138757850Y-93963396D01*
X138795779Y-93994524D01*
X138830476Y-94029221D01*
X138861604Y-94067150D01*
X138888864Y-94107949D01*
X138911995Y-94151222D01*
X138930772Y-94196555D01*
X138945016Y-94243510D01*
X138954588Y-94291635D01*
X138959398Y-94340466D01*
X138959398Y-94365000D01*
X138960000Y-94365000D01*
X138960000Y-94865000D01*
X138959398Y-94865000D01*
X138959398Y-94889534D01*
X138954588Y-94938365D01*
X138945016Y-94986490D01*
X138930772Y-95033445D01*
X138911995Y-95078778D01*
X138888864Y-95122051D01*
X138861604Y-95162850D01*
X138830476Y-95200779D01*
X138795779Y-95235476D01*
X138757850Y-95266604D01*
X138717051Y-95293864D01*
X138673778Y-95316995D01*
X138628445Y-95335772D01*
X138581490Y-95350016D01*
X138533365Y-95359588D01*
X138484534Y-95364398D01*
X138460000Y-95364398D01*
X138460000Y-95365000D01*
X137910000Y-95365000D01*
X137910000Y-93865000D01*
G37*
%TD.AperFunction*%
%TD*%
D12*
%TO.P,JP5,2*%
%TO.N,/SDA-MISO*%
X137160000Y-87630000D03*
%TA.AperFunction,SMDPad,CuDef*%
D13*
%TO.P,JP5,3*%
%TO.N,MISO*%
G36*
X135860000Y-88379398D02*
G01*
X135835466Y-88379398D01*
X135786635Y-88374588D01*
X135738510Y-88365016D01*
X135691555Y-88350772D01*
X135646222Y-88331995D01*
X135602949Y-88308864D01*
X135562150Y-88281604D01*
X135524221Y-88250476D01*
X135489524Y-88215779D01*
X135458396Y-88177850D01*
X135431136Y-88137051D01*
X135408005Y-88093778D01*
X135389228Y-88048445D01*
X135374984Y-88001490D01*
X135365412Y-87953365D01*
X135360602Y-87904534D01*
X135360602Y-87880000D01*
X135360000Y-87880000D01*
X135360000Y-87380000D01*
X135360602Y-87380000D01*
X135360602Y-87355466D01*
X135365412Y-87306635D01*
X135374984Y-87258510D01*
X135389228Y-87211555D01*
X135408005Y-87166222D01*
X135431136Y-87122949D01*
X135458396Y-87082150D01*
X135489524Y-87044221D01*
X135524221Y-87009524D01*
X135562150Y-86978396D01*
X135602949Y-86951136D01*
X135646222Y-86928005D01*
X135691555Y-86909228D01*
X135738510Y-86894984D01*
X135786635Y-86885412D01*
X135835466Y-86880602D01*
X135860000Y-86880602D01*
X135860000Y-86880000D01*
X136410000Y-86880000D01*
X136410000Y-88380000D01*
X135860000Y-88380000D01*
X135860000Y-88379398D01*
G37*
%TD.AperFunction*%
%TA.AperFunction,SMDPad,CuDef*%
%TO.P,JP5,1*%
%TO.N,SDA*%
G36*
X137910000Y-86880000D02*
G01*
X138460000Y-86880000D01*
X138460000Y-86880602D01*
X138484534Y-86880602D01*
X138533365Y-86885412D01*
X138581490Y-86894984D01*
X138628445Y-86909228D01*
X138673778Y-86928005D01*
X138717051Y-86951136D01*
X138757850Y-86978396D01*
X138795779Y-87009524D01*
X138830476Y-87044221D01*
X138861604Y-87082150D01*
X138888864Y-87122949D01*
X138911995Y-87166222D01*
X138930772Y-87211555D01*
X138945016Y-87258510D01*
X138954588Y-87306635D01*
X138959398Y-87355466D01*
X138959398Y-87380000D01*
X138960000Y-87380000D01*
X138960000Y-87880000D01*
X138959398Y-87880000D01*
X138959398Y-87904534D01*
X138954588Y-87953365D01*
X138945016Y-88001490D01*
X138930772Y-88048445D01*
X138911995Y-88093778D01*
X138888864Y-88137051D01*
X138861604Y-88177850D01*
X138830476Y-88215779D01*
X138795779Y-88250476D01*
X138757850Y-88281604D01*
X138717051Y-88308864D01*
X138673778Y-88331995D01*
X138628445Y-88350772D01*
X138581490Y-88365016D01*
X138533365Y-88374588D01*
X138484534Y-88379398D01*
X138460000Y-88379398D01*
X138460000Y-88380000D01*
X137910000Y-88380000D01*
X137910000Y-86880000D01*
G37*
%TD.AperFunction*%
%TD*%
D12*
%TO.P,JP4,2*%
%TO.N,/SA0-CS*%
X137160000Y-76200000D03*
%TA.AperFunction,SMDPad,CuDef*%
D13*
%TO.P,JP4,3*%
%TO.N,GND*%
G36*
X135860000Y-76949398D02*
G01*
X135835466Y-76949398D01*
X135786635Y-76944588D01*
X135738510Y-76935016D01*
X135691555Y-76920772D01*
X135646222Y-76901995D01*
X135602949Y-76878864D01*
X135562150Y-76851604D01*
X135524221Y-76820476D01*
X135489524Y-76785779D01*
X135458396Y-76747850D01*
X135431136Y-76707051D01*
X135408005Y-76663778D01*
X135389228Y-76618445D01*
X135374984Y-76571490D01*
X135365412Y-76523365D01*
X135360602Y-76474534D01*
X135360602Y-76450000D01*
X135360000Y-76450000D01*
X135360000Y-75950000D01*
X135360602Y-75950000D01*
X135360602Y-75925466D01*
X135365412Y-75876635D01*
X135374984Y-75828510D01*
X135389228Y-75781555D01*
X135408005Y-75736222D01*
X135431136Y-75692949D01*
X135458396Y-75652150D01*
X135489524Y-75614221D01*
X135524221Y-75579524D01*
X135562150Y-75548396D01*
X135602949Y-75521136D01*
X135646222Y-75498005D01*
X135691555Y-75479228D01*
X135738510Y-75464984D01*
X135786635Y-75455412D01*
X135835466Y-75450602D01*
X135860000Y-75450602D01*
X135860000Y-75450000D01*
X136410000Y-75450000D01*
X136410000Y-76950000D01*
X135860000Y-76950000D01*
X135860000Y-76949398D01*
G37*
%TD.AperFunction*%
%TA.AperFunction,SMDPad,CuDef*%
%TO.P,JP4,1*%
%TO.N,/BYP*%
G36*
X137910000Y-75450000D02*
G01*
X138460000Y-75450000D01*
X138460000Y-75450602D01*
X138484534Y-75450602D01*
X138533365Y-75455412D01*
X138581490Y-75464984D01*
X138628445Y-75479228D01*
X138673778Y-75498005D01*
X138717051Y-75521136D01*
X138757850Y-75548396D01*
X138795779Y-75579524D01*
X138830476Y-75614221D01*
X138861604Y-75652150D01*
X138888864Y-75692949D01*
X138911995Y-75736222D01*
X138930772Y-75781555D01*
X138945016Y-75828510D01*
X138954588Y-75876635D01*
X138959398Y-75925466D01*
X138959398Y-75950000D01*
X138960000Y-75950000D01*
X138960000Y-76450000D01*
X138959398Y-76450000D01*
X138959398Y-76474534D01*
X138954588Y-76523365D01*
X138945016Y-76571490D01*
X138930772Y-76618445D01*
X138911995Y-76663778D01*
X138888864Y-76707051D01*
X138861604Y-76747850D01*
X138830476Y-76785779D01*
X138795779Y-76820476D01*
X138757850Y-76851604D01*
X138717051Y-76878864D01*
X138673778Y-76901995D01*
X138628445Y-76920772D01*
X138581490Y-76935016D01*
X138533365Y-76944588D01*
X138484534Y-76949398D01*
X138460000Y-76949398D01*
X138460000Y-76950000D01*
X137910000Y-76950000D01*
X137910000Y-75450000D01*
G37*
%TD.AperFunction*%
%TD*%
D12*
%TO.P,JP3,2*%
%TO.N,/SA0-CS*%
X148590000Y-94615000D03*
%TA.AperFunction,SMDPad,CuDef*%
D13*
%TO.P,JP3,3*%
%TO.N,CS*%
G36*
X147290000Y-95364398D02*
G01*
X147265466Y-95364398D01*
X147216635Y-95359588D01*
X147168510Y-95350016D01*
X147121555Y-95335772D01*
X147076222Y-95316995D01*
X147032949Y-95293864D01*
X146992150Y-95266604D01*
X146954221Y-95235476D01*
X146919524Y-95200779D01*
X146888396Y-95162850D01*
X146861136Y-95122051D01*
X146838005Y-95078778D01*
X146819228Y-95033445D01*
X146804984Y-94986490D01*
X146795412Y-94938365D01*
X146790602Y-94889534D01*
X146790602Y-94865000D01*
X146790000Y-94865000D01*
X146790000Y-94365000D01*
X146790602Y-94365000D01*
X146790602Y-94340466D01*
X146795412Y-94291635D01*
X146804984Y-94243510D01*
X146819228Y-94196555D01*
X146838005Y-94151222D01*
X146861136Y-94107949D01*
X146888396Y-94067150D01*
X146919524Y-94029221D01*
X146954221Y-93994524D01*
X146992150Y-93963396D01*
X147032949Y-93936136D01*
X147076222Y-93913005D01*
X147121555Y-93894228D01*
X147168510Y-93879984D01*
X147216635Y-93870412D01*
X147265466Y-93865602D01*
X147290000Y-93865602D01*
X147290000Y-93865000D01*
X147840000Y-93865000D01*
X147840000Y-95365000D01*
X147290000Y-95365000D01*
X147290000Y-95364398D01*
G37*
%TD.AperFunction*%
%TA.AperFunction,SMDPad,CuDef*%
%TO.P,JP3,1*%
%TO.N,Net-(JP3-Pad1)*%
G36*
X149340000Y-93865000D02*
G01*
X149890000Y-93865000D01*
X149890000Y-93865602D01*
X149914534Y-93865602D01*
X149963365Y-93870412D01*
X150011490Y-93879984D01*
X150058445Y-93894228D01*
X150103778Y-93913005D01*
X150147051Y-93936136D01*
X150187850Y-93963396D01*
X150225779Y-93994524D01*
X150260476Y-94029221D01*
X150291604Y-94067150D01*
X150318864Y-94107949D01*
X150341995Y-94151222D01*
X150360772Y-94196555D01*
X150375016Y-94243510D01*
X150384588Y-94291635D01*
X150389398Y-94340466D01*
X150389398Y-94365000D01*
X150390000Y-94365000D01*
X150390000Y-94865000D01*
X150389398Y-94865000D01*
X150389398Y-94889534D01*
X150384588Y-94938365D01*
X150375016Y-94986490D01*
X150360772Y-95033445D01*
X150341995Y-95078778D01*
X150318864Y-95122051D01*
X150291604Y-95162850D01*
X150260476Y-95200779D01*
X150225779Y-95235476D01*
X150187850Y-95266604D01*
X150147051Y-95293864D01*
X150103778Y-95316995D01*
X150058445Y-95335772D01*
X150011490Y-95350016D01*
X149963365Y-95359588D01*
X149914534Y-95364398D01*
X149890000Y-95364398D01*
X149890000Y-95365000D01*
X149340000Y-95365000D01*
X149340000Y-93865000D01*
G37*
%TD.AperFunction*%
%TD*%
D12*
%TO.P,JP2,2*%
%TO.N,/SCL-CLK*%
X148590000Y-87630000D03*
%TA.AperFunction,SMDPad,CuDef*%
D13*
%TO.P,JP2,3*%
%TO.N,SCK*%
G36*
X147290000Y-88379398D02*
G01*
X147265466Y-88379398D01*
X147216635Y-88374588D01*
X147168510Y-88365016D01*
X147121555Y-88350772D01*
X147076222Y-88331995D01*
X147032949Y-88308864D01*
X146992150Y-88281604D01*
X146954221Y-88250476D01*
X146919524Y-88215779D01*
X146888396Y-88177850D01*
X146861136Y-88137051D01*
X146838005Y-88093778D01*
X146819228Y-88048445D01*
X146804984Y-88001490D01*
X146795412Y-87953365D01*
X146790602Y-87904534D01*
X146790602Y-87880000D01*
X146790000Y-87880000D01*
X146790000Y-87380000D01*
X146790602Y-87380000D01*
X146790602Y-87355466D01*
X146795412Y-87306635D01*
X146804984Y-87258510D01*
X146819228Y-87211555D01*
X146838005Y-87166222D01*
X146861136Y-87122949D01*
X146888396Y-87082150D01*
X146919524Y-87044221D01*
X146954221Y-87009524D01*
X146992150Y-86978396D01*
X147032949Y-86951136D01*
X147076222Y-86928005D01*
X147121555Y-86909228D01*
X147168510Y-86894984D01*
X147216635Y-86885412D01*
X147265466Y-86880602D01*
X147290000Y-86880602D01*
X147290000Y-86880000D01*
X147840000Y-86880000D01*
X147840000Y-88380000D01*
X147290000Y-88380000D01*
X147290000Y-88379398D01*
G37*
%TD.AperFunction*%
%TA.AperFunction,SMDPad,CuDef*%
%TO.P,JP2,1*%
%TO.N,SCL*%
G36*
X149340000Y-86880000D02*
G01*
X149890000Y-86880000D01*
X149890000Y-86880602D01*
X149914534Y-86880602D01*
X149963365Y-86885412D01*
X150011490Y-86894984D01*
X150058445Y-86909228D01*
X150103778Y-86928005D01*
X150147051Y-86951136D01*
X150187850Y-86978396D01*
X150225779Y-87009524D01*
X150260476Y-87044221D01*
X150291604Y-87082150D01*
X150318864Y-87122949D01*
X150341995Y-87166222D01*
X150360772Y-87211555D01*
X150375016Y-87258510D01*
X150384588Y-87306635D01*
X150389398Y-87355466D01*
X150389398Y-87380000D01*
X150390000Y-87380000D01*
X150390000Y-87880000D01*
X150389398Y-87880000D01*
X150389398Y-87904534D01*
X150384588Y-87953365D01*
X150375016Y-88001490D01*
X150360772Y-88048445D01*
X150341995Y-88093778D01*
X150318864Y-88137051D01*
X150291604Y-88177850D01*
X150260476Y-88215779D01*
X150225779Y-88250476D01*
X150187850Y-88281604D01*
X150147051Y-88308864D01*
X150103778Y-88331995D01*
X150058445Y-88350772D01*
X150011490Y-88365016D01*
X149963365Y-88374588D01*
X149914534Y-88379398D01*
X149890000Y-88379398D01*
X149890000Y-88380000D01*
X149340000Y-88380000D01*
X149340000Y-86880000D01*
G37*
%TD.AperFunction*%
%TD*%
D12*
%TO.P,JP1,2*%
%TO.N,/ISEL*%
X148590000Y-78740000D03*
%TA.AperFunction,SMDPad,CuDef*%
D13*
%TO.P,JP1,3*%
%TO.N,GND*%
G36*
X147290000Y-79489398D02*
G01*
X147265466Y-79489398D01*
X147216635Y-79484588D01*
X147168510Y-79475016D01*
X147121555Y-79460772D01*
X147076222Y-79441995D01*
X147032949Y-79418864D01*
X146992150Y-79391604D01*
X146954221Y-79360476D01*
X146919524Y-79325779D01*
X146888396Y-79287850D01*
X146861136Y-79247051D01*
X146838005Y-79203778D01*
X146819228Y-79158445D01*
X146804984Y-79111490D01*
X146795412Y-79063365D01*
X146790602Y-79014534D01*
X146790602Y-78990000D01*
X146790000Y-78990000D01*
X146790000Y-78490000D01*
X146790602Y-78490000D01*
X146790602Y-78465466D01*
X146795412Y-78416635D01*
X146804984Y-78368510D01*
X146819228Y-78321555D01*
X146838005Y-78276222D01*
X146861136Y-78232949D01*
X146888396Y-78192150D01*
X146919524Y-78154221D01*
X146954221Y-78119524D01*
X146992150Y-78088396D01*
X147032949Y-78061136D01*
X147076222Y-78038005D01*
X147121555Y-78019228D01*
X147168510Y-78004984D01*
X147216635Y-77995412D01*
X147265466Y-77990602D01*
X147290000Y-77990602D01*
X147290000Y-77990000D01*
X147840000Y-77990000D01*
X147840000Y-79490000D01*
X147290000Y-79490000D01*
X147290000Y-79489398D01*
G37*
%TD.AperFunction*%
%TA.AperFunction,SMDPad,CuDef*%
%TO.P,JP1,1*%
%TO.N,/BYP*%
G36*
X149340000Y-77990000D02*
G01*
X149890000Y-77990000D01*
X149890000Y-77990602D01*
X149914534Y-77990602D01*
X149963365Y-77995412D01*
X150011490Y-78004984D01*
X150058445Y-78019228D01*
X150103778Y-78038005D01*
X150147051Y-78061136D01*
X150187850Y-78088396D01*
X150225779Y-78119524D01*
X150260476Y-78154221D01*
X150291604Y-78192150D01*
X150318864Y-78232949D01*
X150341995Y-78276222D01*
X150360772Y-78321555D01*
X150375016Y-78368510D01*
X150384588Y-78416635D01*
X150389398Y-78465466D01*
X150389398Y-78490000D01*
X150390000Y-78490000D01*
X150390000Y-78990000D01*
X150389398Y-78990000D01*
X150389398Y-79014534D01*
X150384588Y-79063365D01*
X150375016Y-79111490D01*
X150360772Y-79158445D01*
X150341995Y-79203778D01*
X150318864Y-79247051D01*
X150291604Y-79287850D01*
X150260476Y-79325779D01*
X150225779Y-79360476D01*
X150187850Y-79391604D01*
X150147051Y-79418864D01*
X150103778Y-79441995D01*
X150058445Y-79460772D01*
X150011490Y-79475016D01*
X149963365Y-79484588D01*
X149914534Y-79489398D01*
X149890000Y-79489398D01*
X149890000Y-79490000D01*
X149340000Y-79490000D01*
X149340000Y-77990000D01*
G37*
%TD.AperFunction*%
%TD*%
D14*
%TO.P,H1,1*%
%TO.N,N/C*%
X124460000Y-75330000D03*
D15*
X126860000Y-75330000D03*
X126157056Y-77027056D03*
X124460000Y-77730000D03*
X122762944Y-77027056D03*
X122060000Y-75330000D03*
X122762944Y-73632944D03*
X124460000Y-72930000D03*
X126157056Y-73632944D03*
%TD*%
%TO.P,H2,1*%
%TO.N,N/C*%
X162352056Y-73632944D03*
X160655000Y-72930000D03*
X158957944Y-73632944D03*
X158255000Y-75330000D03*
X158957944Y-77027056D03*
X160655000Y-77730000D03*
X162352056Y-77027056D03*
X163055000Y-75330000D03*
D14*
X160655000Y-75330000D03*
%TD*%
%TO.P,H3,1*%
%TO.N,N/C*%
X124460000Y-100330000D03*
D15*
X126860000Y-100330000D03*
X126157056Y-102027056D03*
X124460000Y-102730000D03*
X122762944Y-102027056D03*
X122060000Y-100330000D03*
X122762944Y-98632944D03*
X124460000Y-97930000D03*
X126157056Y-98632944D03*
%TD*%
%TO.P,H4,1*%
%TO.N,N/C*%
X162352056Y-98632944D03*
X160655000Y-97930000D03*
X158957944Y-98632944D03*
X158255000Y-100330000D03*
X158957944Y-102027056D03*
X160655000Y-102730000D03*
X162352056Y-102027056D03*
X163055000Y-100330000D03*
D14*
X160655000Y-100330000D03*
%TD*%
D16*
%TO.N,/BYP*%
X146685000Y-82550000D03*
X141605000Y-81915000D03*
X135920000Y-65375000D03*
%TO.N,GND*%
X162560000Y-68580000D03*
X135636000Y-67056000D03*
X144780000Y-78740000D03*
X135890000Y-80010000D03*
X162560000Y-66040000D03*
X160020000Y-66040000D03*
X160020000Y-63500000D03*
X162560000Y-63500000D03*
X160020000Y-68580000D03*
X157480000Y-68580000D03*
X157480000Y-66040000D03*
X157480000Y-63500000D03*
X154940000Y-63500000D03*
X154940000Y-66040000D03*
X154940000Y-68580000D03*
X152400000Y-68580000D03*
X152400000Y-66040000D03*
X152400000Y-63500000D03*
X152400000Y-71120000D03*
X154940000Y-71120000D03*
X154940000Y-73660000D03*
X152400000Y-73660000D03*
X121920000Y-63500000D03*
X121920000Y-66040000D03*
X124460000Y-63500000D03*
X127000000Y-63500000D03*
X127000000Y-66040000D03*
X124460000Y-66040000D03*
X124460000Y-68580000D03*
X121920000Y-68580000D03*
X127000000Y-68580000D03*
X129540000Y-63500000D03*
X129540000Y-66040000D03*
X129540000Y-68580000D03*
X129540000Y-71120000D03*
X132080000Y-71120000D03*
X132080000Y-73660000D03*
X129540000Y-73660000D03*
X127000000Y-71120000D03*
X121920000Y-71120000D03*
X157480000Y-71120000D03*
X162560000Y-71120000D03*
X124460000Y-71120000D03*
X160020000Y-71120000D03*
X129540000Y-99060000D03*
X132080000Y-99060000D03*
X134620000Y-99060000D03*
X134620000Y-101600000D03*
X132080000Y-101600000D03*
X129540000Y-101600000D03*
X137160000Y-99060000D03*
X137160000Y-101600000D03*
X149860000Y-101600000D03*
X149860000Y-99060000D03*
X152400000Y-99060000D03*
X152400000Y-101600000D03*
X154940000Y-101600000D03*
X154940000Y-99060000D03*
X147320000Y-101600000D03*
X144780000Y-101600000D03*
X142240000Y-101600000D03*
X139700000Y-101600000D03*
X139700000Y-99060000D03*
X142240000Y-99060000D03*
X144780000Y-99060000D03*
X147320000Y-99060000D03*
%TO.N,SCK*%
X147320000Y-85090000D03*
%TO.N,MISO*%
X135890000Y-84455000D03*
%TO.N,+5V*%
X141605000Y-71755000D03*
X142875000Y-84455000D03*
%TO.N,SDA*%
X143510000Y-86360000D03*
%TO.N,SCL*%
X145415000Y-91440000D03*
X145415000Y-93980000D03*
%TO.N,/ISEL*%
X147320000Y-76200000D03*
%TO.N,/SDA-MISO*%
X147828000Y-74676000D03*
%TO.N,/SCL-CLK*%
X149860000Y-74295000D03*
%TO.N,/SA1-MOSI*%
X137160000Y-78740000D03*
X140335000Y-84455000D03*
X138430000Y-90170000D03*
%TO.N,/SA0-CS*%
X137160000Y-73660000D03*
X133858000Y-88138000D03*
X148590000Y-92075000D03*
%TD*%
D17*
%TO.N,/BYP*%
X149890000Y-78740000D02*
X149890000Y-79980000D01*
X147320000Y-82550000D02*
X146685000Y-82550000D01*
X149890000Y-79980000D02*
X147320000Y-82550000D01*
X141605000Y-81915000D02*
X138460000Y-81915000D01*
X138460000Y-81915000D02*
X138460000Y-76200000D01*
X138460000Y-76200000D02*
X138460000Y-71785000D01*
X138460000Y-71785000D02*
X137160000Y-70485000D01*
X137160000Y-66615000D02*
X135920000Y-65375000D01*
X137160000Y-70485000D02*
X137160000Y-66615000D01*
D18*
%TO.N,GND*%
X147290000Y-78740000D02*
X147290000Y-78075000D01*
X135860000Y-80040000D02*
X135890000Y-80010000D01*
X135860000Y-81915000D02*
X135860000Y-80040000D01*
D17*
X147290000Y-78740000D02*
X144780000Y-78740000D01*
%TO.N,SCK*%
X147320000Y-87600000D02*
X147290000Y-87630000D01*
X147320000Y-85090000D02*
X147320000Y-87600000D01*
%TO.N,MISO*%
X135860000Y-84485000D02*
X135890000Y-84455000D01*
X135860000Y-87630000D02*
X135860000Y-84485000D01*
%TO.N,MOSI*%
X152400000Y-88900000D02*
X154305000Y-88900000D01*
X151765000Y-89535000D02*
X152400000Y-88900000D01*
X151765000Y-95885000D02*
X151765000Y-89535000D01*
X150495000Y-97155000D02*
X151765000Y-95885000D01*
X136525000Y-97155000D02*
X150495000Y-97155000D01*
X135860000Y-96490000D02*
X136525000Y-97155000D01*
X135860000Y-94615000D02*
X135860000Y-96490000D01*
%TO.N,+5V*%
X141605000Y-71755000D02*
X141605000Y-73025000D01*
X141605000Y-73025000D02*
X142875000Y-74295000D01*
X142875000Y-84455000D02*
X142875000Y-74295000D01*
%TO.N,SDA*%
X139730000Y-86360000D02*
X138460000Y-87630000D01*
X138460000Y-88377592D02*
X137302592Y-89535000D01*
X138460000Y-87630000D02*
X138460000Y-88377592D01*
X137302592Y-89535000D02*
X133985000Y-89535000D01*
X133985000Y-89535000D02*
X132715000Y-88265000D01*
X132715000Y-87630000D02*
X130810000Y-85725000D01*
X132715000Y-88265000D02*
X132715000Y-87630000D01*
X143510000Y-86360000D02*
X139730000Y-86360000D01*
%TO.N,SCL*%
X145415000Y-91440000D02*
X146050000Y-91440000D01*
X146050000Y-91440000D02*
X148590000Y-88900000D01*
X149860000Y-87660000D02*
X149890000Y-87630000D01*
X145415000Y-93980000D02*
X145415000Y-91440000D01*
D18*
X149890000Y-87630000D02*
X149890000Y-88235000D01*
D17*
X149367592Y-88900000D02*
X148590000Y-88900000D01*
X149890000Y-88377592D02*
X149367592Y-88900000D01*
X149890000Y-87630000D02*
X149890000Y-88377592D01*
%TO.N,CS*%
X153035000Y-81280000D02*
X154305000Y-81280000D01*
X152146000Y-87884000D02*
X152146000Y-82169000D01*
X150114000Y-89916000D02*
X152146000Y-87884000D01*
X152146000Y-82169000D02*
X153035000Y-81280000D01*
X148590000Y-89916000D02*
X150114000Y-89916000D01*
X147290000Y-91216000D02*
X148590000Y-89916000D01*
X147290000Y-94615000D02*
X147290000Y-91216000D01*
%TO.N,/ISEL*%
X148590000Y-77470000D02*
X147320000Y-76200000D01*
X148590000Y-78740000D02*
X148590000Y-77470000D01*
%TO.N,/SDA-MISO*%
X151130000Y-77978000D02*
X147828000Y-74676000D01*
X151130000Y-80010000D02*
X151130000Y-77978000D01*
X145542000Y-84074000D02*
X147066000Y-84074000D01*
X144272000Y-85344000D02*
X145542000Y-84074000D01*
X137668000Y-85344000D02*
X144272000Y-85344000D01*
X137160000Y-85852000D02*
X137668000Y-85344000D01*
X147066000Y-84074000D02*
X151130000Y-80010000D01*
X137160000Y-87630000D02*
X137160000Y-85852000D01*
%TO.N,/SCL-CLK*%
X151892000Y-76327000D02*
X149860000Y-74295000D01*
X152400000Y-76835000D02*
X151892000Y-76327000D01*
X152400000Y-80010000D02*
X152400000Y-76835000D01*
X148590000Y-83820000D02*
X152400000Y-80010000D01*
X148590000Y-87630000D02*
X148590000Y-83820000D01*
%TO.N,/SA1-MOSI*%
X137160000Y-78740000D02*
X137160000Y-81915000D01*
X137922000Y-91440000D02*
X137160000Y-92202000D01*
X137160000Y-92202000D02*
X137160000Y-94615000D01*
X137160000Y-81915000D02*
X137160000Y-83820000D01*
X137160000Y-83820000D02*
X137795000Y-84455000D01*
X137795000Y-84455000D02*
X140335000Y-84455000D01*
X137922000Y-90678000D02*
X137922000Y-91440000D01*
X138430000Y-90170000D02*
X137922000Y-90678000D01*
%TO.N,/SA0-CS*%
X137160000Y-73660000D02*
X137160000Y-76200000D01*
X137160000Y-76200000D02*
X137160000Y-77216000D01*
X137160000Y-77216000D02*
X136652000Y-77724000D01*
X136652000Y-77724000D02*
X135382000Y-78994000D01*
X135382000Y-78994000D02*
X133858000Y-80518000D01*
X133858000Y-80518000D02*
X133858000Y-88138000D01*
X148590000Y-92075000D02*
X148590000Y-94615000D01*
%TD*%
D19*
%TO.N,GND*%
X160768083Y-60731173D02*
X161511891Y-60934656D01*
X162207905Y-61266638D01*
X162834130Y-61716626D01*
X163370777Y-62270403D01*
X163800871Y-62910451D01*
X164110829Y-63616553D01*
X164292065Y-64371457D01*
X164340000Y-65024207D01*
X164340000Y-74205040D01*
X164053533Y-73513446D01*
X163633839Y-72885330D01*
X163099670Y-72351161D01*
X162471554Y-71931467D01*
X161773628Y-71642377D01*
X161032715Y-71495000D01*
X160277285Y-71495000D01*
X159536372Y-71642377D01*
X158838446Y-71931467D01*
X158210330Y-72351161D01*
X157676161Y-72885330D01*
X157256467Y-73513446D01*
X156967377Y-74211372D01*
X156820000Y-74952285D01*
X156820000Y-75707715D01*
X156967377Y-76448628D01*
X157256467Y-77146554D01*
X157676161Y-77774670D01*
X158210330Y-78308839D01*
X158838446Y-78728533D01*
X159536372Y-79017623D01*
X160277285Y-79165000D01*
X161032715Y-79165000D01*
X161773628Y-79017623D01*
X162471554Y-78728533D01*
X163099670Y-78308839D01*
X163633839Y-77774670D01*
X164053533Y-77146554D01*
X164340000Y-76454960D01*
X164340001Y-99205042D01*
X164053533Y-98513446D01*
X163633839Y-97885330D01*
X163099670Y-97351161D01*
X162471554Y-96931467D01*
X161773628Y-96642377D01*
X161032715Y-96495000D01*
X160277285Y-96495000D01*
X159536372Y-96642377D01*
X158838446Y-96931467D01*
X158210330Y-97351161D01*
X157676161Y-97885330D01*
X157256467Y-98513446D01*
X156967377Y-99211372D01*
X156820000Y-99952285D01*
X156820000Y-100707715D01*
X156967377Y-101448628D01*
X157256467Y-102146554D01*
X157676161Y-102774670D01*
X158210330Y-103308839D01*
X158838446Y-103728533D01*
X159536372Y-104017623D01*
X160277285Y-104165000D01*
X161032715Y-104165000D01*
X161448405Y-104082314D01*
X161383447Y-104110829D01*
X160628543Y-104292065D01*
X159975793Y-104340000D01*
X125029392Y-104340000D01*
X124231917Y-104268827D01*
X123488110Y-104065344D01*
X123421458Y-104033553D01*
X124082285Y-104165000D01*
X124837715Y-104165000D01*
X125578628Y-104017623D01*
X126276554Y-103728533D01*
X126904670Y-103308839D01*
X127438839Y-102774670D01*
X127858533Y-102146554D01*
X128147623Y-101448628D01*
X128295000Y-100707715D01*
X128295000Y-99952285D01*
X128147623Y-99211372D01*
X127858533Y-98513446D01*
X127438839Y-97885330D01*
X126904670Y-97351161D01*
X126276554Y-96931467D01*
X125578628Y-96642377D01*
X124837715Y-96495000D01*
X124082285Y-96495000D01*
X123341372Y-96642377D01*
X122643446Y-96931467D01*
X122015330Y-97351161D01*
X121481161Y-97885330D01*
X121061467Y-98513446D01*
X120772377Y-99211372D01*
X120660000Y-99776328D01*
X120660000Y-92495000D01*
X129321928Y-92495000D01*
X129321928Y-94195000D01*
X129334188Y-94319482D01*
X129370498Y-94439180D01*
X129429463Y-94549494D01*
X129508815Y-94646185D01*
X129605506Y-94725537D01*
X129715820Y-94784502D01*
X129835518Y-94820812D01*
X129960000Y-94833072D01*
X131660000Y-94833072D01*
X131784482Y-94820812D01*
X131904180Y-94784502D01*
X132014494Y-94725537D01*
X132111185Y-94646185D01*
X132190537Y-94549494D01*
X132249502Y-94439180D01*
X132285812Y-94319482D01*
X132298072Y-94195000D01*
X132298072Y-92495000D01*
X132285812Y-92370518D01*
X132249502Y-92250820D01*
X132190537Y-92140506D01*
X132111185Y-92043815D01*
X132014494Y-91964463D01*
X131904180Y-91905498D01*
X131823534Y-91881034D01*
X131907588Y-91805269D01*
X132081641Y-91571920D01*
X132206825Y-91309099D01*
X132251476Y-91161890D01*
X132130155Y-90932000D01*
X130937000Y-90932000D01*
X130937000Y-90952000D01*
X130683000Y-90952000D01*
X130683000Y-90932000D01*
X129489845Y-90932000D01*
X129368524Y-91161890D01*
X129413175Y-91309099D01*
X129538359Y-91571920D01*
X129712412Y-91805269D01*
X129796466Y-91881034D01*
X129715820Y-91905498D01*
X129605506Y-91964463D01*
X129508815Y-92043815D01*
X129429463Y-92140506D01*
X129370498Y-92250820D01*
X129334188Y-92370518D01*
X129321928Y-92495000D01*
X120660000Y-92495000D01*
X120660000Y-83038740D01*
X129325000Y-83038740D01*
X129325000Y-83331260D01*
X129382068Y-83618158D01*
X129494010Y-83888411D01*
X129656525Y-84131632D01*
X129863368Y-84338475D01*
X130037760Y-84455000D01*
X129863368Y-84571525D01*
X129656525Y-84778368D01*
X129494010Y-85021589D01*
X129382068Y-85291842D01*
X129325000Y-85578740D01*
X129325000Y-85871260D01*
X129382068Y-86158158D01*
X129494010Y-86428411D01*
X129656525Y-86671632D01*
X129863368Y-86878475D01*
X130037760Y-86995000D01*
X129863368Y-87111525D01*
X129656525Y-87318368D01*
X129494010Y-87561589D01*
X129382068Y-87831842D01*
X129325000Y-88118740D01*
X129325000Y-88411260D01*
X129382068Y-88698158D01*
X129494010Y-88968411D01*
X129656525Y-89211632D01*
X129863368Y-89418475D01*
X130045534Y-89540195D01*
X129928645Y-89609822D01*
X129712412Y-89804731D01*
X129538359Y-90038080D01*
X129413175Y-90300901D01*
X129368524Y-90448110D01*
X129489845Y-90678000D01*
X130683000Y-90678000D01*
X130683000Y-90658000D01*
X130937000Y-90658000D01*
X130937000Y-90678000D01*
X132130155Y-90678000D01*
X132251476Y-90448110D01*
X132206825Y-90300901D01*
X132081641Y-90038080D01*
X131907588Y-89804731D01*
X131691355Y-89609822D01*
X131574466Y-89540195D01*
X131756632Y-89418475D01*
X131963475Y-89211632D01*
X132125990Y-88968411D01*
X132178940Y-88840577D01*
X132187190Y-88847347D01*
X133402658Y-90062815D01*
X133427236Y-90092764D01*
X133457184Y-90117342D01*
X133457187Y-90117345D01*
X133460710Y-90120236D01*
X133546767Y-90190862D01*
X133683140Y-90263754D01*
X133796672Y-90298194D01*
X133831112Y-90308641D01*
X133845490Y-90310057D01*
X133946439Y-90320000D01*
X133946446Y-90320000D01*
X133984999Y-90323797D01*
X134023552Y-90320000D01*
X137223254Y-90320000D01*
X137193246Y-90376141D01*
X137148359Y-90524114D01*
X137137000Y-90639440D01*
X137137000Y-90639447D01*
X137133203Y-90678000D01*
X137137000Y-90716553D01*
X137137000Y-91114843D01*
X136632190Y-91619653D01*
X136602236Y-91644236D01*
X136504138Y-91763768D01*
X136431246Y-91900141D01*
X136386359Y-92048114D01*
X136375000Y-92163440D01*
X136375000Y-92163447D01*
X136371203Y-92202000D01*
X136375000Y-92240553D01*
X136375000Y-93226928D01*
X135860000Y-93226928D01*
X135835550Y-93229336D01*
X135810991Y-93229336D01*
X135686510Y-93241596D01*
X135590377Y-93260718D01*
X135470681Y-93297027D01*
X135380125Y-93334536D01*
X135269808Y-93393502D01*
X135188309Y-93447958D01*
X135091618Y-93527310D01*
X135022310Y-93596618D01*
X134942958Y-93693309D01*
X134888502Y-93774808D01*
X134829536Y-93885125D01*
X134792027Y-93975681D01*
X134755718Y-94095377D01*
X134736596Y-94191510D01*
X134724336Y-94315991D01*
X134724336Y-94340550D01*
X134721928Y-94365000D01*
X134721928Y-94865000D01*
X134724336Y-94889450D01*
X134724336Y-94914009D01*
X134736596Y-95038490D01*
X134755718Y-95134623D01*
X134792027Y-95254319D01*
X134829536Y-95344875D01*
X134888502Y-95455192D01*
X134942958Y-95536691D01*
X135022310Y-95633382D01*
X135075001Y-95686073D01*
X135075001Y-96451438D01*
X135071203Y-96490000D01*
X135086359Y-96643886D01*
X135131246Y-96791859D01*
X135131247Y-96791860D01*
X135204139Y-96928233D01*
X135244690Y-96977644D01*
X135277655Y-97017812D01*
X135277659Y-97017816D01*
X135302237Y-97047764D01*
X135332185Y-97072342D01*
X135942657Y-97682815D01*
X135967236Y-97712764D01*
X135997184Y-97737342D01*
X135997187Y-97737345D01*
X136026559Y-97761450D01*
X136086767Y-97810862D01*
X136223140Y-97883754D01*
X136371113Y-97928641D01*
X136486439Y-97940000D01*
X136486446Y-97940000D01*
X136524999Y-97943797D01*
X136563552Y-97940000D01*
X150456447Y-97940000D01*
X150495000Y-97943797D01*
X150533553Y-97940000D01*
X150533561Y-97940000D01*
X150648887Y-97928641D01*
X150796860Y-97883754D01*
X150933233Y-97810862D01*
X151052764Y-97712764D01*
X151077347Y-97682810D01*
X152292817Y-96467341D01*
X152322764Y-96442764D01*
X152420862Y-96323233D01*
X152493754Y-96186860D01*
X152538641Y-96038887D01*
X152550000Y-95923561D01*
X152550000Y-95923554D01*
X152553797Y-95885001D01*
X152550000Y-95846448D01*
X152550000Y-93833740D01*
X152820000Y-93833740D01*
X152820000Y-94126260D01*
X152877068Y-94413158D01*
X152989010Y-94683411D01*
X153151525Y-94926632D01*
X153358368Y-95133475D01*
X153601589Y-95295990D01*
X153871842Y-95407932D01*
X154158740Y-95465000D01*
X154451260Y-95465000D01*
X154738158Y-95407932D01*
X155008411Y-95295990D01*
X155251632Y-95133475D01*
X155458475Y-94926632D01*
X155620990Y-94683411D01*
X155732932Y-94413158D01*
X155790000Y-94126260D01*
X155790000Y-93833740D01*
X155732932Y-93546842D01*
X155620990Y-93276589D01*
X155458475Y-93033368D01*
X155251632Y-92826525D01*
X155069466Y-92704805D01*
X155186355Y-92635178D01*
X155402588Y-92440269D01*
X155576641Y-92206920D01*
X155701825Y-91944099D01*
X155746476Y-91796890D01*
X155625155Y-91567000D01*
X154432000Y-91567000D01*
X154432000Y-91587000D01*
X154178000Y-91587000D01*
X154178000Y-91567000D01*
X152984845Y-91567000D01*
X152863524Y-91796890D01*
X152908175Y-91944099D01*
X153033359Y-92206920D01*
X153207412Y-92440269D01*
X153423645Y-92635178D01*
X153540534Y-92704805D01*
X153358368Y-92826525D01*
X153151525Y-93033368D01*
X152989010Y-93276589D01*
X152877068Y-93546842D01*
X152820000Y-93833740D01*
X152550000Y-93833740D01*
X152550000Y-89860157D01*
X152725157Y-89685000D01*
X153043526Y-89685000D01*
X153151525Y-89846632D01*
X153358368Y-90053475D01*
X153540534Y-90175195D01*
X153423645Y-90244822D01*
X153207412Y-90439731D01*
X153033359Y-90673080D01*
X152908175Y-90935901D01*
X152863524Y-91083110D01*
X152984845Y-91313000D01*
X154178000Y-91313000D01*
X154178000Y-91293000D01*
X154432000Y-91293000D01*
X154432000Y-91313000D01*
X155625155Y-91313000D01*
X155746476Y-91083110D01*
X155701825Y-90935901D01*
X155576641Y-90673080D01*
X155402588Y-90439731D01*
X155186355Y-90244822D01*
X155069466Y-90175195D01*
X155251632Y-90053475D01*
X155458475Y-89846632D01*
X155620990Y-89603411D01*
X155732932Y-89333158D01*
X155790000Y-89046260D01*
X155790000Y-88753740D01*
X155732932Y-88466842D01*
X155620990Y-88196589D01*
X155458475Y-87953368D01*
X155251632Y-87746525D01*
X155077240Y-87630000D01*
X155251632Y-87513475D01*
X155458475Y-87306632D01*
X155620990Y-87063411D01*
X155732932Y-86793158D01*
X155790000Y-86506260D01*
X155790000Y-86213740D01*
X155732932Y-85926842D01*
X155620990Y-85656589D01*
X155458475Y-85413368D01*
X155251632Y-85206525D01*
X155077240Y-85090000D01*
X155251632Y-84973475D01*
X155458475Y-84766632D01*
X155620990Y-84523411D01*
X155732932Y-84253158D01*
X155790000Y-83966260D01*
X155790000Y-83673740D01*
X155732932Y-83386842D01*
X155620990Y-83116589D01*
X155458475Y-82873368D01*
X155326620Y-82741513D01*
X155399180Y-82719502D01*
X155509494Y-82660537D01*
X155606185Y-82581185D01*
X155685537Y-82484494D01*
X155744502Y-82374180D01*
X155780812Y-82254482D01*
X155793072Y-82130000D01*
X155793072Y-80430000D01*
X155780812Y-80305518D01*
X155744502Y-80185820D01*
X155685537Y-80075506D01*
X155606185Y-79978815D01*
X155509494Y-79899463D01*
X155399180Y-79840498D01*
X155279482Y-79804188D01*
X155155000Y-79791928D01*
X153455000Y-79791928D01*
X153330518Y-79804188D01*
X153210820Y-79840498D01*
X153185000Y-79854299D01*
X153185000Y-76873552D01*
X153188797Y-76834999D01*
X153185000Y-76796446D01*
X153185000Y-76796439D01*
X153173641Y-76681113D01*
X153128754Y-76533140D01*
X153055862Y-76396767D01*
X152957764Y-76277236D01*
X152927810Y-76252653D01*
X152474350Y-75799193D01*
X152474345Y-75799187D01*
X150895000Y-74219843D01*
X150895000Y-74193061D01*
X150855226Y-73993102D01*
X150777205Y-73804744D01*
X150663937Y-73635226D01*
X150519774Y-73491063D01*
X150350256Y-73377795D01*
X150161898Y-73299774D01*
X149961939Y-73260000D01*
X149758061Y-73260000D01*
X149558102Y-73299774D01*
X149369744Y-73377795D01*
X149200226Y-73491063D01*
X149056063Y-73635226D01*
X148942795Y-73804744D01*
X148864774Y-73993102D01*
X148825000Y-74193061D01*
X148825000Y-74383021D01*
X148823226Y-74374102D01*
X148745205Y-74185744D01*
X148631937Y-74016226D01*
X148487774Y-73872063D01*
X148318256Y-73758795D01*
X148129898Y-73680774D01*
X147929939Y-73641000D01*
X147726061Y-73641000D01*
X147526102Y-73680774D01*
X147337744Y-73758795D01*
X147168226Y-73872063D01*
X147024063Y-74016226D01*
X146910795Y-74185744D01*
X146832774Y-74374102D01*
X146793000Y-74574061D01*
X146793000Y-74777939D01*
X146832774Y-74977898D01*
X146910795Y-75166256D01*
X146954214Y-75231237D01*
X146829744Y-75282795D01*
X146660226Y-75396063D01*
X146516063Y-75540226D01*
X146402795Y-75709744D01*
X146324774Y-75898102D01*
X146285000Y-76098061D01*
X146285000Y-76301939D01*
X146324774Y-76501898D01*
X146402795Y-76690256D01*
X146516063Y-76859774D01*
X146660226Y-77003937D01*
X146829744Y-77117205D01*
X147018102Y-77195226D01*
X147218061Y-77235000D01*
X147244843Y-77235000D01*
X147598176Y-77588334D01*
X147559463Y-77635506D01*
X147500498Y-77745820D01*
X147464188Y-77865518D01*
X147451928Y-77990000D01*
X147451928Y-79490000D01*
X147464188Y-79614482D01*
X147500498Y-79734180D01*
X147559463Y-79844494D01*
X147638815Y-79941185D01*
X147735506Y-80020537D01*
X147845820Y-80079502D01*
X147965518Y-80115812D01*
X148090000Y-80128072D01*
X148631771Y-80128072D01*
X147141168Y-81618675D01*
X146986898Y-81554774D01*
X146786939Y-81515000D01*
X146583061Y-81515000D01*
X146383102Y-81554774D01*
X146194744Y-81632795D01*
X146025226Y-81746063D01*
X145881063Y-81890226D01*
X145767795Y-82059744D01*
X145689774Y-82248102D01*
X145650000Y-82448061D01*
X145650000Y-82651939D01*
X145689774Y-82851898D01*
X145767795Y-83040256D01*
X145881063Y-83209774D01*
X145960289Y-83289000D01*
X145580552Y-83289000D01*
X145541999Y-83285203D01*
X145503446Y-83289000D01*
X145503439Y-83289000D01*
X145402490Y-83298943D01*
X145388112Y-83300359D01*
X145379169Y-83303072D01*
X145240140Y-83345246D01*
X145103767Y-83418138D01*
X145053034Y-83459774D01*
X145014187Y-83491655D01*
X145014184Y-83491658D01*
X144984236Y-83516236D01*
X144959658Y-83546185D01*
X143946843Y-84559000D01*
X143909590Y-84559000D01*
X143910000Y-84556939D01*
X143910000Y-84353061D01*
X143870226Y-84153102D01*
X143792205Y-83964744D01*
X143678937Y-83795226D01*
X143660000Y-83776289D01*
X143660000Y-74333552D01*
X143663797Y-74294999D01*
X143660000Y-74256446D01*
X143660000Y-74256439D01*
X143648641Y-74141113D01*
X143603754Y-73993140D01*
X143530862Y-73856767D01*
X143432764Y-73737236D01*
X143402815Y-73712658D01*
X142390000Y-72699843D01*
X142390000Y-72433711D01*
X142408937Y-72414774D01*
X142522205Y-72245256D01*
X142600226Y-72056898D01*
X142640000Y-71856939D01*
X142640000Y-71653061D01*
X142600226Y-71453102D01*
X142522205Y-71264744D01*
X142408937Y-71095226D01*
X142264774Y-70951063D01*
X142095256Y-70837795D01*
X141906898Y-70759774D01*
X141706939Y-70720000D01*
X141503061Y-70720000D01*
X141303102Y-70759774D01*
X141114744Y-70837795D01*
X140945226Y-70951063D01*
X140801063Y-71095226D01*
X140687795Y-71264744D01*
X140609774Y-71453102D01*
X140570000Y-71653061D01*
X140570000Y-71856939D01*
X140609774Y-72056898D01*
X140687795Y-72245256D01*
X140801063Y-72414774D01*
X140820001Y-72433712D01*
X140820001Y-72986438D01*
X140816203Y-73025000D01*
X140831359Y-73178886D01*
X140876246Y-73326859D01*
X140876247Y-73326860D01*
X140949139Y-73463233D01*
X140971979Y-73491063D01*
X141022655Y-73552812D01*
X141022659Y-73552816D01*
X141047237Y-73582764D01*
X141077185Y-73607342D01*
X142090001Y-74620159D01*
X142090000Y-80995618D01*
X141906898Y-80919774D01*
X141706939Y-80880000D01*
X141503061Y-80880000D01*
X141303102Y-80919774D01*
X141114744Y-80997795D01*
X140945226Y-81111063D01*
X140926289Y-81130000D01*
X139460999Y-81130000D01*
X139431498Y-81074808D01*
X139377042Y-80993309D01*
X139297690Y-80896618D01*
X139245000Y-80843928D01*
X139245000Y-77271072D01*
X139297690Y-77218382D01*
X139377042Y-77121691D01*
X139431498Y-77040192D01*
X139490464Y-76929875D01*
X139527973Y-76839319D01*
X139564282Y-76719623D01*
X139583404Y-76623490D01*
X139595664Y-76499009D01*
X139595664Y-76474450D01*
X139598072Y-76450000D01*
X139598072Y-75950000D01*
X139595664Y-75925550D01*
X139595664Y-75900991D01*
X139583404Y-75776510D01*
X139564282Y-75680377D01*
X139527973Y-75560681D01*
X139490464Y-75470125D01*
X139431498Y-75359808D01*
X139377042Y-75278309D01*
X139297690Y-75181618D01*
X139245000Y-75128928D01*
X139245000Y-71823556D01*
X139248797Y-71785000D01*
X139245000Y-71746444D01*
X139245000Y-71746439D01*
X139235803Y-71653061D01*
X139233642Y-71631113D01*
X139188754Y-71483140D01*
X139172719Y-71453140D01*
X139115862Y-71346767D01*
X139017764Y-71227236D01*
X138987810Y-71202653D01*
X137945000Y-70159843D01*
X137945000Y-66653556D01*
X137948797Y-66615000D01*
X137945000Y-66576444D01*
X137945000Y-66576439D01*
X137941020Y-66536026D01*
X137933642Y-66461113D01*
X137888754Y-66313140D01*
X137877564Y-66292205D01*
X137815862Y-66176767D01*
X137717764Y-66057236D01*
X137687810Y-66032653D01*
X136955000Y-65299843D01*
X136955000Y-65273061D01*
X136915226Y-65073102D01*
X136837205Y-64884744D01*
X136723937Y-64715226D01*
X136579774Y-64571063D01*
X136410256Y-64457795D01*
X136221898Y-64379774D01*
X136021939Y-64340000D01*
X135818061Y-64340000D01*
X135618102Y-64379774D01*
X135429744Y-64457795D01*
X135260226Y-64571063D01*
X135116063Y-64715226D01*
X135002795Y-64884744D01*
X134924774Y-65073102D01*
X134885000Y-65273061D01*
X134885000Y-65476939D01*
X134924774Y-65676898D01*
X135002795Y-65865256D01*
X135116063Y-66034774D01*
X135260226Y-66178937D01*
X135429744Y-66292205D01*
X135618102Y-66370226D01*
X135818061Y-66410000D01*
X135844843Y-66410000D01*
X136375001Y-66940158D01*
X136375000Y-70446447D01*
X136371203Y-70485000D01*
X136375000Y-70523553D01*
X136375000Y-70523560D01*
X136386359Y-70638886D01*
X136431246Y-70786859D01*
X136504138Y-70923232D01*
X136602236Y-71042764D01*
X136632190Y-71067347D01*
X137675001Y-72110158D01*
X137675001Y-72759329D01*
X137650256Y-72742795D01*
X137461898Y-72664774D01*
X137261939Y-72625000D01*
X137058061Y-72625000D01*
X136858102Y-72664774D01*
X136669744Y-72742795D01*
X136500226Y-72856063D01*
X136356063Y-73000226D01*
X136242795Y-73169744D01*
X136164774Y-73358102D01*
X136125000Y-73558061D01*
X136125000Y-73761939D01*
X136164774Y-73961898D01*
X136242795Y-74150256D01*
X136356063Y-74319774D01*
X136375000Y-74338711D01*
X136375000Y-74882317D01*
X136305506Y-74919463D01*
X136208815Y-74998815D01*
X136129463Y-75095506D01*
X136070498Y-75205820D01*
X136034188Y-75325518D01*
X136021928Y-75450000D01*
X136021928Y-76950000D01*
X136034188Y-77074482D01*
X136070498Y-77194180D01*
X136070903Y-77194939D01*
X134854192Y-78411651D01*
X134854187Y-78411655D01*
X133330190Y-79935653D01*
X133300236Y-79960236D01*
X133202138Y-80079768D01*
X133129246Y-80216141D01*
X133084359Y-80364114D01*
X133073000Y-80479440D01*
X133073000Y-80479447D01*
X133069203Y-80518000D01*
X133073000Y-80556553D01*
X133073001Y-86877844D01*
X132257075Y-86061918D01*
X132295000Y-85871260D01*
X132295000Y-85578740D01*
X132237932Y-85291842D01*
X132125990Y-85021589D01*
X131963475Y-84778368D01*
X131756632Y-84571525D01*
X131582240Y-84455000D01*
X131756632Y-84338475D01*
X131963475Y-84131632D01*
X132125990Y-83888411D01*
X132237932Y-83618158D01*
X132295000Y-83331260D01*
X132295000Y-83038740D01*
X132237932Y-82751842D01*
X132125990Y-82481589D01*
X131963475Y-82238368D01*
X131756632Y-82031525D01*
X131513411Y-81869010D01*
X131243158Y-81757068D01*
X130956260Y-81700000D01*
X130663740Y-81700000D01*
X130376842Y-81757068D01*
X130106589Y-81869010D01*
X129863368Y-82031525D01*
X129656525Y-82238368D01*
X129494010Y-82481589D01*
X129382068Y-82751842D01*
X129325000Y-83038740D01*
X120660000Y-83038740D01*
X120660000Y-75883672D01*
X120772377Y-76448628D01*
X121061467Y-77146554D01*
X121481161Y-77774670D01*
X122015330Y-78308839D01*
X122643446Y-78728533D01*
X123341372Y-79017623D01*
X124082285Y-79165000D01*
X124837715Y-79165000D01*
X125578628Y-79017623D01*
X126276554Y-78728533D01*
X126904670Y-78308839D01*
X127438839Y-77774670D01*
X127858533Y-77146554D01*
X128147623Y-76448628D01*
X128295000Y-75707715D01*
X128295000Y-74952285D01*
X128147623Y-74211372D01*
X127858533Y-73513446D01*
X127438839Y-72885330D01*
X126904670Y-72351161D01*
X126276554Y-71931467D01*
X125578628Y-71642377D01*
X124837715Y-71495000D01*
X124082285Y-71495000D01*
X123341372Y-71642377D01*
X122643446Y-71931467D01*
X122015330Y-72351161D01*
X121481161Y-72885330D01*
X121061467Y-73513446D01*
X120772377Y-74211372D01*
X120660000Y-74776328D01*
X120660000Y-65029392D01*
X120731173Y-64231917D01*
X120934656Y-63488109D01*
X121266638Y-62792095D01*
X121716626Y-62165870D01*
X122270403Y-61629223D01*
X122910451Y-61199129D01*
X123616553Y-60889171D01*
X124371457Y-60707935D01*
X125024207Y-60660000D01*
X159970608Y-60660000D01*
X160768083Y-60731173D01*
%TA.AperFunction,Conductor*%
D20*
G36*
X160768083Y-60731173D02*
G01*
X161511891Y-60934656D01*
X162207905Y-61266638D01*
X162834130Y-61716626D01*
X163370777Y-62270403D01*
X163800871Y-62910451D01*
X164110829Y-63616553D01*
X164292065Y-64371457D01*
X164340000Y-65024207D01*
X164340000Y-74205040D01*
X164053533Y-73513446D01*
X163633839Y-72885330D01*
X163099670Y-72351161D01*
X162471554Y-71931467D01*
X161773628Y-71642377D01*
X161032715Y-71495000D01*
X160277285Y-71495000D01*
X159536372Y-71642377D01*
X158838446Y-71931467D01*
X158210330Y-72351161D01*
X157676161Y-72885330D01*
X157256467Y-73513446D01*
X156967377Y-74211372D01*
X156820000Y-74952285D01*
X156820000Y-75707715D01*
X156967377Y-76448628D01*
X157256467Y-77146554D01*
X157676161Y-77774670D01*
X158210330Y-78308839D01*
X158838446Y-78728533D01*
X159536372Y-79017623D01*
X160277285Y-79165000D01*
X161032715Y-79165000D01*
X161773628Y-79017623D01*
X162471554Y-78728533D01*
X163099670Y-78308839D01*
X163633839Y-77774670D01*
X164053533Y-77146554D01*
X164340000Y-76454960D01*
X164340001Y-99205042D01*
X164053533Y-98513446D01*
X163633839Y-97885330D01*
X163099670Y-97351161D01*
X162471554Y-96931467D01*
X161773628Y-96642377D01*
X161032715Y-96495000D01*
X160277285Y-96495000D01*
X159536372Y-96642377D01*
X158838446Y-96931467D01*
X158210330Y-97351161D01*
X157676161Y-97885330D01*
X157256467Y-98513446D01*
X156967377Y-99211372D01*
X156820000Y-99952285D01*
X156820000Y-100707715D01*
X156967377Y-101448628D01*
X157256467Y-102146554D01*
X157676161Y-102774670D01*
X158210330Y-103308839D01*
X158838446Y-103728533D01*
X159536372Y-104017623D01*
X160277285Y-104165000D01*
X161032715Y-104165000D01*
X161448405Y-104082314D01*
X161383447Y-104110829D01*
X160628543Y-104292065D01*
X159975793Y-104340000D01*
X125029392Y-104340000D01*
X124231917Y-104268827D01*
X123488110Y-104065344D01*
X123421458Y-104033553D01*
X124082285Y-104165000D01*
X124837715Y-104165000D01*
X125578628Y-104017623D01*
X126276554Y-103728533D01*
X126904670Y-103308839D01*
X127438839Y-102774670D01*
X127858533Y-102146554D01*
X128147623Y-101448628D01*
X128295000Y-100707715D01*
X128295000Y-99952285D01*
X128147623Y-99211372D01*
X127858533Y-98513446D01*
X127438839Y-97885330D01*
X126904670Y-97351161D01*
X126276554Y-96931467D01*
X125578628Y-96642377D01*
X124837715Y-96495000D01*
X124082285Y-96495000D01*
X123341372Y-96642377D01*
X122643446Y-96931467D01*
X122015330Y-97351161D01*
X121481161Y-97885330D01*
X121061467Y-98513446D01*
X120772377Y-99211372D01*
X120660000Y-99776328D01*
X120660000Y-92495000D01*
X129321928Y-92495000D01*
X129321928Y-94195000D01*
X129334188Y-94319482D01*
X129370498Y-94439180D01*
X129429463Y-94549494D01*
X129508815Y-94646185D01*
X129605506Y-94725537D01*
X129715820Y-94784502D01*
X129835518Y-94820812D01*
X129960000Y-94833072D01*
X131660000Y-94833072D01*
X131784482Y-94820812D01*
X131904180Y-94784502D01*
X132014494Y-94725537D01*
X132111185Y-94646185D01*
X132190537Y-94549494D01*
X132249502Y-94439180D01*
X132285812Y-94319482D01*
X132298072Y-94195000D01*
X132298072Y-92495000D01*
X132285812Y-92370518D01*
X132249502Y-92250820D01*
X132190537Y-92140506D01*
X132111185Y-92043815D01*
X132014494Y-91964463D01*
X131904180Y-91905498D01*
X131823534Y-91881034D01*
X131907588Y-91805269D01*
X132081641Y-91571920D01*
X132206825Y-91309099D01*
X132251476Y-91161890D01*
X132130155Y-90932000D01*
X130937000Y-90932000D01*
X130937000Y-90952000D01*
X130683000Y-90952000D01*
X130683000Y-90932000D01*
X129489845Y-90932000D01*
X129368524Y-91161890D01*
X129413175Y-91309099D01*
X129538359Y-91571920D01*
X129712412Y-91805269D01*
X129796466Y-91881034D01*
X129715820Y-91905498D01*
X129605506Y-91964463D01*
X129508815Y-92043815D01*
X129429463Y-92140506D01*
X129370498Y-92250820D01*
X129334188Y-92370518D01*
X129321928Y-92495000D01*
X120660000Y-92495000D01*
X120660000Y-83038740D01*
X129325000Y-83038740D01*
X129325000Y-83331260D01*
X129382068Y-83618158D01*
X129494010Y-83888411D01*
X129656525Y-84131632D01*
X129863368Y-84338475D01*
X130037760Y-84455000D01*
X129863368Y-84571525D01*
X129656525Y-84778368D01*
X129494010Y-85021589D01*
X129382068Y-85291842D01*
X129325000Y-85578740D01*
X129325000Y-85871260D01*
X129382068Y-86158158D01*
X129494010Y-86428411D01*
X129656525Y-86671632D01*
X129863368Y-86878475D01*
X130037760Y-86995000D01*
X129863368Y-87111525D01*
X129656525Y-87318368D01*
X129494010Y-87561589D01*
X129382068Y-87831842D01*
X129325000Y-88118740D01*
X129325000Y-88411260D01*
X129382068Y-88698158D01*
X129494010Y-88968411D01*
X129656525Y-89211632D01*
X129863368Y-89418475D01*
X130045534Y-89540195D01*
X129928645Y-89609822D01*
X129712412Y-89804731D01*
X129538359Y-90038080D01*
X129413175Y-90300901D01*
X129368524Y-90448110D01*
X129489845Y-90678000D01*
X130683000Y-90678000D01*
X130683000Y-90658000D01*
X130937000Y-90658000D01*
X130937000Y-90678000D01*
X132130155Y-90678000D01*
X132251476Y-90448110D01*
X132206825Y-90300901D01*
X132081641Y-90038080D01*
X131907588Y-89804731D01*
X131691355Y-89609822D01*
X131574466Y-89540195D01*
X131756632Y-89418475D01*
X131963475Y-89211632D01*
X132125990Y-88968411D01*
X132178940Y-88840577D01*
X132187190Y-88847347D01*
X133402658Y-90062815D01*
X133427236Y-90092764D01*
X133457184Y-90117342D01*
X133457187Y-90117345D01*
X133460710Y-90120236D01*
X133546767Y-90190862D01*
X133683140Y-90263754D01*
X133796672Y-90298194D01*
X133831112Y-90308641D01*
X133845490Y-90310057D01*
X133946439Y-90320000D01*
X133946446Y-90320000D01*
X133984999Y-90323797D01*
X134023552Y-90320000D01*
X137223254Y-90320000D01*
X137193246Y-90376141D01*
X137148359Y-90524114D01*
X137137000Y-90639440D01*
X137137000Y-90639447D01*
X137133203Y-90678000D01*
X137137000Y-90716553D01*
X137137000Y-91114843D01*
X136632190Y-91619653D01*
X136602236Y-91644236D01*
X136504138Y-91763768D01*
X136431246Y-91900141D01*
X136386359Y-92048114D01*
X136375000Y-92163440D01*
X136375000Y-92163447D01*
X136371203Y-92202000D01*
X136375000Y-92240553D01*
X136375000Y-93226928D01*
X135860000Y-93226928D01*
X135835550Y-93229336D01*
X135810991Y-93229336D01*
X135686510Y-93241596D01*
X135590377Y-93260718D01*
X135470681Y-93297027D01*
X135380125Y-93334536D01*
X135269808Y-93393502D01*
X135188309Y-93447958D01*
X135091618Y-93527310D01*
X135022310Y-93596618D01*
X134942958Y-93693309D01*
X134888502Y-93774808D01*
X134829536Y-93885125D01*
X134792027Y-93975681D01*
X134755718Y-94095377D01*
X134736596Y-94191510D01*
X134724336Y-94315991D01*
X134724336Y-94340550D01*
X134721928Y-94365000D01*
X134721928Y-94865000D01*
X134724336Y-94889450D01*
X134724336Y-94914009D01*
X134736596Y-95038490D01*
X134755718Y-95134623D01*
X134792027Y-95254319D01*
X134829536Y-95344875D01*
X134888502Y-95455192D01*
X134942958Y-95536691D01*
X135022310Y-95633382D01*
X135075001Y-95686073D01*
X135075001Y-96451438D01*
X135071203Y-96490000D01*
X135086359Y-96643886D01*
X135131246Y-96791859D01*
X135131247Y-96791860D01*
X135204139Y-96928233D01*
X135244690Y-96977644D01*
X135277655Y-97017812D01*
X135277659Y-97017816D01*
X135302237Y-97047764D01*
X135332185Y-97072342D01*
X135942657Y-97682815D01*
X135967236Y-97712764D01*
X135997184Y-97737342D01*
X135997187Y-97737345D01*
X136026559Y-97761450D01*
X136086767Y-97810862D01*
X136223140Y-97883754D01*
X136371113Y-97928641D01*
X136486439Y-97940000D01*
X136486446Y-97940000D01*
X136524999Y-97943797D01*
X136563552Y-97940000D01*
X150456447Y-97940000D01*
X150495000Y-97943797D01*
X150533553Y-97940000D01*
X150533561Y-97940000D01*
X150648887Y-97928641D01*
X150796860Y-97883754D01*
X150933233Y-97810862D01*
X151052764Y-97712764D01*
X151077347Y-97682810D01*
X152292817Y-96467341D01*
X152322764Y-96442764D01*
X152420862Y-96323233D01*
X152493754Y-96186860D01*
X152538641Y-96038887D01*
X152550000Y-95923561D01*
X152550000Y-95923554D01*
X152553797Y-95885001D01*
X152550000Y-95846448D01*
X152550000Y-93833740D01*
X152820000Y-93833740D01*
X152820000Y-94126260D01*
X152877068Y-94413158D01*
X152989010Y-94683411D01*
X153151525Y-94926632D01*
X153358368Y-95133475D01*
X153601589Y-95295990D01*
X153871842Y-95407932D01*
X154158740Y-95465000D01*
X154451260Y-95465000D01*
X154738158Y-95407932D01*
X155008411Y-95295990D01*
X155251632Y-95133475D01*
X155458475Y-94926632D01*
X155620990Y-94683411D01*
X155732932Y-94413158D01*
X155790000Y-94126260D01*
X155790000Y-93833740D01*
X155732932Y-93546842D01*
X155620990Y-93276589D01*
X155458475Y-93033368D01*
X155251632Y-92826525D01*
X155069466Y-92704805D01*
X155186355Y-92635178D01*
X155402588Y-92440269D01*
X155576641Y-92206920D01*
X155701825Y-91944099D01*
X155746476Y-91796890D01*
X155625155Y-91567000D01*
X154432000Y-91567000D01*
X154432000Y-91587000D01*
X154178000Y-91587000D01*
X154178000Y-91567000D01*
X152984845Y-91567000D01*
X152863524Y-91796890D01*
X152908175Y-91944099D01*
X153033359Y-92206920D01*
X153207412Y-92440269D01*
X153423645Y-92635178D01*
X153540534Y-92704805D01*
X153358368Y-92826525D01*
X153151525Y-93033368D01*
X152989010Y-93276589D01*
X152877068Y-93546842D01*
X152820000Y-93833740D01*
X152550000Y-93833740D01*
X152550000Y-89860157D01*
X152725157Y-89685000D01*
X153043526Y-89685000D01*
X153151525Y-89846632D01*
X153358368Y-90053475D01*
X153540534Y-90175195D01*
X153423645Y-90244822D01*
X153207412Y-90439731D01*
X153033359Y-90673080D01*
X152908175Y-90935901D01*
X152863524Y-91083110D01*
X152984845Y-91313000D01*
X154178000Y-91313000D01*
X154178000Y-91293000D01*
X154432000Y-91293000D01*
X154432000Y-91313000D01*
X155625155Y-91313000D01*
X155746476Y-91083110D01*
X155701825Y-90935901D01*
X155576641Y-90673080D01*
X155402588Y-90439731D01*
X155186355Y-90244822D01*
X155069466Y-90175195D01*
X155251632Y-90053475D01*
X155458475Y-89846632D01*
X155620990Y-89603411D01*
X155732932Y-89333158D01*
X155790000Y-89046260D01*
X155790000Y-88753740D01*
X155732932Y-88466842D01*
X155620990Y-88196589D01*
X155458475Y-87953368D01*
X155251632Y-87746525D01*
X155077240Y-87630000D01*
X155251632Y-87513475D01*
X155458475Y-87306632D01*
X155620990Y-87063411D01*
X155732932Y-86793158D01*
X155790000Y-86506260D01*
X155790000Y-86213740D01*
X155732932Y-85926842D01*
X155620990Y-85656589D01*
X155458475Y-85413368D01*
X155251632Y-85206525D01*
X155077240Y-85090000D01*
X155251632Y-84973475D01*
X155458475Y-84766632D01*
X155620990Y-84523411D01*
X155732932Y-84253158D01*
X155790000Y-83966260D01*
X155790000Y-83673740D01*
X155732932Y-83386842D01*
X155620990Y-83116589D01*
X155458475Y-82873368D01*
X155326620Y-82741513D01*
X155399180Y-82719502D01*
X155509494Y-82660537D01*
X155606185Y-82581185D01*
X155685537Y-82484494D01*
X155744502Y-82374180D01*
X155780812Y-82254482D01*
X155793072Y-82130000D01*
X155793072Y-80430000D01*
X155780812Y-80305518D01*
X155744502Y-80185820D01*
X155685537Y-80075506D01*
X155606185Y-79978815D01*
X155509494Y-79899463D01*
X155399180Y-79840498D01*
X155279482Y-79804188D01*
X155155000Y-79791928D01*
X153455000Y-79791928D01*
X153330518Y-79804188D01*
X153210820Y-79840498D01*
X153185000Y-79854299D01*
X153185000Y-76873552D01*
X153188797Y-76834999D01*
X153185000Y-76796446D01*
X153185000Y-76796439D01*
X153173641Y-76681113D01*
X153128754Y-76533140D01*
X153055862Y-76396767D01*
X152957764Y-76277236D01*
X152927810Y-76252653D01*
X152474350Y-75799193D01*
X152474345Y-75799187D01*
X150895000Y-74219843D01*
X150895000Y-74193061D01*
X150855226Y-73993102D01*
X150777205Y-73804744D01*
X150663937Y-73635226D01*
X150519774Y-73491063D01*
X150350256Y-73377795D01*
X150161898Y-73299774D01*
X149961939Y-73260000D01*
X149758061Y-73260000D01*
X149558102Y-73299774D01*
X149369744Y-73377795D01*
X149200226Y-73491063D01*
X149056063Y-73635226D01*
X148942795Y-73804744D01*
X148864774Y-73993102D01*
X148825000Y-74193061D01*
X148825000Y-74383021D01*
X148823226Y-74374102D01*
X148745205Y-74185744D01*
X148631937Y-74016226D01*
X148487774Y-73872063D01*
X148318256Y-73758795D01*
X148129898Y-73680774D01*
X147929939Y-73641000D01*
X147726061Y-73641000D01*
X147526102Y-73680774D01*
X147337744Y-73758795D01*
X147168226Y-73872063D01*
X147024063Y-74016226D01*
X146910795Y-74185744D01*
X146832774Y-74374102D01*
X146793000Y-74574061D01*
X146793000Y-74777939D01*
X146832774Y-74977898D01*
X146910795Y-75166256D01*
X146954214Y-75231237D01*
X146829744Y-75282795D01*
X146660226Y-75396063D01*
X146516063Y-75540226D01*
X146402795Y-75709744D01*
X146324774Y-75898102D01*
X146285000Y-76098061D01*
X146285000Y-76301939D01*
X146324774Y-76501898D01*
X146402795Y-76690256D01*
X146516063Y-76859774D01*
X146660226Y-77003937D01*
X146829744Y-77117205D01*
X147018102Y-77195226D01*
X147218061Y-77235000D01*
X147244843Y-77235000D01*
X147598176Y-77588334D01*
X147559463Y-77635506D01*
X147500498Y-77745820D01*
X147464188Y-77865518D01*
X147451928Y-77990000D01*
X147451928Y-79490000D01*
X147464188Y-79614482D01*
X147500498Y-79734180D01*
X147559463Y-79844494D01*
X147638815Y-79941185D01*
X147735506Y-80020537D01*
X147845820Y-80079502D01*
X147965518Y-80115812D01*
X148090000Y-80128072D01*
X148631771Y-80128072D01*
X147141168Y-81618675D01*
X146986898Y-81554774D01*
X146786939Y-81515000D01*
X146583061Y-81515000D01*
X146383102Y-81554774D01*
X146194744Y-81632795D01*
X146025226Y-81746063D01*
X145881063Y-81890226D01*
X145767795Y-82059744D01*
X145689774Y-82248102D01*
X145650000Y-82448061D01*
X145650000Y-82651939D01*
X145689774Y-82851898D01*
X145767795Y-83040256D01*
X145881063Y-83209774D01*
X145960289Y-83289000D01*
X145580552Y-83289000D01*
X145541999Y-83285203D01*
X145503446Y-83289000D01*
X145503439Y-83289000D01*
X145402490Y-83298943D01*
X145388112Y-83300359D01*
X145379169Y-83303072D01*
X145240140Y-83345246D01*
X145103767Y-83418138D01*
X145053034Y-83459774D01*
X145014187Y-83491655D01*
X145014184Y-83491658D01*
X144984236Y-83516236D01*
X144959658Y-83546185D01*
X143946843Y-84559000D01*
X143909590Y-84559000D01*
X143910000Y-84556939D01*
X143910000Y-84353061D01*
X143870226Y-84153102D01*
X143792205Y-83964744D01*
X143678937Y-83795226D01*
X143660000Y-83776289D01*
X143660000Y-74333552D01*
X143663797Y-74294999D01*
X143660000Y-74256446D01*
X143660000Y-74256439D01*
X143648641Y-74141113D01*
X143603754Y-73993140D01*
X143530862Y-73856767D01*
X143432764Y-73737236D01*
X143402815Y-73712658D01*
X142390000Y-72699843D01*
X142390000Y-72433711D01*
X142408937Y-72414774D01*
X142522205Y-72245256D01*
X142600226Y-72056898D01*
X142640000Y-71856939D01*
X142640000Y-71653061D01*
X142600226Y-71453102D01*
X142522205Y-71264744D01*
X142408937Y-71095226D01*
X142264774Y-70951063D01*
X142095256Y-70837795D01*
X141906898Y-70759774D01*
X141706939Y-70720000D01*
X141503061Y-70720000D01*
X141303102Y-70759774D01*
X141114744Y-70837795D01*
X140945226Y-70951063D01*
X140801063Y-71095226D01*
X140687795Y-71264744D01*
X140609774Y-71453102D01*
X140570000Y-71653061D01*
X140570000Y-71856939D01*
X140609774Y-72056898D01*
X140687795Y-72245256D01*
X140801063Y-72414774D01*
X140820001Y-72433712D01*
X140820001Y-72986438D01*
X140816203Y-73025000D01*
X140831359Y-73178886D01*
X140876246Y-73326859D01*
X140876247Y-73326860D01*
X140949139Y-73463233D01*
X140971979Y-73491063D01*
X141022655Y-73552812D01*
X141022659Y-73552816D01*
X141047237Y-73582764D01*
X141077185Y-73607342D01*
X142090001Y-74620159D01*
X142090000Y-80995618D01*
X141906898Y-80919774D01*
X141706939Y-80880000D01*
X141503061Y-80880000D01*
X141303102Y-80919774D01*
X141114744Y-80997795D01*
X140945226Y-81111063D01*
X140926289Y-81130000D01*
X139460999Y-81130000D01*
X139431498Y-81074808D01*
X139377042Y-80993309D01*
X139297690Y-80896618D01*
X139245000Y-80843928D01*
X139245000Y-77271072D01*
X139297690Y-77218382D01*
X139377042Y-77121691D01*
X139431498Y-77040192D01*
X139490464Y-76929875D01*
X139527973Y-76839319D01*
X139564282Y-76719623D01*
X139583404Y-76623490D01*
X139595664Y-76499009D01*
X139595664Y-76474450D01*
X139598072Y-76450000D01*
X139598072Y-75950000D01*
X139595664Y-75925550D01*
X139595664Y-75900991D01*
X139583404Y-75776510D01*
X139564282Y-75680377D01*
X139527973Y-75560681D01*
X139490464Y-75470125D01*
X139431498Y-75359808D01*
X139377042Y-75278309D01*
X139297690Y-75181618D01*
X139245000Y-75128928D01*
X139245000Y-71823556D01*
X139248797Y-71785000D01*
X139245000Y-71746444D01*
X139245000Y-71746439D01*
X139235803Y-71653061D01*
X139233642Y-71631113D01*
X139188754Y-71483140D01*
X139172719Y-71453140D01*
X139115862Y-71346767D01*
X139017764Y-71227236D01*
X138987810Y-71202653D01*
X137945000Y-70159843D01*
X137945000Y-66653556D01*
X137948797Y-66615000D01*
X137945000Y-66576444D01*
X137945000Y-66576439D01*
X137941020Y-66536026D01*
X137933642Y-66461113D01*
X137888754Y-66313140D01*
X137877564Y-66292205D01*
X137815862Y-66176767D01*
X137717764Y-66057236D01*
X137687810Y-66032653D01*
X136955000Y-65299843D01*
X136955000Y-65273061D01*
X136915226Y-65073102D01*
X136837205Y-64884744D01*
X136723937Y-64715226D01*
X136579774Y-64571063D01*
X136410256Y-64457795D01*
X136221898Y-64379774D01*
X136021939Y-64340000D01*
X135818061Y-64340000D01*
X135618102Y-64379774D01*
X135429744Y-64457795D01*
X135260226Y-64571063D01*
X135116063Y-64715226D01*
X135002795Y-64884744D01*
X134924774Y-65073102D01*
X134885000Y-65273061D01*
X134885000Y-65476939D01*
X134924774Y-65676898D01*
X135002795Y-65865256D01*
X135116063Y-66034774D01*
X135260226Y-66178937D01*
X135429744Y-66292205D01*
X135618102Y-66370226D01*
X135818061Y-66410000D01*
X135844843Y-66410000D01*
X136375001Y-66940158D01*
X136375000Y-70446447D01*
X136371203Y-70485000D01*
X136375000Y-70523553D01*
X136375000Y-70523560D01*
X136386359Y-70638886D01*
X136431246Y-70786859D01*
X136504138Y-70923232D01*
X136602236Y-71042764D01*
X136632190Y-71067347D01*
X137675001Y-72110158D01*
X137675001Y-72759329D01*
X137650256Y-72742795D01*
X137461898Y-72664774D01*
X137261939Y-72625000D01*
X137058061Y-72625000D01*
X136858102Y-72664774D01*
X136669744Y-72742795D01*
X136500226Y-72856063D01*
X136356063Y-73000226D01*
X136242795Y-73169744D01*
X136164774Y-73358102D01*
X136125000Y-73558061D01*
X136125000Y-73761939D01*
X136164774Y-73961898D01*
X136242795Y-74150256D01*
X136356063Y-74319774D01*
X136375000Y-74338711D01*
X136375000Y-74882317D01*
X136305506Y-74919463D01*
X136208815Y-74998815D01*
X136129463Y-75095506D01*
X136070498Y-75205820D01*
X136034188Y-75325518D01*
X136021928Y-75450000D01*
X136021928Y-76950000D01*
X136034188Y-77074482D01*
X136070498Y-77194180D01*
X136070903Y-77194939D01*
X134854192Y-78411651D01*
X134854187Y-78411655D01*
X133330190Y-79935653D01*
X133300236Y-79960236D01*
X133202138Y-80079768D01*
X133129246Y-80216141D01*
X133084359Y-80364114D01*
X133073000Y-80479440D01*
X133073000Y-80479447D01*
X133069203Y-80518000D01*
X133073000Y-80556553D01*
X133073001Y-86877844D01*
X132257075Y-86061918D01*
X132295000Y-85871260D01*
X132295000Y-85578740D01*
X132237932Y-85291842D01*
X132125990Y-85021589D01*
X131963475Y-84778368D01*
X131756632Y-84571525D01*
X131582240Y-84455000D01*
X131756632Y-84338475D01*
X131963475Y-84131632D01*
X132125990Y-83888411D01*
X132237932Y-83618158D01*
X132295000Y-83331260D01*
X132295000Y-83038740D01*
X132237932Y-82751842D01*
X132125990Y-82481589D01*
X131963475Y-82238368D01*
X131756632Y-82031525D01*
X131513411Y-81869010D01*
X131243158Y-81757068D01*
X130956260Y-81700000D01*
X130663740Y-81700000D01*
X130376842Y-81757068D01*
X130106589Y-81869010D01*
X129863368Y-82031525D01*
X129656525Y-82238368D01*
X129494010Y-82481589D01*
X129382068Y-82751842D01*
X129325000Y-83038740D01*
X120660000Y-83038740D01*
X120660000Y-75883672D01*
X120772377Y-76448628D01*
X121061467Y-77146554D01*
X121481161Y-77774670D01*
X122015330Y-78308839D01*
X122643446Y-78728533D01*
X123341372Y-79017623D01*
X124082285Y-79165000D01*
X124837715Y-79165000D01*
X125578628Y-79017623D01*
X126276554Y-78728533D01*
X126904670Y-78308839D01*
X127438839Y-77774670D01*
X127858533Y-77146554D01*
X128147623Y-76448628D01*
X128295000Y-75707715D01*
X128295000Y-74952285D01*
X128147623Y-74211372D01*
X127858533Y-73513446D01*
X127438839Y-72885330D01*
X126904670Y-72351161D01*
X126276554Y-71931467D01*
X125578628Y-71642377D01*
X124837715Y-71495000D01*
X124082285Y-71495000D01*
X123341372Y-71642377D01*
X122643446Y-71931467D01*
X122015330Y-72351161D01*
X121481161Y-72885330D01*
X121061467Y-73513446D01*
X120772377Y-74211372D01*
X120660000Y-74776328D01*
X120660000Y-65029392D01*
X120731173Y-64231917D01*
X120934656Y-63488109D01*
X121266638Y-62792095D01*
X121716626Y-62165870D01*
X122270403Y-61629223D01*
X122910451Y-61199129D01*
X123616553Y-60889171D01*
X124371457Y-60707935D01*
X125024207Y-60660000D01*
X159970608Y-60660000D01*
X160768083Y-60731173D01*
G37*
%TD.AperFunction*%
D19*
X136356063Y-79399774D02*
X136375000Y-79418711D01*
X136375001Y-80597317D01*
X136305506Y-80634463D01*
X136208815Y-80713815D01*
X136129463Y-80810506D01*
X136070498Y-80920820D01*
X136034188Y-81040518D01*
X136021928Y-81165000D01*
X136021928Y-82665000D01*
X136034188Y-82789482D01*
X136070498Y-82909180D01*
X136129463Y-83019494D01*
X136208815Y-83116185D01*
X136305506Y-83195537D01*
X136375001Y-83232683D01*
X136375001Y-83535618D01*
X136191898Y-83459774D01*
X135991939Y-83420000D01*
X135788061Y-83420000D01*
X135588102Y-83459774D01*
X135399744Y-83537795D01*
X135230226Y-83651063D01*
X135086063Y-83795226D01*
X134972795Y-83964744D01*
X134894774Y-84153102D01*
X134855000Y-84353061D01*
X134855000Y-84556939D01*
X134894774Y-84756898D01*
X134972795Y-84945256D01*
X135075001Y-85098218D01*
X135075000Y-86558928D01*
X135022310Y-86611618D01*
X134942958Y-86708309D01*
X134888502Y-86789808D01*
X134829536Y-86900125D01*
X134792027Y-86990681D01*
X134755718Y-87110377D01*
X134736596Y-87206510D01*
X134724336Y-87330991D01*
X134724336Y-87355550D01*
X134721928Y-87380000D01*
X134721928Y-87568009D01*
X134661937Y-87478226D01*
X134643000Y-87459289D01*
X134643000Y-80843157D01*
X135964345Y-79521813D01*
X135964349Y-79521808D01*
X136248045Y-79238113D01*
X136356063Y-79399774D01*
%TA.AperFunction,Conductor*%
D20*
G36*
X136356063Y-79399774D02*
G01*
X136375000Y-79418711D01*
X136375001Y-80597317D01*
X136305506Y-80634463D01*
X136208815Y-80713815D01*
X136129463Y-80810506D01*
X136070498Y-80920820D01*
X136034188Y-81040518D01*
X136021928Y-81165000D01*
X136021928Y-82665000D01*
X136034188Y-82789482D01*
X136070498Y-82909180D01*
X136129463Y-83019494D01*
X136208815Y-83116185D01*
X136305506Y-83195537D01*
X136375001Y-83232683D01*
X136375001Y-83535618D01*
X136191898Y-83459774D01*
X135991939Y-83420000D01*
X135788061Y-83420000D01*
X135588102Y-83459774D01*
X135399744Y-83537795D01*
X135230226Y-83651063D01*
X135086063Y-83795226D01*
X134972795Y-83964744D01*
X134894774Y-84153102D01*
X134855000Y-84353061D01*
X134855000Y-84556939D01*
X134894774Y-84756898D01*
X134972795Y-84945256D01*
X135075001Y-85098218D01*
X135075000Y-86558928D01*
X135022310Y-86611618D01*
X134942958Y-86708309D01*
X134888502Y-86789808D01*
X134829536Y-86900125D01*
X134792027Y-86990681D01*
X134755718Y-87110377D01*
X134736596Y-87206510D01*
X134724336Y-87330991D01*
X134724336Y-87355550D01*
X134721928Y-87380000D01*
X134721928Y-87568009D01*
X134661937Y-87478226D01*
X134643000Y-87459289D01*
X134643000Y-80843157D01*
X135964345Y-79521813D01*
X135964349Y-79521808D01*
X136248045Y-79238113D01*
X136356063Y-79399774D01*
G37*
%TD.AperFunction*%
%TD*%
M02*
