%TF.GenerationSoftware,KiCad,Pcbnew,(5.1.9)-1*%
%TF.CreationDate,2021-04-28T11:17:24-03:00*%
%TF.ProjectId,1335_rev1,31333335-5f72-4657-9631-2e6b69636164,rev?*%
%TF.SameCoordinates,Original*%
%TF.FileFunction,Legend,Bot*%
%TF.FilePolarity,Positive*%
%FSLAX46Y46*%
G04 Gerber Fmt 4.6, Leading zero omitted, Abs format (unit mm)*
G04 Created by KiCad (PCBNEW (5.1.9)-1) date 2021-04-28 11:17:24*
%MOMM*%
%LPD*%
G01*
G04 APERTURE LIST*
%ADD10C,0.200000*%
%ADD11C,0.150000*%
%ADD12C,0.120000*%
%ADD13C,0.250000*%
%ADD14C,0.300000*%
%ADD15C,0.010000*%
G04 APERTURE END LIST*
D10*
X145567857Y-67263095D02*
X146001190Y-66644047D01*
X146310714Y-67263095D02*
X146310714Y-65963095D01*
X145815476Y-65963095D01*
X145691666Y-66025000D01*
X145629761Y-66086904D01*
X145567857Y-66210714D01*
X145567857Y-66396428D01*
X145629761Y-66520238D01*
X145691666Y-66582142D01*
X145815476Y-66644047D01*
X146310714Y-66644047D01*
X144515476Y-67201190D02*
X144639285Y-67263095D01*
X144886904Y-67263095D01*
X145010714Y-67201190D01*
X145072619Y-67077380D01*
X145072619Y-66582142D01*
X145010714Y-66458333D01*
X144886904Y-66396428D01*
X144639285Y-66396428D01*
X144515476Y-66458333D01*
X144453571Y-66582142D01*
X144453571Y-66705952D01*
X145072619Y-66829761D01*
X144020238Y-66396428D02*
X143710714Y-67263095D01*
X143401190Y-66396428D01*
X141977380Y-66086904D02*
X141915476Y-66025000D01*
X141791666Y-65963095D01*
X141482142Y-65963095D01*
X141358333Y-66025000D01*
X141296428Y-66086904D01*
X141234523Y-66210714D01*
X141234523Y-66334523D01*
X141296428Y-66520238D01*
X142039285Y-67263095D01*
X141234523Y-67263095D01*
X140677380Y-67139285D02*
X140615476Y-67201190D01*
X140677380Y-67263095D01*
X140739285Y-67201190D01*
X140677380Y-67139285D01*
X140677380Y-67263095D01*
X139810714Y-65963095D02*
X139686904Y-65963095D01*
X139563095Y-66025000D01*
X139501190Y-66086904D01*
X139439285Y-66210714D01*
X139377380Y-66458333D01*
X139377380Y-66767857D01*
X139439285Y-67015476D01*
X139501190Y-67139285D01*
X139563095Y-67201190D01*
X139686904Y-67263095D01*
X139810714Y-67263095D01*
X139934523Y-67201190D01*
X139996428Y-67139285D01*
X140058333Y-67015476D01*
X140120238Y-66767857D01*
X140120238Y-66458333D01*
X140058333Y-66210714D01*
X139996428Y-66086904D01*
X139934523Y-66025000D01*
X139810714Y-65963095D01*
D11*
X157670476Y-93432380D02*
X158146666Y-93432380D01*
X158194285Y-93908571D01*
X158146666Y-93860952D01*
X158051428Y-93813333D01*
X157813333Y-93813333D01*
X157718095Y-93860952D01*
X157670476Y-93908571D01*
X157622857Y-94003809D01*
X157622857Y-94241904D01*
X157670476Y-94337142D01*
X157718095Y-94384761D01*
X157813333Y-94432380D01*
X158051428Y-94432380D01*
X158146666Y-94384761D01*
X158194285Y-94337142D01*
X157337142Y-93432380D02*
X157003809Y-94432380D01*
X156670476Y-93432380D01*
X158241904Y-90940000D02*
X158337142Y-90892380D01*
X158480000Y-90892380D01*
X158622857Y-90940000D01*
X158718095Y-91035238D01*
X158765714Y-91130476D01*
X158813333Y-91320952D01*
X158813333Y-91463809D01*
X158765714Y-91654285D01*
X158718095Y-91749523D01*
X158622857Y-91844761D01*
X158480000Y-91892380D01*
X158384761Y-91892380D01*
X158241904Y-91844761D01*
X158194285Y-91797142D01*
X158194285Y-91463809D01*
X158384761Y-91463809D01*
X157765714Y-91892380D02*
X157765714Y-90892380D01*
X157194285Y-91892380D01*
X157194285Y-90892380D01*
X156718095Y-91892380D02*
X156718095Y-90892380D01*
X156480000Y-90892380D01*
X156337142Y-90940000D01*
X156241904Y-91035238D01*
X156194285Y-91130476D01*
X156146666Y-91320952D01*
X156146666Y-91463809D01*
X156194285Y-91654285D01*
X156241904Y-91749523D01*
X156337142Y-91844761D01*
X156480000Y-91892380D01*
X156718095Y-91892380D01*
X158765714Y-84224761D02*
X158622857Y-84272380D01*
X158384761Y-84272380D01*
X158289523Y-84224761D01*
X158241904Y-84177142D01*
X158194285Y-84081904D01*
X158194285Y-83986666D01*
X158241904Y-83891428D01*
X158289523Y-83843809D01*
X158384761Y-83796190D01*
X158575238Y-83748571D01*
X158670476Y-83700952D01*
X158718095Y-83653333D01*
X158765714Y-83558095D01*
X158765714Y-83462857D01*
X158718095Y-83367619D01*
X158670476Y-83320000D01*
X158575238Y-83272380D01*
X158337142Y-83272380D01*
X158194285Y-83320000D01*
X157194285Y-84177142D02*
X157241904Y-84224761D01*
X157384761Y-84272380D01*
X157480000Y-84272380D01*
X157622857Y-84224761D01*
X157718095Y-84129523D01*
X157765714Y-84034285D01*
X157813333Y-83843809D01*
X157813333Y-83700952D01*
X157765714Y-83510476D01*
X157718095Y-83415238D01*
X157622857Y-83320000D01*
X157480000Y-83272380D01*
X157384761Y-83272380D01*
X157241904Y-83320000D01*
X157194285Y-83367619D01*
X156765714Y-84272380D02*
X156765714Y-83272380D01*
X156194285Y-84272380D02*
X156622857Y-83700952D01*
X156194285Y-83272380D02*
X156765714Y-83843809D01*
X159051428Y-86812380D02*
X159051428Y-85812380D01*
X158718095Y-86526666D01*
X158384761Y-85812380D01*
X158384761Y-86812380D01*
X157908571Y-86812380D02*
X157908571Y-85812380D01*
X157480000Y-86764761D02*
X157337142Y-86812380D01*
X157099047Y-86812380D01*
X157003809Y-86764761D01*
X156956190Y-86717142D01*
X156908571Y-86621904D01*
X156908571Y-86526666D01*
X156956190Y-86431428D01*
X157003809Y-86383809D01*
X157099047Y-86336190D01*
X157289523Y-86288571D01*
X157384761Y-86240952D01*
X157432380Y-86193333D01*
X157480000Y-86098095D01*
X157480000Y-86002857D01*
X157432380Y-85907619D01*
X157384761Y-85860000D01*
X157289523Y-85812380D01*
X157051428Y-85812380D01*
X156908571Y-85860000D01*
X156289523Y-85812380D02*
X156099047Y-85812380D01*
X156003809Y-85860000D01*
X155908571Y-85955238D01*
X155860952Y-86145714D01*
X155860952Y-86479047D01*
X155908571Y-86669523D01*
X156003809Y-86764761D01*
X156099047Y-86812380D01*
X156289523Y-86812380D01*
X156384761Y-86764761D01*
X156480000Y-86669523D01*
X156527619Y-86479047D01*
X156527619Y-86145714D01*
X156480000Y-85955238D01*
X156384761Y-85860000D01*
X156289523Y-85812380D01*
X157646666Y-81637142D02*
X157694285Y-81684761D01*
X157837142Y-81732380D01*
X157932380Y-81732380D01*
X158075238Y-81684761D01*
X158170476Y-81589523D01*
X158218095Y-81494285D01*
X158265714Y-81303809D01*
X158265714Y-81160952D01*
X158218095Y-80970476D01*
X158170476Y-80875238D01*
X158075238Y-80780000D01*
X157932380Y-80732380D01*
X157837142Y-80732380D01*
X157694285Y-80780000D01*
X157646666Y-80827619D01*
X157265714Y-81684761D02*
X157122857Y-81732380D01*
X156884761Y-81732380D01*
X156789523Y-81684761D01*
X156741904Y-81637142D01*
X156694285Y-81541904D01*
X156694285Y-81446666D01*
X156741904Y-81351428D01*
X156789523Y-81303809D01*
X156884761Y-81256190D01*
X157075238Y-81208571D01*
X157170476Y-81160952D01*
X157218095Y-81113333D01*
X157265714Y-81018095D01*
X157265714Y-80922857D01*
X157218095Y-80827619D01*
X157170476Y-80780000D01*
X157075238Y-80732380D01*
X156837142Y-80732380D01*
X156694285Y-80780000D01*
X159051428Y-89352380D02*
X159051428Y-88352380D01*
X158718095Y-89066666D01*
X158384761Y-88352380D01*
X158384761Y-89352380D01*
X157718095Y-88352380D02*
X157527619Y-88352380D01*
X157432380Y-88400000D01*
X157337142Y-88495238D01*
X157289523Y-88685714D01*
X157289523Y-89019047D01*
X157337142Y-89209523D01*
X157432380Y-89304761D01*
X157527619Y-89352380D01*
X157718095Y-89352380D01*
X157813333Y-89304761D01*
X157908571Y-89209523D01*
X157956190Y-89019047D01*
X157956190Y-88685714D01*
X157908571Y-88495238D01*
X157813333Y-88400000D01*
X157718095Y-88352380D01*
X156908571Y-89304761D02*
X156765714Y-89352380D01*
X156527619Y-89352380D01*
X156432380Y-89304761D01*
X156384761Y-89257142D01*
X156337142Y-89161904D01*
X156337142Y-89066666D01*
X156384761Y-88971428D01*
X156432380Y-88923809D01*
X156527619Y-88876190D01*
X156718095Y-88828571D01*
X156813333Y-88780952D01*
X156860952Y-88733333D01*
X156908571Y-88638095D01*
X156908571Y-88542857D01*
X156860952Y-88447619D01*
X156813333Y-88400000D01*
X156718095Y-88352380D01*
X156480000Y-88352380D01*
X156337142Y-88400000D01*
X155908571Y-89352380D02*
X155908571Y-88352380D01*
D12*
X160020000Y-79375000D02*
X160020000Y-95885000D01*
X125095000Y-81280000D02*
X125095000Y-95250000D01*
D11*
X128460476Y-92797380D02*
X128936666Y-92797380D01*
X128984285Y-93273571D01*
X128936666Y-93225952D01*
X128841428Y-93178333D01*
X128603333Y-93178333D01*
X128508095Y-93225952D01*
X128460476Y-93273571D01*
X128412857Y-93368809D01*
X128412857Y-93606904D01*
X128460476Y-93702142D01*
X128508095Y-93749761D01*
X128603333Y-93797380D01*
X128841428Y-93797380D01*
X128936666Y-93749761D01*
X128984285Y-93702142D01*
X128127142Y-92797380D02*
X127793809Y-93797380D01*
X127460476Y-92797380D01*
X128849285Y-86129761D02*
X128706428Y-86177380D01*
X128468333Y-86177380D01*
X128373095Y-86129761D01*
X128325476Y-86082142D01*
X128277857Y-85986904D01*
X128277857Y-85891666D01*
X128325476Y-85796428D01*
X128373095Y-85748809D01*
X128468333Y-85701190D01*
X128658809Y-85653571D01*
X128754047Y-85605952D01*
X128801666Y-85558333D01*
X128849285Y-85463095D01*
X128849285Y-85367857D01*
X128801666Y-85272619D01*
X128754047Y-85225000D01*
X128658809Y-85177380D01*
X128420714Y-85177380D01*
X128277857Y-85225000D01*
X127849285Y-86177380D02*
X127849285Y-85177380D01*
X127611190Y-85177380D01*
X127468333Y-85225000D01*
X127373095Y-85320238D01*
X127325476Y-85415476D01*
X127277857Y-85605952D01*
X127277857Y-85748809D01*
X127325476Y-85939285D01*
X127373095Y-86034523D01*
X127468333Y-86129761D01*
X127611190Y-86177380D01*
X127849285Y-86177380D01*
X126896904Y-85891666D02*
X126420714Y-85891666D01*
X126992142Y-86177380D02*
X126658809Y-85177380D01*
X126325476Y-86177380D01*
X128825476Y-88669761D02*
X128682619Y-88717380D01*
X128444523Y-88717380D01*
X128349285Y-88669761D01*
X128301666Y-88622142D01*
X128254047Y-88526904D01*
X128254047Y-88431666D01*
X128301666Y-88336428D01*
X128349285Y-88288809D01*
X128444523Y-88241190D01*
X128635000Y-88193571D01*
X128730238Y-88145952D01*
X128777857Y-88098333D01*
X128825476Y-88003095D01*
X128825476Y-87907857D01*
X128777857Y-87812619D01*
X128730238Y-87765000D01*
X128635000Y-87717380D01*
X128396904Y-87717380D01*
X128254047Y-87765000D01*
X127254047Y-88622142D02*
X127301666Y-88669761D01*
X127444523Y-88717380D01*
X127539761Y-88717380D01*
X127682619Y-88669761D01*
X127777857Y-88574523D01*
X127825476Y-88479285D01*
X127873095Y-88288809D01*
X127873095Y-88145952D01*
X127825476Y-87955476D01*
X127777857Y-87860238D01*
X127682619Y-87765000D01*
X127539761Y-87717380D01*
X127444523Y-87717380D01*
X127301666Y-87765000D01*
X127254047Y-87812619D01*
X126349285Y-88717380D02*
X126825476Y-88717380D01*
X126825476Y-87717380D01*
X128396904Y-90305000D02*
X128492142Y-90257380D01*
X128635000Y-90257380D01*
X128777857Y-90305000D01*
X128873095Y-90400238D01*
X128920714Y-90495476D01*
X128968333Y-90685952D01*
X128968333Y-90828809D01*
X128920714Y-91019285D01*
X128873095Y-91114523D01*
X128777857Y-91209761D01*
X128635000Y-91257380D01*
X128539761Y-91257380D01*
X128396904Y-91209761D01*
X128349285Y-91162142D01*
X128349285Y-90828809D01*
X128539761Y-90828809D01*
X127920714Y-91257380D02*
X127920714Y-90257380D01*
X127349285Y-91257380D01*
X127349285Y-90257380D01*
X126873095Y-91257380D02*
X126873095Y-90257380D01*
X126635000Y-90257380D01*
X126492142Y-90305000D01*
X126396904Y-90400238D01*
X126349285Y-90495476D01*
X126301666Y-90685952D01*
X126301666Y-90828809D01*
X126349285Y-91019285D01*
X126396904Y-91114523D01*
X126492142Y-91209761D01*
X126635000Y-91257380D01*
X126873095Y-91257380D01*
X128873095Y-82637380D02*
X128254047Y-82637380D01*
X128587380Y-83018333D01*
X128444523Y-83018333D01*
X128349285Y-83065952D01*
X128301666Y-83113571D01*
X128254047Y-83208809D01*
X128254047Y-83446904D01*
X128301666Y-83542142D01*
X128349285Y-83589761D01*
X128444523Y-83637380D01*
X128730238Y-83637380D01*
X128825476Y-83589761D01*
X128873095Y-83542142D01*
X127968333Y-82637380D02*
X127635000Y-83637380D01*
X127301666Y-82637380D01*
X127063571Y-82637380D02*
X126444523Y-82637380D01*
X126777857Y-83018333D01*
X126635000Y-83018333D01*
X126539761Y-83065952D01*
X126492142Y-83113571D01*
X126444523Y-83208809D01*
X126444523Y-83446904D01*
X126492142Y-83542142D01*
X126539761Y-83589761D01*
X126635000Y-83637380D01*
X126920714Y-83637380D01*
X127015952Y-83589761D01*
X127063571Y-83542142D01*
D12*
X164465000Y-79375000D02*
X153035000Y-79375000D01*
X164465000Y-95885000D02*
X164465000Y-79375000D01*
X153035000Y-95885000D02*
X164465000Y-95885000D01*
X153035000Y-79375000D02*
X153035000Y-95885000D01*
X120650000Y-95250000D02*
X120650000Y-81280000D01*
X132715000Y-95250000D02*
X120650000Y-95250000D01*
X132715000Y-81280000D02*
X132715000Y-95250000D01*
X120650000Y-81280000D02*
X132715000Y-81280000D01*
D10*
X161479761Y-84463333D02*
X161527380Y-84606190D01*
X161527380Y-84844285D01*
X161479761Y-84939523D01*
X161432142Y-84987142D01*
X161336904Y-85034761D01*
X161241666Y-85034761D01*
X161146428Y-84987142D01*
X161098809Y-84939523D01*
X161051190Y-84844285D01*
X161003571Y-84653809D01*
X160955952Y-84558571D01*
X160908333Y-84510952D01*
X160813095Y-84463333D01*
X160717857Y-84463333D01*
X160622619Y-84510952D01*
X160575000Y-84558571D01*
X160527380Y-84653809D01*
X160527380Y-84891904D01*
X160575000Y-85034761D01*
X161527380Y-85463333D02*
X160527380Y-85463333D01*
X160527380Y-85844285D01*
X160575000Y-85939523D01*
X160622619Y-85987142D01*
X160717857Y-86034761D01*
X160860714Y-86034761D01*
X160955952Y-85987142D01*
X161003571Y-85939523D01*
X161051190Y-85844285D01*
X161051190Y-85463333D01*
X161527380Y-86463333D02*
X160527380Y-86463333D01*
X161527380Y-87701428D02*
X160527380Y-87701428D01*
X161241666Y-88034761D01*
X160527380Y-88368095D01*
X161527380Y-88368095D01*
X161527380Y-88987142D02*
X161479761Y-88891904D01*
X161432142Y-88844285D01*
X161336904Y-88796666D01*
X161051190Y-88796666D01*
X160955952Y-88844285D01*
X160908333Y-88891904D01*
X160860714Y-88987142D01*
X160860714Y-89130000D01*
X160908333Y-89225238D01*
X160955952Y-89272857D01*
X161051190Y-89320476D01*
X161336904Y-89320476D01*
X161432142Y-89272857D01*
X161479761Y-89225238D01*
X161527380Y-89130000D01*
X161527380Y-88987142D01*
X161527380Y-90177619D02*
X160527380Y-90177619D01*
X161479761Y-90177619D02*
X161527380Y-90082380D01*
X161527380Y-89891904D01*
X161479761Y-89796666D01*
X161432142Y-89749047D01*
X161336904Y-89701428D01*
X161051190Y-89701428D01*
X160955952Y-89749047D01*
X160908333Y-89796666D01*
X160860714Y-89891904D01*
X160860714Y-90082380D01*
X160908333Y-90177619D01*
X161479761Y-91034761D02*
X161527380Y-90939523D01*
X161527380Y-90749047D01*
X161479761Y-90653809D01*
X161384523Y-90606190D01*
X161003571Y-90606190D01*
X160908333Y-90653809D01*
X160860714Y-90749047D01*
X160860714Y-90939523D01*
X160908333Y-91034761D01*
X161003571Y-91082380D01*
X161098809Y-91082380D01*
X161194047Y-90606190D01*
X161432142Y-91510952D02*
X161479761Y-91558571D01*
X161527380Y-91510952D01*
X161479761Y-91463333D01*
X161432142Y-91510952D01*
X161527380Y-91510952D01*
X160908333Y-91510952D02*
X160955952Y-91558571D01*
X161003571Y-91510952D01*
X160955952Y-91463333D01*
X160908333Y-91510952D01*
X161003571Y-91510952D01*
X162227380Y-82106190D02*
X162941666Y-82106190D01*
X163084523Y-82058571D01*
X163179761Y-81963333D01*
X163227380Y-81820476D01*
X163227380Y-81725238D01*
X162560714Y-83010952D02*
X163227380Y-83010952D01*
X162560714Y-82582380D02*
X163084523Y-82582380D01*
X163179761Y-82630000D01*
X163227380Y-82725238D01*
X163227380Y-82868095D01*
X163179761Y-82963333D01*
X163132142Y-83010952D01*
X163227380Y-83487142D02*
X162560714Y-83487142D01*
X162655952Y-83487142D02*
X162608333Y-83534761D01*
X162560714Y-83630000D01*
X162560714Y-83772857D01*
X162608333Y-83868095D01*
X162703571Y-83915714D01*
X163227380Y-83915714D01*
X162703571Y-83915714D02*
X162608333Y-83963333D01*
X162560714Y-84058571D01*
X162560714Y-84201428D01*
X162608333Y-84296666D01*
X162703571Y-84344285D01*
X163227380Y-84344285D01*
X162560714Y-84820476D02*
X163560714Y-84820476D01*
X162608333Y-84820476D02*
X162560714Y-84915714D01*
X162560714Y-85106190D01*
X162608333Y-85201428D01*
X162655952Y-85249047D01*
X162751190Y-85296666D01*
X163036904Y-85296666D01*
X163132142Y-85249047D01*
X163179761Y-85201428D01*
X163227380Y-85106190D01*
X163227380Y-84915714D01*
X163179761Y-84820476D01*
X162560714Y-86487142D02*
X163560714Y-86487142D01*
X162608333Y-86487142D02*
X162560714Y-86582380D01*
X162560714Y-86772857D01*
X162608333Y-86868095D01*
X162655952Y-86915714D01*
X162751190Y-86963333D01*
X163036904Y-86963333D01*
X163132142Y-86915714D01*
X163179761Y-86868095D01*
X163227380Y-86772857D01*
X163227380Y-86582380D01*
X163179761Y-86487142D01*
X163227380Y-87820476D02*
X162703571Y-87820476D01*
X162608333Y-87772857D01*
X162560714Y-87677619D01*
X162560714Y-87487142D01*
X162608333Y-87391904D01*
X163179761Y-87820476D02*
X163227380Y-87725238D01*
X163227380Y-87487142D01*
X163179761Y-87391904D01*
X163084523Y-87344285D01*
X162989285Y-87344285D01*
X162894047Y-87391904D01*
X162846428Y-87487142D01*
X162846428Y-87725238D01*
X162798809Y-87820476D01*
X163227380Y-88725238D02*
X162227380Y-88725238D01*
X163179761Y-88725238D02*
X163227380Y-88630000D01*
X163227380Y-88439523D01*
X163179761Y-88344285D01*
X163132142Y-88296666D01*
X163036904Y-88249047D01*
X162751190Y-88249047D01*
X162655952Y-88296666D01*
X162608333Y-88344285D01*
X162560714Y-88439523D01*
X162560714Y-88630000D01*
X162608333Y-88725238D01*
X163179761Y-89153809D02*
X163227380Y-89249047D01*
X163227380Y-89439523D01*
X163179761Y-89534761D01*
X163084523Y-89582380D01*
X163036904Y-89582380D01*
X162941666Y-89534761D01*
X162894047Y-89439523D01*
X162894047Y-89296666D01*
X162846428Y-89201428D01*
X162751190Y-89153809D01*
X162703571Y-89153809D01*
X162608333Y-89201428D01*
X162560714Y-89296666D01*
X162560714Y-89439523D01*
X162608333Y-89534761D01*
X163227380Y-91296666D02*
X163227380Y-90725238D01*
X163227380Y-91010952D02*
X162227380Y-91010952D01*
X162370238Y-90915714D01*
X162465476Y-90820476D01*
X162513095Y-90725238D01*
X162846428Y-91725238D02*
X162846428Y-92487142D01*
X162322619Y-92915714D02*
X162275000Y-92963333D01*
X162227380Y-93058571D01*
X162227380Y-93296666D01*
X162275000Y-93391904D01*
X162322619Y-93439523D01*
X162417857Y-93487142D01*
X162513095Y-93487142D01*
X162655952Y-93439523D01*
X163227380Y-92868095D01*
X163227380Y-93487142D01*
X122157380Y-84765000D02*
X121157380Y-84765000D01*
X121252619Y-85193571D02*
X121205000Y-85241190D01*
X121157380Y-85336428D01*
X121157380Y-85574523D01*
X121205000Y-85669761D01*
X121252619Y-85717380D01*
X121347857Y-85765000D01*
X121443095Y-85765000D01*
X121585952Y-85717380D01*
X122157380Y-85145952D01*
X122157380Y-85765000D01*
X122062142Y-86765000D02*
X122109761Y-86717380D01*
X122157380Y-86574523D01*
X122157380Y-86479285D01*
X122109761Y-86336428D01*
X122014523Y-86241190D01*
X121919285Y-86193571D01*
X121728809Y-86145952D01*
X121585952Y-86145952D01*
X121395476Y-86193571D01*
X121300238Y-86241190D01*
X121205000Y-86336428D01*
X121157380Y-86479285D01*
X121157380Y-86574523D01*
X121205000Y-86717380D01*
X121252619Y-86765000D01*
X122157380Y-87955476D02*
X121157380Y-87955476D01*
X121871666Y-88288809D01*
X121157380Y-88622142D01*
X122157380Y-88622142D01*
X122157380Y-89241190D02*
X122109761Y-89145952D01*
X122062142Y-89098333D01*
X121966904Y-89050714D01*
X121681190Y-89050714D01*
X121585952Y-89098333D01*
X121538333Y-89145952D01*
X121490714Y-89241190D01*
X121490714Y-89384047D01*
X121538333Y-89479285D01*
X121585952Y-89526904D01*
X121681190Y-89574523D01*
X121966904Y-89574523D01*
X122062142Y-89526904D01*
X122109761Y-89479285D01*
X122157380Y-89384047D01*
X122157380Y-89241190D01*
X122157380Y-90431666D02*
X121157380Y-90431666D01*
X122109761Y-90431666D02*
X122157380Y-90336428D01*
X122157380Y-90145952D01*
X122109761Y-90050714D01*
X122062142Y-90003095D01*
X121966904Y-89955476D01*
X121681190Y-89955476D01*
X121585952Y-90003095D01*
X121538333Y-90050714D01*
X121490714Y-90145952D01*
X121490714Y-90336428D01*
X121538333Y-90431666D01*
X122109761Y-91288809D02*
X122157380Y-91193571D01*
X122157380Y-91003095D01*
X122109761Y-90907857D01*
X122014523Y-90860238D01*
X121633571Y-90860238D01*
X121538333Y-90907857D01*
X121490714Y-91003095D01*
X121490714Y-91193571D01*
X121538333Y-91288809D01*
X121633571Y-91336428D01*
X121728809Y-91336428D01*
X121824047Y-90860238D01*
X122062142Y-91765000D02*
X122109761Y-91812619D01*
X122157380Y-91765000D01*
X122109761Y-91717380D01*
X122062142Y-91765000D01*
X122157380Y-91765000D01*
X121538333Y-91765000D02*
X121585952Y-91812619D01*
X121633571Y-91765000D01*
X121585952Y-91717380D01*
X121538333Y-91765000D01*
X121633571Y-91765000D01*
X123190714Y-82598333D02*
X124047857Y-82598333D01*
X124143095Y-82550714D01*
X124190714Y-82455476D01*
X124190714Y-82407857D01*
X122857380Y-82598333D02*
X122905000Y-82550714D01*
X122952619Y-82598333D01*
X122905000Y-82645952D01*
X122857380Y-82598333D01*
X122952619Y-82598333D01*
X123190714Y-83503095D02*
X123857380Y-83503095D01*
X123190714Y-83074523D02*
X123714523Y-83074523D01*
X123809761Y-83122142D01*
X123857380Y-83217380D01*
X123857380Y-83360238D01*
X123809761Y-83455476D01*
X123762142Y-83503095D01*
X123857380Y-83979285D02*
X123190714Y-83979285D01*
X123285952Y-83979285D02*
X123238333Y-84026904D01*
X123190714Y-84122142D01*
X123190714Y-84265000D01*
X123238333Y-84360238D01*
X123333571Y-84407857D01*
X123857380Y-84407857D01*
X123333571Y-84407857D02*
X123238333Y-84455476D01*
X123190714Y-84550714D01*
X123190714Y-84693571D01*
X123238333Y-84788809D01*
X123333571Y-84836428D01*
X123857380Y-84836428D01*
X123190714Y-85312619D02*
X124190714Y-85312619D01*
X123238333Y-85312619D02*
X123190714Y-85407857D01*
X123190714Y-85598333D01*
X123238333Y-85693571D01*
X123285952Y-85741190D01*
X123381190Y-85788809D01*
X123666904Y-85788809D01*
X123762142Y-85741190D01*
X123809761Y-85693571D01*
X123857380Y-85598333D01*
X123857380Y-85407857D01*
X123809761Y-85312619D01*
X123190714Y-86979285D02*
X124190714Y-86979285D01*
X123238333Y-86979285D02*
X123190714Y-87074523D01*
X123190714Y-87265000D01*
X123238333Y-87360238D01*
X123285952Y-87407857D01*
X123381190Y-87455476D01*
X123666904Y-87455476D01*
X123762142Y-87407857D01*
X123809761Y-87360238D01*
X123857380Y-87265000D01*
X123857380Y-87074523D01*
X123809761Y-86979285D01*
X123857380Y-88312619D02*
X123333571Y-88312619D01*
X123238333Y-88265000D01*
X123190714Y-88169761D01*
X123190714Y-87979285D01*
X123238333Y-87884047D01*
X123809761Y-88312619D02*
X123857380Y-88217380D01*
X123857380Y-87979285D01*
X123809761Y-87884047D01*
X123714523Y-87836428D01*
X123619285Y-87836428D01*
X123524047Y-87884047D01*
X123476428Y-87979285D01*
X123476428Y-88217380D01*
X123428809Y-88312619D01*
X123857380Y-89217380D02*
X122857380Y-89217380D01*
X123809761Y-89217380D02*
X123857380Y-89122142D01*
X123857380Y-88931666D01*
X123809761Y-88836428D01*
X123762142Y-88788809D01*
X123666904Y-88741190D01*
X123381190Y-88741190D01*
X123285952Y-88788809D01*
X123238333Y-88836428D01*
X123190714Y-88931666D01*
X123190714Y-89122142D01*
X123238333Y-89217380D01*
X123809761Y-89645952D02*
X123857380Y-89741190D01*
X123857380Y-89931666D01*
X123809761Y-90026904D01*
X123714523Y-90074523D01*
X123666904Y-90074523D01*
X123571666Y-90026904D01*
X123524047Y-89931666D01*
X123524047Y-89788809D01*
X123476428Y-89693571D01*
X123381190Y-89645952D01*
X123333571Y-89645952D01*
X123238333Y-89693571D01*
X123190714Y-89788809D01*
X123190714Y-89931666D01*
X123238333Y-90026904D01*
X122952619Y-91217380D02*
X122905000Y-91265000D01*
X122857380Y-91360238D01*
X122857380Y-91598333D01*
X122905000Y-91693571D01*
X122952619Y-91741190D01*
X123047857Y-91788809D01*
X123143095Y-91788809D01*
X123285952Y-91741190D01*
X123857380Y-91169761D01*
X123857380Y-91788809D01*
X123476428Y-92217380D02*
X123476428Y-92979285D01*
X122857380Y-93360238D02*
X122857380Y-93979285D01*
X123238333Y-93645952D01*
X123238333Y-93788809D01*
X123285952Y-93884047D01*
X123333571Y-93931666D01*
X123428809Y-93979285D01*
X123666904Y-93979285D01*
X123762142Y-93931666D01*
X123809761Y-93884047D01*
X123857380Y-93788809D01*
X123857380Y-93503095D01*
X123809761Y-93407857D01*
X123762142Y-93360238D01*
D13*
X147320000Y-66675000D02*
G75*
G03*
X147320000Y-66675000I-4445000J0D01*
G01*
D14*
X146891428Y-71092142D02*
X147105714Y-71163571D01*
X147462857Y-71163571D01*
X147605714Y-71092142D01*
X147677142Y-71020714D01*
X147748571Y-70877857D01*
X147748571Y-70735000D01*
X147677142Y-70592142D01*
X147605714Y-70520714D01*
X147462857Y-70449285D01*
X147177142Y-70377857D01*
X147034285Y-70306428D01*
X146962857Y-70235000D01*
X146891428Y-70092142D01*
X146891428Y-69949285D01*
X146962857Y-69806428D01*
X147034285Y-69735000D01*
X147177142Y-69663571D01*
X147534285Y-69663571D01*
X147748571Y-69735000D01*
X138636428Y-62908571D02*
X138636428Y-61408571D01*
X139493571Y-62908571D01*
X139493571Y-61408571D01*
D12*
%TO.C,JP7*%
X139210000Y-82215000D02*
X139210000Y-81615000D01*
X135760000Y-82915000D02*
X138560000Y-82915000D01*
X135110000Y-81615000D02*
X135110000Y-82215000D01*
X138560000Y-80915000D02*
X135760000Y-80915000D01*
X139210000Y-81615000D02*
G75*
G03*
X138510000Y-80915000I-700000J0D01*
G01*
X138510000Y-82915000D02*
G75*
G03*
X139210000Y-82215000I0J700000D01*
G01*
X135110000Y-82215000D02*
G75*
G03*
X135810000Y-82915000I700000J0D01*
G01*
X135810000Y-80915000D02*
G75*
G03*
X135110000Y-81615000I0J-700000D01*
G01*
%TO.C,JP6*%
X139210000Y-94915000D02*
X139210000Y-94315000D01*
X135760000Y-95615000D02*
X138560000Y-95615000D01*
X135110000Y-94315000D02*
X135110000Y-94915000D01*
X138560000Y-93615000D02*
X135760000Y-93615000D01*
X139210000Y-94315000D02*
G75*
G03*
X138510000Y-93615000I-700000J0D01*
G01*
X138510000Y-95615000D02*
G75*
G03*
X139210000Y-94915000I0J700000D01*
G01*
X135110000Y-94915000D02*
G75*
G03*
X135810000Y-95615000I700000J0D01*
G01*
X135810000Y-93615000D02*
G75*
G03*
X135110000Y-94315000I0J-700000D01*
G01*
%TO.C,JP5*%
X139210000Y-87930000D02*
X139210000Y-87330000D01*
X135760000Y-88630000D02*
X138560000Y-88630000D01*
X135110000Y-87330000D02*
X135110000Y-87930000D01*
X138560000Y-86630000D02*
X135760000Y-86630000D01*
X139210000Y-87330000D02*
G75*
G03*
X138510000Y-86630000I-700000J0D01*
G01*
X138510000Y-88630000D02*
G75*
G03*
X139210000Y-87930000I0J700000D01*
G01*
X135110000Y-87930000D02*
G75*
G03*
X135810000Y-88630000I700000J0D01*
G01*
X135810000Y-86630000D02*
G75*
G03*
X135110000Y-87330000I0J-700000D01*
G01*
%TO.C,JP4*%
X139210000Y-76500000D02*
X139210000Y-75900000D01*
X135760000Y-77200000D02*
X138560000Y-77200000D01*
X135110000Y-75900000D02*
X135110000Y-76500000D01*
X138560000Y-75200000D02*
X135760000Y-75200000D01*
X139210000Y-75900000D02*
G75*
G03*
X138510000Y-75200000I-700000J0D01*
G01*
X138510000Y-77200000D02*
G75*
G03*
X139210000Y-76500000I0J700000D01*
G01*
X135110000Y-76500000D02*
G75*
G03*
X135810000Y-77200000I700000J0D01*
G01*
X135810000Y-75200000D02*
G75*
G03*
X135110000Y-75900000I0J-700000D01*
G01*
%TO.C,JP3*%
X150640000Y-94915000D02*
X150640000Y-94315000D01*
X147190000Y-95615000D02*
X149990000Y-95615000D01*
X146540000Y-94315000D02*
X146540000Y-94915000D01*
X149990000Y-93615000D02*
X147190000Y-93615000D01*
X150640000Y-94315000D02*
G75*
G03*
X149940000Y-93615000I-700000J0D01*
G01*
X149940000Y-95615000D02*
G75*
G03*
X150640000Y-94915000I0J700000D01*
G01*
X146540000Y-94915000D02*
G75*
G03*
X147240000Y-95615000I700000J0D01*
G01*
X147240000Y-93615000D02*
G75*
G03*
X146540000Y-94315000I0J-700000D01*
G01*
%TO.C,JP2*%
X150640000Y-87930000D02*
X150640000Y-87330000D01*
X147190000Y-88630000D02*
X149990000Y-88630000D01*
X146540000Y-87330000D02*
X146540000Y-87930000D01*
X149990000Y-86630000D02*
X147190000Y-86630000D01*
X150640000Y-87330000D02*
G75*
G03*
X149940000Y-86630000I-700000J0D01*
G01*
X149940000Y-88630000D02*
G75*
G03*
X150640000Y-87930000I0J700000D01*
G01*
X146540000Y-87930000D02*
G75*
G03*
X147240000Y-88630000I700000J0D01*
G01*
X147240000Y-86630000D02*
G75*
G03*
X146540000Y-87330000I0J-700000D01*
G01*
%TO.C,JP1*%
X150640000Y-79040000D02*
X150640000Y-78440000D01*
X147190000Y-79740000D02*
X149990000Y-79740000D01*
X146540000Y-78440000D02*
X146540000Y-79040000D01*
X149990000Y-77740000D02*
X147190000Y-77740000D01*
X150640000Y-78440000D02*
G75*
G03*
X149940000Y-77740000I-700000J0D01*
G01*
X149940000Y-79740000D02*
G75*
G03*
X150640000Y-79040000I0J700000D01*
G01*
X146540000Y-79040000D02*
G75*
G03*
X147240000Y-79740000I700000J0D01*
G01*
X147240000Y-77740000D02*
G75*
G03*
X146540000Y-78440000I0J-700000D01*
G01*
D15*
%TO.C,G\u002A\u002A\u002A*%
G36*
X149877462Y-98769222D02*
G01*
X149644885Y-98837906D01*
X149370244Y-98946965D01*
X149186784Y-99027468D01*
X148964585Y-99124045D01*
X148794634Y-99189208D01*
X148653617Y-99229737D01*
X148518221Y-99252411D01*
X148375034Y-99263513D01*
X148208357Y-99267408D01*
X148061687Y-99256856D01*
X147915633Y-99226686D01*
X147750804Y-99171726D01*
X147547810Y-99086805D01*
X147320000Y-98982149D01*
X146957261Y-98835230D01*
X146631184Y-98756056D01*
X146328387Y-98744077D01*
X146035489Y-98798745D01*
X145743083Y-98917496D01*
X145542000Y-99019092D01*
X145542000Y-99695814D01*
X145747906Y-99588149D01*
X146072971Y-99462848D01*
X146413553Y-99419387D01*
X146771307Y-99457817D01*
X147147888Y-99578190D01*
X147277667Y-99636429D01*
X147586172Y-99775934D01*
X147841225Y-99871203D01*
X148058392Y-99927041D01*
X148253240Y-99948252D01*
X148289711Y-99948763D01*
X148463813Y-99941394D01*
X148626292Y-99915467D01*
X148799987Y-99864698D01*
X149007739Y-99782799D01*
X149193406Y-99700029D01*
X149499107Y-99566122D01*
X149754234Y-99474214D01*
X149978214Y-99424325D01*
X150190474Y-99416475D01*
X150410442Y-99450684D01*
X150657543Y-99526972D01*
X150951206Y-99645358D01*
X151080351Y-99701967D01*
X151298090Y-99796426D01*
X151463026Y-99860267D01*
X151598446Y-99900003D01*
X151727637Y-99922149D01*
X151873886Y-99933218D01*
X151913167Y-99934913D01*
X152134858Y-99933916D01*
X152324827Y-99914709D01*
X152421167Y-99892251D01*
X152569783Y-99836336D01*
X152711789Y-99772821D01*
X152728083Y-99764527D01*
X152865667Y-99692825D01*
X152865667Y-99022350D01*
X152622250Y-99136425D01*
X152490795Y-99192546D01*
X152370557Y-99226815D01*
X152232619Y-99244342D01*
X152048063Y-99250236D01*
X151976667Y-99250500D01*
X151806097Y-99249089D01*
X151674958Y-99241021D01*
X151559668Y-99220544D01*
X151436644Y-99181904D01*
X151282304Y-99119348D01*
X151087667Y-99033630D01*
X150774717Y-98899496D01*
X150516602Y-98806050D01*
X150293941Y-98753231D01*
X150087354Y-98740976D01*
X149877462Y-98769222D01*
G37*
X149877462Y-98769222D02*
X149644885Y-98837906D01*
X149370244Y-98946965D01*
X149186784Y-99027468D01*
X148964585Y-99124045D01*
X148794634Y-99189208D01*
X148653617Y-99229737D01*
X148518221Y-99252411D01*
X148375034Y-99263513D01*
X148208357Y-99267408D01*
X148061687Y-99256856D01*
X147915633Y-99226686D01*
X147750804Y-99171726D01*
X147547810Y-99086805D01*
X147320000Y-98982149D01*
X146957261Y-98835230D01*
X146631184Y-98756056D01*
X146328387Y-98744077D01*
X146035489Y-98798745D01*
X145743083Y-98917496D01*
X145542000Y-99019092D01*
X145542000Y-99695814D01*
X145747906Y-99588149D01*
X146072971Y-99462848D01*
X146413553Y-99419387D01*
X146771307Y-99457817D01*
X147147888Y-99578190D01*
X147277667Y-99636429D01*
X147586172Y-99775934D01*
X147841225Y-99871203D01*
X148058392Y-99927041D01*
X148253240Y-99948252D01*
X148289711Y-99948763D01*
X148463813Y-99941394D01*
X148626292Y-99915467D01*
X148799987Y-99864698D01*
X149007739Y-99782799D01*
X149193406Y-99700029D01*
X149499107Y-99566122D01*
X149754234Y-99474214D01*
X149978214Y-99424325D01*
X150190474Y-99416475D01*
X150410442Y-99450684D01*
X150657543Y-99526972D01*
X150951206Y-99645358D01*
X151080351Y-99701967D01*
X151298090Y-99796426D01*
X151463026Y-99860267D01*
X151598446Y-99900003D01*
X151727637Y-99922149D01*
X151873886Y-99933218D01*
X151913167Y-99934913D01*
X152134858Y-99933916D01*
X152324827Y-99914709D01*
X152421167Y-99892251D01*
X152569783Y-99836336D01*
X152711789Y-99772821D01*
X152728083Y-99764527D01*
X152865667Y-99692825D01*
X152865667Y-99022350D01*
X152622250Y-99136425D01*
X152490795Y-99192546D01*
X152370557Y-99226815D01*
X152232619Y-99244342D01*
X152048063Y-99250236D01*
X151976667Y-99250500D01*
X151806097Y-99249089D01*
X151674958Y-99241021D01*
X151559668Y-99220544D01*
X151436644Y-99181904D01*
X151282304Y-99119348D01*
X151087667Y-99033630D01*
X150774717Y-98899496D01*
X150516602Y-98806050D01*
X150293941Y-98753231D01*
X150087354Y-98740976D01*
X149877462Y-98769222D01*
G36*
X146182063Y-100100649D02*
G01*
X145853491Y-100197232D01*
X145728714Y-100251558D01*
X145616360Y-100309556D01*
X145561470Y-100364389D01*
X145543543Y-100445907D01*
X145542000Y-100523415D01*
X145542000Y-100707506D01*
X145743083Y-100606921D01*
X146008306Y-100495535D01*
X146263670Y-100437375D01*
X146524759Y-100433242D01*
X146807154Y-100483937D01*
X147126438Y-100590260D01*
X147362333Y-100690119D01*
X147613100Y-100800548D01*
X147807324Y-100877973D01*
X147964140Y-100927362D01*
X148102680Y-100953679D01*
X148242078Y-100961890D01*
X148392449Y-100957457D01*
X148541121Y-100944353D01*
X148677365Y-100917961D01*
X148824702Y-100871212D01*
X149006649Y-100797033D01*
X149170177Y-100723638D01*
X149493983Y-100583496D01*
X149764809Y-100488949D01*
X150000423Y-100439076D01*
X150218589Y-100432958D01*
X150437073Y-100469674D01*
X150673642Y-100548306D01*
X150876000Y-100635322D01*
X151158278Y-100761035D01*
X151383542Y-100851342D01*
X151569129Y-100911334D01*
X151732379Y-100946107D01*
X151890629Y-100960751D01*
X151988217Y-100962017D01*
X152166344Y-100952548D01*
X152333043Y-100930711D01*
X152446311Y-100903019D01*
X152637031Y-100828013D01*
X152760246Y-100763636D01*
X152830000Y-100697750D01*
X152860334Y-100618218D01*
X152865667Y-100540579D01*
X152858186Y-100422205D01*
X152827097Y-100379145D01*
X152759432Y-100402718D01*
X152709185Y-100435830D01*
X152620657Y-100479786D01*
X152482221Y-100529848D01*
X152351166Y-100567822D01*
X152156372Y-100607100D01*
X151970800Y-100617902D01*
X151777348Y-100597319D01*
X151558914Y-100542441D01*
X151298397Y-100450358D01*
X151041054Y-100344909D01*
X150712193Y-100213220D01*
X150436640Y-100126105D01*
X150195972Y-100083162D01*
X149971766Y-100083988D01*
X149745598Y-100128181D01*
X149499044Y-100215336D01*
X149293781Y-100306716D01*
X149053117Y-100418178D01*
X148869180Y-100497356D01*
X148723363Y-100550613D01*
X148597062Y-100584308D01*
X148471670Y-100604804D01*
X148399500Y-100612463D01*
X148252250Y-100616361D01*
X148095841Y-100598066D01*
X147916616Y-100553631D01*
X147700916Y-100479107D01*
X147435084Y-100370547D01*
X147193000Y-100263697D01*
X146837406Y-100133762D01*
X146505231Y-100079452D01*
X146182063Y-100100649D01*
G37*
X146182063Y-100100649D02*
X145853491Y-100197232D01*
X145728714Y-100251558D01*
X145616360Y-100309556D01*
X145561470Y-100364389D01*
X145543543Y-100445907D01*
X145542000Y-100523415D01*
X145542000Y-100707506D01*
X145743083Y-100606921D01*
X146008306Y-100495535D01*
X146263670Y-100437375D01*
X146524759Y-100433242D01*
X146807154Y-100483937D01*
X147126438Y-100590260D01*
X147362333Y-100690119D01*
X147613100Y-100800548D01*
X147807324Y-100877973D01*
X147964140Y-100927362D01*
X148102680Y-100953679D01*
X148242078Y-100961890D01*
X148392449Y-100957457D01*
X148541121Y-100944353D01*
X148677365Y-100917961D01*
X148824702Y-100871212D01*
X149006649Y-100797033D01*
X149170177Y-100723638D01*
X149493983Y-100583496D01*
X149764809Y-100488949D01*
X150000423Y-100439076D01*
X150218589Y-100432958D01*
X150437073Y-100469674D01*
X150673642Y-100548306D01*
X150876000Y-100635322D01*
X151158278Y-100761035D01*
X151383542Y-100851342D01*
X151569129Y-100911334D01*
X151732379Y-100946107D01*
X151890629Y-100960751D01*
X151988217Y-100962017D01*
X152166344Y-100952548D01*
X152333043Y-100930711D01*
X152446311Y-100903019D01*
X152637031Y-100828013D01*
X152760246Y-100763636D01*
X152830000Y-100697750D01*
X152860334Y-100618218D01*
X152865667Y-100540579D01*
X152858186Y-100422205D01*
X152827097Y-100379145D01*
X152759432Y-100402718D01*
X152709185Y-100435830D01*
X152620657Y-100479786D01*
X152482221Y-100529848D01*
X152351166Y-100567822D01*
X152156372Y-100607100D01*
X151970800Y-100617902D01*
X151777348Y-100597319D01*
X151558914Y-100542441D01*
X151298397Y-100450358D01*
X151041054Y-100344909D01*
X150712193Y-100213220D01*
X150436640Y-100126105D01*
X150195972Y-100083162D01*
X149971766Y-100083988D01*
X149745598Y-100128181D01*
X149499044Y-100215336D01*
X149293781Y-100306716D01*
X149053117Y-100418178D01*
X148869180Y-100497356D01*
X148723363Y-100550613D01*
X148597062Y-100584308D01*
X148471670Y-100604804D01*
X148399500Y-100612463D01*
X148252250Y-100616361D01*
X148095841Y-100598066D01*
X147916616Y-100553631D01*
X147700916Y-100479107D01*
X147435084Y-100370547D01*
X147193000Y-100263697D01*
X146837406Y-100133762D01*
X146505231Y-100079452D01*
X146182063Y-100100649D01*
G36*
X132008095Y-99746426D02*
G01*
X131894905Y-99769306D01*
X131865989Y-99780921D01*
X131762683Y-99879930D01*
X131687011Y-100041343D01*
X131647959Y-100244974D01*
X131645950Y-100275240D01*
X131635500Y-100478166D01*
X132010077Y-100490458D01*
X132384654Y-100502751D01*
X132356029Y-100617458D01*
X132293312Y-100770019D01*
X132191616Y-100852015D01*
X132037668Y-100872767D01*
X131996248Y-100870109D01*
X131862051Y-100852407D01*
X131754822Y-100828492D01*
X131730750Y-100819812D01*
X131676872Y-100824001D01*
X131652502Y-100880448D01*
X131656868Y-100962347D01*
X131689198Y-101042889D01*
X131738550Y-101090510D01*
X131853276Y-101121924D01*
X132014176Y-101131484D01*
X132185965Y-101120412D01*
X132333358Y-101089932D01*
X132386385Y-101068065D01*
X132522133Y-100948057D01*
X132614800Y-100765925D01*
X132660039Y-100534830D01*
X132653499Y-100267935D01*
X132652752Y-100261857D01*
X132639849Y-100199909D01*
X132365826Y-100199909D01*
X132357903Y-100256941D01*
X132290680Y-100281953D01*
X132151866Y-100287660D01*
X132143500Y-100287666D01*
X132008337Y-100283696D01*
X131937943Y-100267272D01*
X131912614Y-100231625D01*
X131910667Y-100207689D01*
X131936383Y-100116564D01*
X131988191Y-100031974D01*
X132086992Y-99964328D01*
X132196567Y-99969107D01*
X132292794Y-100041596D01*
X132326743Y-100098143D01*
X132365826Y-100199909D01*
X132639849Y-100199909D01*
X132617230Y-100091321D01*
X132549187Y-99961527D01*
X132484674Y-99885251D01*
X132383422Y-99791281D01*
X132288259Y-99748164D01*
X132156769Y-99737359D01*
X132146302Y-99737333D01*
X132008095Y-99746426D01*
G37*
X132008095Y-99746426D02*
X131894905Y-99769306D01*
X131865989Y-99780921D01*
X131762683Y-99879930D01*
X131687011Y-100041343D01*
X131647959Y-100244974D01*
X131645950Y-100275240D01*
X131635500Y-100478166D01*
X132010077Y-100490458D01*
X132384654Y-100502751D01*
X132356029Y-100617458D01*
X132293312Y-100770019D01*
X132191616Y-100852015D01*
X132037668Y-100872767D01*
X131996248Y-100870109D01*
X131862051Y-100852407D01*
X131754822Y-100828492D01*
X131730750Y-100819812D01*
X131676872Y-100824001D01*
X131652502Y-100880448D01*
X131656868Y-100962347D01*
X131689198Y-101042889D01*
X131738550Y-101090510D01*
X131853276Y-101121924D01*
X132014176Y-101131484D01*
X132185965Y-101120412D01*
X132333358Y-101089932D01*
X132386385Y-101068065D01*
X132522133Y-100948057D01*
X132614800Y-100765925D01*
X132660039Y-100534830D01*
X132653499Y-100267935D01*
X132652752Y-100261857D01*
X132639849Y-100199909D01*
X132365826Y-100199909D01*
X132357903Y-100256941D01*
X132290680Y-100281953D01*
X132151866Y-100287660D01*
X132143500Y-100287666D01*
X132008337Y-100283696D01*
X131937943Y-100267272D01*
X131912614Y-100231625D01*
X131910667Y-100207689D01*
X131936383Y-100116564D01*
X131988191Y-100031974D01*
X132086992Y-99964328D01*
X132196567Y-99969107D01*
X132292794Y-100041596D01*
X132326743Y-100098143D01*
X132365826Y-100199909D01*
X132639849Y-100199909D01*
X132617230Y-100091321D01*
X132549187Y-99961527D01*
X132484674Y-99885251D01*
X132383422Y-99791281D01*
X132288259Y-99748164D01*
X132156769Y-99737359D01*
X132146302Y-99737333D01*
X132008095Y-99746426D01*
G36*
X133085417Y-99279567D02*
G01*
X132947833Y-99292833D01*
X132947833Y-101113166D01*
X133085417Y-101126432D01*
X133184315Y-101124929D01*
X133221254Y-101089274D01*
X133223000Y-101071115D01*
X133230419Y-101026801D01*
X133267721Y-101035625D01*
X133317086Y-101068432D01*
X133475362Y-101131553D01*
X133647462Y-101123437D01*
X133806439Y-101047053D01*
X133848943Y-101009877D01*
X133941792Y-100890542D01*
X133997915Y-100744812D01*
X134023725Y-100551050D01*
X134027333Y-100408015D01*
X134015219Y-100310145D01*
X133723752Y-100310145D01*
X133723160Y-100537215D01*
X133720244Y-100565454D01*
X133695708Y-100695602D01*
X133659680Y-100795957D01*
X133646353Y-100816810D01*
X133553632Y-100869518D01*
X133424641Y-100874846D01*
X133304884Y-100836510D01*
X133265056Y-100805133D01*
X133240554Y-100750994D01*
X133227822Y-100655934D01*
X133223304Y-100501793D01*
X133223000Y-100418313D01*
X133223000Y-100043938D01*
X133349750Y-99991436D01*
X133490029Y-99967683D01*
X133602348Y-100017882D01*
X133681869Y-100134535D01*
X133723752Y-100310145D01*
X134015219Y-100310145D01*
X133995252Y-100148834D01*
X133900095Y-99942188D01*
X133789047Y-99824660D01*
X133699641Y-99766800D01*
X133604457Y-99744104D01*
X133467380Y-99748834D01*
X133445250Y-99750993D01*
X133223000Y-99773549D01*
X133223000Y-99266302D01*
X133085417Y-99279567D01*
G37*
X133085417Y-99279567D02*
X132947833Y-99292833D01*
X132947833Y-101113166D01*
X133085417Y-101126432D01*
X133184315Y-101124929D01*
X133221254Y-101089274D01*
X133223000Y-101071115D01*
X133230419Y-101026801D01*
X133267721Y-101035625D01*
X133317086Y-101068432D01*
X133475362Y-101131553D01*
X133647462Y-101123437D01*
X133806439Y-101047053D01*
X133848943Y-101009877D01*
X133941792Y-100890542D01*
X133997915Y-100744812D01*
X134023725Y-100551050D01*
X134027333Y-100408015D01*
X134015219Y-100310145D01*
X133723752Y-100310145D01*
X133723160Y-100537215D01*
X133720244Y-100565454D01*
X133695708Y-100695602D01*
X133659680Y-100795957D01*
X133646353Y-100816810D01*
X133553632Y-100869518D01*
X133424641Y-100874846D01*
X133304884Y-100836510D01*
X133265056Y-100805133D01*
X133240554Y-100750994D01*
X133227822Y-100655934D01*
X133223304Y-100501793D01*
X133223000Y-100418313D01*
X133223000Y-100043938D01*
X133349750Y-99991436D01*
X133490029Y-99967683D01*
X133602348Y-100017882D01*
X133681869Y-100134535D01*
X133723752Y-100310145D01*
X134015219Y-100310145D01*
X133995252Y-100148834D01*
X133900095Y-99942188D01*
X133789047Y-99824660D01*
X133699641Y-99766800D01*
X133604457Y-99744104D01*
X133467380Y-99748834D01*
X133445250Y-99750993D01*
X133223000Y-99773549D01*
X133223000Y-99266302D01*
X133085417Y-99279567D01*
G36*
X134958667Y-101134333D02*
G01*
X135085667Y-101134333D01*
X135184906Y-101116494D01*
X135212667Y-101068432D01*
X135220319Y-101026197D01*
X135258261Y-101036138D01*
X135306753Y-101068432D01*
X135445142Y-101122179D01*
X135611096Y-101128859D01*
X135761811Y-101088489D01*
X135796156Y-101068263D01*
X135915075Y-100937159D01*
X135992908Y-100753541D01*
X136029970Y-100538679D01*
X136028229Y-100423223D01*
X135720667Y-100423223D01*
X135713173Y-100583501D01*
X135693595Y-100719083D01*
X135668150Y-100796241D01*
X135586200Y-100858264D01*
X135467685Y-100880896D01*
X135352815Y-100860443D01*
X135305800Y-100829533D01*
X135278484Y-100757531D01*
X135261087Y-100612857D01*
X135255000Y-100407689D01*
X135257242Y-100225306D01*
X135266368Y-100109273D01*
X135285983Y-100041336D01*
X135319687Y-100003241D01*
X135336884Y-99992822D01*
X135465725Y-99952002D01*
X135575164Y-99988389D01*
X135634351Y-100041649D01*
X135683416Y-100112633D01*
X135710099Y-100208890D01*
X135720074Y-100355494D01*
X135720667Y-100423223D01*
X136028229Y-100423223D01*
X136026578Y-100313839D01*
X135983049Y-100100291D01*
X135899701Y-99919304D01*
X135777150Y-99792343D01*
X135656268Y-99747967D01*
X135482316Y-99745491D01*
X135465978Y-99746965D01*
X135255000Y-99767238D01*
X135255000Y-99271666D01*
X134958667Y-99271666D01*
X134958667Y-101134333D01*
G37*
X134958667Y-101134333D02*
X135085667Y-101134333D01*
X135184906Y-101116494D01*
X135212667Y-101068432D01*
X135220319Y-101026197D01*
X135258261Y-101036138D01*
X135306753Y-101068432D01*
X135445142Y-101122179D01*
X135611096Y-101128859D01*
X135761811Y-101088489D01*
X135796156Y-101068263D01*
X135915075Y-100937159D01*
X135992908Y-100753541D01*
X136029970Y-100538679D01*
X136028229Y-100423223D01*
X135720667Y-100423223D01*
X135713173Y-100583501D01*
X135693595Y-100719083D01*
X135668150Y-100796241D01*
X135586200Y-100858264D01*
X135467685Y-100880896D01*
X135352815Y-100860443D01*
X135305800Y-100829533D01*
X135278484Y-100757531D01*
X135261087Y-100612857D01*
X135255000Y-100407689D01*
X135257242Y-100225306D01*
X135266368Y-100109273D01*
X135285983Y-100041336D01*
X135319687Y-100003241D01*
X135336884Y-99992822D01*
X135465725Y-99952002D01*
X135575164Y-99988389D01*
X135634351Y-100041649D01*
X135683416Y-100112633D01*
X135710099Y-100208890D01*
X135720074Y-100355494D01*
X135720667Y-100423223D01*
X136028229Y-100423223D01*
X136026578Y-100313839D01*
X135983049Y-100100291D01*
X135899701Y-99919304D01*
X135777150Y-99792343D01*
X135656268Y-99747967D01*
X135482316Y-99745491D01*
X135465978Y-99746965D01*
X135255000Y-99767238D01*
X135255000Y-99271666D01*
X134958667Y-99271666D01*
X134958667Y-101134333D01*
G36*
X136705801Y-99742489D02*
G01*
X136606912Y-99764981D01*
X136528146Y-99815340D01*
X136479410Y-99861076D01*
X136424105Y-99919913D01*
X136388352Y-99976427D01*
X136367891Y-100050130D01*
X136358458Y-100160533D01*
X136355793Y-100327147D01*
X136355667Y-100427639D01*
X136354409Y-100626551D01*
X136348721Y-100756583D01*
X136335730Y-100833510D01*
X136312565Y-100873103D01*
X136276353Y-100891136D01*
X136271000Y-100892599D01*
X136200921Y-100947640D01*
X136186333Y-101024536D01*
X136195132Y-101095501D01*
X136237560Y-101126822D01*
X136337671Y-101134290D01*
X136353563Y-101134333D01*
X136496210Y-101114163D01*
X136559801Y-101064630D01*
X136594412Y-101019534D01*
X136640012Y-101026701D01*
X136698324Y-101064630D01*
X136842796Y-101124456D01*
X137007657Y-101132869D01*
X137159102Y-101091750D01*
X137238964Y-101034570D01*
X137330297Y-100885524D01*
X137362954Y-100713251D01*
X137356826Y-100668118D01*
X137068082Y-100668118D01*
X137048760Y-100799696D01*
X136973896Y-100883198D01*
X136862238Y-100911162D01*
X136732533Y-100876127D01*
X136662820Y-100829413D01*
X136628200Y-100761031D01*
X136610332Y-100648264D01*
X136609667Y-100621956D01*
X136617896Y-100511687D01*
X136654009Y-100456430D01*
X136723150Y-100430130D01*
X136872766Y-100429414D01*
X136991604Y-100497896D01*
X137060217Y-100622157D01*
X137068082Y-100668118D01*
X137356826Y-100668118D01*
X137339670Y-100541782D01*
X137263179Y-100395154D01*
X137156140Y-100306836D01*
X137042166Y-100270153D01*
X136890737Y-100248152D01*
X136820583Y-100245333D01*
X136694375Y-100242647D01*
X136634349Y-100228368D01*
X136622053Y-100193162D01*
X136632255Y-100150083D01*
X136690457Y-100034541D01*
X136788697Y-99973653D01*
X136941815Y-99960459D01*
X137022417Y-99967050D01*
X137151371Y-99979133D01*
X137217392Y-99972856D01*
X137241478Y-99940975D01*
X137244667Y-99890398D01*
X137231108Y-99816721D01*
X137180716Y-99770535D01*
X137078918Y-99746087D01*
X136911142Y-99737625D01*
X136856948Y-99737333D01*
X136705801Y-99742489D01*
G37*
X136705801Y-99742489D02*
X136606912Y-99764981D01*
X136528146Y-99815340D01*
X136479410Y-99861076D01*
X136424105Y-99919913D01*
X136388352Y-99976427D01*
X136367891Y-100050130D01*
X136358458Y-100160533D01*
X136355793Y-100327147D01*
X136355667Y-100427639D01*
X136354409Y-100626551D01*
X136348721Y-100756583D01*
X136335730Y-100833510D01*
X136312565Y-100873103D01*
X136276353Y-100891136D01*
X136271000Y-100892599D01*
X136200921Y-100947640D01*
X136186333Y-101024536D01*
X136195132Y-101095501D01*
X136237560Y-101126822D01*
X136337671Y-101134290D01*
X136353563Y-101134333D01*
X136496210Y-101114163D01*
X136559801Y-101064630D01*
X136594412Y-101019534D01*
X136640012Y-101026701D01*
X136698324Y-101064630D01*
X136842796Y-101124456D01*
X137007657Y-101132869D01*
X137159102Y-101091750D01*
X137238964Y-101034570D01*
X137330297Y-100885524D01*
X137362954Y-100713251D01*
X137356826Y-100668118D01*
X137068082Y-100668118D01*
X137048760Y-100799696D01*
X136973896Y-100883198D01*
X136862238Y-100911162D01*
X136732533Y-100876127D01*
X136662820Y-100829413D01*
X136628200Y-100761031D01*
X136610332Y-100648264D01*
X136609667Y-100621956D01*
X136617896Y-100511687D01*
X136654009Y-100456430D01*
X136723150Y-100430130D01*
X136872766Y-100429414D01*
X136991604Y-100497896D01*
X137060217Y-100622157D01*
X137068082Y-100668118D01*
X137356826Y-100668118D01*
X137339670Y-100541782D01*
X137263179Y-100395154D01*
X137156140Y-100306836D01*
X137042166Y-100270153D01*
X136890737Y-100248152D01*
X136820583Y-100245333D01*
X136694375Y-100242647D01*
X136634349Y-100228368D01*
X136622053Y-100193162D01*
X136632255Y-100150083D01*
X136690457Y-100034541D01*
X136788697Y-99973653D01*
X136941815Y-99960459D01*
X137022417Y-99967050D01*
X137151371Y-99979133D01*
X137217392Y-99972856D01*
X137241478Y-99940975D01*
X137244667Y-99890398D01*
X137231108Y-99816721D01*
X137180716Y-99770535D01*
X137078918Y-99746087D01*
X136911142Y-99737625D01*
X136856948Y-99737333D01*
X136705801Y-99742489D01*
G36*
X137854092Y-99414877D02*
G01*
X137838525Y-99480462D01*
X137837333Y-99568000D01*
X137832848Y-99676418D01*
X137805152Y-99724599D01*
X137732887Y-99736954D01*
X137689167Y-99737333D01*
X137589619Y-99744413D01*
X137548789Y-99780323D01*
X137541000Y-99864333D01*
X137549260Y-99949659D01*
X137591155Y-99984657D01*
X137689167Y-99991333D01*
X137837333Y-99991333D01*
X137837333Y-100889596D01*
X137691553Y-100872577D01*
X137589715Y-100869534D01*
X137540200Y-100902571D01*
X137519764Y-100959180D01*
X137516129Y-101048533D01*
X137567000Y-101102940D01*
X137682974Y-101128925D01*
X137803183Y-101133685D01*
X137939962Y-101124539D01*
X138023408Y-101088950D01*
X138067766Y-101040247D01*
X138099119Y-100972241D01*
X138119396Y-100865183D01*
X138130334Y-100704025D01*
X138133666Y-100473724D01*
X138133667Y-100468747D01*
X138134598Y-100261953D01*
X138139099Y-100125360D01*
X138149737Y-100044507D01*
X138169074Y-100004933D01*
X138199676Y-99992177D01*
X138218333Y-99991333D01*
X138280307Y-99971375D01*
X138302127Y-99897116D01*
X138303000Y-99864333D01*
X138289695Y-99771373D01*
X138240189Y-99738643D01*
X138218333Y-99737333D01*
X138151697Y-99712241D01*
X138133667Y-99632587D01*
X138099975Y-99532243D01*
X138008769Y-99463253D01*
X137904118Y-99413247D01*
X137854092Y-99414877D01*
G37*
X137854092Y-99414877D02*
X137838525Y-99480462D01*
X137837333Y-99568000D01*
X137832848Y-99676418D01*
X137805152Y-99724599D01*
X137732887Y-99736954D01*
X137689167Y-99737333D01*
X137589619Y-99744413D01*
X137548789Y-99780323D01*
X137541000Y-99864333D01*
X137549260Y-99949659D01*
X137591155Y-99984657D01*
X137689167Y-99991333D01*
X137837333Y-99991333D01*
X137837333Y-100889596D01*
X137691553Y-100872577D01*
X137589715Y-100869534D01*
X137540200Y-100902571D01*
X137519764Y-100959180D01*
X137516129Y-101048533D01*
X137567000Y-101102940D01*
X137682974Y-101128925D01*
X137803183Y-101133685D01*
X137939962Y-101124539D01*
X138023408Y-101088950D01*
X138067766Y-101040247D01*
X138099119Y-100972241D01*
X138119396Y-100865183D01*
X138130334Y-100704025D01*
X138133666Y-100473724D01*
X138133667Y-100468747D01*
X138134598Y-100261953D01*
X138139099Y-100125360D01*
X138149737Y-100044507D01*
X138169074Y-100004933D01*
X138199676Y-99992177D01*
X138218333Y-99991333D01*
X138280307Y-99971375D01*
X138302127Y-99897116D01*
X138303000Y-99864333D01*
X138289695Y-99771373D01*
X138240189Y-99738643D01*
X138218333Y-99737333D01*
X138151697Y-99712241D01*
X138133667Y-99632587D01*
X138099975Y-99532243D01*
X138008769Y-99463253D01*
X137904118Y-99413247D01*
X137854092Y-99414877D01*
G36*
X138674351Y-100065416D02*
G01*
X138662833Y-100859166D01*
X138501533Y-100872457D01*
X138396979Y-100887066D01*
X138354720Y-100920084D01*
X138352391Y-100990682D01*
X138353366Y-100999457D01*
X138368783Y-101067380D01*
X138409986Y-101103290D01*
X138499962Y-101119964D01*
X138580447Y-101125674D01*
X138721738Y-101126230D01*
X138811210Y-101101639D01*
X138876781Y-101047254D01*
X138905226Y-101009296D01*
X138926680Y-100958743D01*
X138942386Y-100883450D01*
X138953584Y-100771270D01*
X138961517Y-100610059D01*
X138967428Y-100387671D01*
X138972218Y-100113997D01*
X138985268Y-99271666D01*
X138685868Y-99271666D01*
X138674351Y-100065416D01*
G37*
X138674351Y-100065416D02*
X138662833Y-100859166D01*
X138501533Y-100872457D01*
X138396979Y-100887066D01*
X138354720Y-100920084D01*
X138352391Y-100990682D01*
X138353366Y-100999457D01*
X138368783Y-101067380D01*
X138409986Y-101103290D01*
X138499962Y-101119964D01*
X138580447Y-101125674D01*
X138721738Y-101126230D01*
X138811210Y-101101639D01*
X138876781Y-101047254D01*
X138905226Y-101009296D01*
X138926680Y-100958743D01*
X138942386Y-100883450D01*
X138953584Y-100771270D01*
X138961517Y-100610059D01*
X138967428Y-100387671D01*
X138972218Y-100113997D01*
X138985268Y-99271666D01*
X138685868Y-99271666D01*
X138674351Y-100065416D01*
G36*
X139319000Y-101134333D02*
G01*
X139446000Y-101134333D01*
X139546826Y-101115401D01*
X139573000Y-101070833D01*
X139593351Y-101014150D01*
X139657161Y-101025650D01*
X139723659Y-101069486D01*
X139815335Y-101107727D01*
X139948756Y-101130428D01*
X140003844Y-101132986D01*
X140138830Y-101124751D01*
X140225348Y-101088729D01*
X140289594Y-101022790D01*
X140325581Y-100969240D01*
X140350208Y-100905484D01*
X140365579Y-100815272D01*
X140373800Y-100682354D01*
X140376975Y-100490480D01*
X140377333Y-100345457D01*
X140377333Y-99779666D01*
X140271500Y-99779666D01*
X140178207Y-99775794D01*
X140133917Y-99769083D01*
X140120610Y-99804692D01*
X140106643Y-99909629D01*
X140093518Y-100068582D01*
X140082734Y-100266242D01*
X140081000Y-100308833D01*
X140059833Y-100859166D01*
X139936544Y-100873225D01*
X139809508Y-100865715D01*
X139715545Y-100834991D01*
X139674237Y-100808144D01*
X139646046Y-100769549D01*
X139627955Y-100703654D01*
X139616944Y-100594909D01*
X139609996Y-100427763D01*
X139606001Y-100270599D01*
X139594167Y-99758500D01*
X139456583Y-99745234D01*
X139319000Y-99731968D01*
X139319000Y-101134333D01*
G37*
X139319000Y-101134333D02*
X139446000Y-101134333D01*
X139546826Y-101115401D01*
X139573000Y-101070833D01*
X139593351Y-101014150D01*
X139657161Y-101025650D01*
X139723659Y-101069486D01*
X139815335Y-101107727D01*
X139948756Y-101130428D01*
X140003844Y-101132986D01*
X140138830Y-101124751D01*
X140225348Y-101088729D01*
X140289594Y-101022790D01*
X140325581Y-100969240D01*
X140350208Y-100905484D01*
X140365579Y-100815272D01*
X140373800Y-100682354D01*
X140376975Y-100490480D01*
X140377333Y-100345457D01*
X140377333Y-99779666D01*
X140271500Y-99779666D01*
X140178207Y-99775794D01*
X140133917Y-99769083D01*
X140120610Y-99804692D01*
X140106643Y-99909629D01*
X140093518Y-100068582D01*
X140082734Y-100266242D01*
X140081000Y-100308833D01*
X140059833Y-100859166D01*
X139936544Y-100873225D01*
X139809508Y-100865715D01*
X139715545Y-100834991D01*
X139674237Y-100808144D01*
X139646046Y-100769549D01*
X139627955Y-100703654D01*
X139616944Y-100594909D01*
X139609996Y-100427763D01*
X139606001Y-100270599D01*
X139594167Y-99758500D01*
X139456583Y-99745234D01*
X139319000Y-99731968D01*
X139319000Y-101134333D01*
G36*
X140906086Y-99752936D02*
G01*
X140761877Y-99816839D01*
X140659640Y-99919973D01*
X140620932Y-100033529D01*
X140639730Y-100121890D01*
X140706156Y-100157406D01*
X140800360Y-100138370D01*
X140902494Y-100063077D01*
X140907154Y-100058128D01*
X140996530Y-99974564D01*
X141067286Y-99956472D01*
X141149937Y-100000374D01*
X141183494Y-100026633D01*
X141246388Y-100101273D01*
X141282996Y-100214199D01*
X141299242Y-100343920D01*
X141300471Y-100574465D01*
X141256456Y-100736032D01*
X141162039Y-100834217D01*
X141012064Y-100874616D01*
X140818832Y-100865319D01*
X140703340Y-100852921D01*
X140648698Y-100864056D01*
X140632281Y-100908118D01*
X140631333Y-100943153D01*
X140658752Y-101039109D01*
X140746335Y-101100055D01*
X140902076Y-101129830D01*
X141029306Y-101134333D01*
X141174072Y-101128286D01*
X141271384Y-101100809D01*
X141358126Y-101037899D01*
X141406827Y-100991017D01*
X141525357Y-100819520D01*
X141592681Y-100608570D01*
X141609153Y-100380731D01*
X141575129Y-100158564D01*
X141490963Y-99964633D01*
X141388847Y-99845887D01*
X141239742Y-99762531D01*
X141072098Y-99733190D01*
X140906086Y-99752936D01*
G37*
X140906086Y-99752936D02*
X140761877Y-99816839D01*
X140659640Y-99919973D01*
X140620932Y-100033529D01*
X140639730Y-100121890D01*
X140706156Y-100157406D01*
X140800360Y-100138370D01*
X140902494Y-100063077D01*
X140907154Y-100058128D01*
X140996530Y-99974564D01*
X141067286Y-99956472D01*
X141149937Y-100000374D01*
X141183494Y-100026633D01*
X141246388Y-100101273D01*
X141282996Y-100214199D01*
X141299242Y-100343920D01*
X141300471Y-100574465D01*
X141256456Y-100736032D01*
X141162039Y-100834217D01*
X141012064Y-100874616D01*
X140818832Y-100865319D01*
X140703340Y-100852921D01*
X140648698Y-100864056D01*
X140632281Y-100908118D01*
X140631333Y-100943153D01*
X140658752Y-101039109D01*
X140746335Y-101100055D01*
X140902076Y-101129830D01*
X141029306Y-101134333D01*
X141174072Y-101128286D01*
X141271384Y-101100809D01*
X141358126Y-101037899D01*
X141406827Y-100991017D01*
X141525357Y-100819520D01*
X141592681Y-100608570D01*
X141609153Y-100380731D01*
X141575129Y-100158564D01*
X141490963Y-99964633D01*
X141388847Y-99845887D01*
X141239742Y-99762531D01*
X141072098Y-99733190D01*
X140906086Y-99752936D01*
G36*
X142255818Y-99750000D02*
G01*
X142111687Y-99793793D01*
X142011163Y-99879398D01*
X141947297Y-100016855D01*
X141913140Y-100216203D01*
X141901744Y-100487482D01*
X141901570Y-100531083D01*
X141898068Y-100711437D01*
X141886373Y-100820595D01*
X141864251Y-100871820D01*
X141842771Y-100880333D01*
X141790578Y-100915856D01*
X141754059Y-100995184D01*
X141749084Y-101077457D01*
X141757707Y-101099346D01*
X141818324Y-101129086D01*
X141921581Y-101133050D01*
X142030511Y-101114297D01*
X142108149Y-101075886D01*
X142113792Y-101069879D01*
X142161486Y-101028660D01*
X142217149Y-101040303D01*
X142265652Y-101069879D01*
X142418306Y-101127822D01*
X142589749Y-101130569D01*
X142745642Y-101080592D01*
X142813424Y-101030424D01*
X142880300Y-100943355D01*
X142911097Y-100836298D01*
X142917333Y-100709667D01*
X142916335Y-100692666D01*
X142625178Y-100692666D01*
X142596361Y-100811843D01*
X142515679Y-100900458D01*
X142468567Y-100921379D01*
X142430408Y-100909952D01*
X142342919Y-100880341D01*
X142330984Y-100876192D01*
X142247227Y-100838685D01*
X142208588Y-100784412D01*
X142197956Y-100683592D01*
X142197667Y-100644165D01*
X142203894Y-100525366D01*
X142231409Y-100464365D01*
X142293459Y-100434677D01*
X142303809Y-100431973D01*
X142439360Y-100438322D01*
X142515475Y-100474475D01*
X142599195Y-100570889D01*
X142625178Y-100692666D01*
X142916335Y-100692666D01*
X142908855Y-100565329D01*
X142874147Y-100466474D01*
X142799302Y-100374824D01*
X142793590Y-100369076D01*
X142707359Y-100295153D01*
X142618171Y-100258083D01*
X142491277Y-100245919D01*
X142433757Y-100245333D01*
X142296446Y-100241051D01*
X142224674Y-100224247D01*
X142199570Y-100188982D01*
X142198315Y-100171250D01*
X142216552Y-100067238D01*
X142278411Y-100005582D01*
X142397973Y-99978042D01*
X142533953Y-99974816D01*
X142679086Y-99973618D01*
X142761308Y-99959268D01*
X142802078Y-99925708D01*
X142815061Y-99895448D01*
X142819385Y-99821612D01*
X142769961Y-99773562D01*
X142657098Y-99747114D01*
X142471110Y-99738083D01*
X142450503Y-99737981D01*
X142255818Y-99750000D01*
G37*
X142255818Y-99750000D02*
X142111687Y-99793793D01*
X142011163Y-99879398D01*
X141947297Y-100016855D01*
X141913140Y-100216203D01*
X141901744Y-100487482D01*
X141901570Y-100531083D01*
X141898068Y-100711437D01*
X141886373Y-100820595D01*
X141864251Y-100871820D01*
X141842771Y-100880333D01*
X141790578Y-100915856D01*
X141754059Y-100995184D01*
X141749084Y-101077457D01*
X141757707Y-101099346D01*
X141818324Y-101129086D01*
X141921581Y-101133050D01*
X142030511Y-101114297D01*
X142108149Y-101075886D01*
X142113792Y-101069879D01*
X142161486Y-101028660D01*
X142217149Y-101040303D01*
X142265652Y-101069879D01*
X142418306Y-101127822D01*
X142589749Y-101130569D01*
X142745642Y-101080592D01*
X142813424Y-101030424D01*
X142880300Y-100943355D01*
X142911097Y-100836298D01*
X142917333Y-100709667D01*
X142916335Y-100692666D01*
X142625178Y-100692666D01*
X142596361Y-100811843D01*
X142515679Y-100900458D01*
X142468567Y-100921379D01*
X142430408Y-100909952D01*
X142342919Y-100880341D01*
X142330984Y-100876192D01*
X142247227Y-100838685D01*
X142208588Y-100784412D01*
X142197956Y-100683592D01*
X142197667Y-100644165D01*
X142203894Y-100525366D01*
X142231409Y-100464365D01*
X142293459Y-100434677D01*
X142303809Y-100431973D01*
X142439360Y-100438322D01*
X142515475Y-100474475D01*
X142599195Y-100570889D01*
X142625178Y-100692666D01*
X142916335Y-100692666D01*
X142908855Y-100565329D01*
X142874147Y-100466474D01*
X142799302Y-100374824D01*
X142793590Y-100369076D01*
X142707359Y-100295153D01*
X142618171Y-100258083D01*
X142491277Y-100245919D01*
X142433757Y-100245333D01*
X142296446Y-100241051D01*
X142224674Y-100224247D01*
X142199570Y-100188982D01*
X142198315Y-100171250D01*
X142216552Y-100067238D01*
X142278411Y-100005582D01*
X142397973Y-99978042D01*
X142533953Y-99974816D01*
X142679086Y-99973618D01*
X142761308Y-99959268D01*
X142802078Y-99925708D01*
X142815061Y-99895448D01*
X142819385Y-99821612D01*
X142769961Y-99773562D01*
X142657098Y-99747114D01*
X142471110Y-99738083D01*
X142450503Y-99737981D01*
X142255818Y-99750000D01*
G36*
X142917333Y-99525666D02*
G01*
X143721667Y-99525666D01*
X143721667Y-100033666D01*
X143044333Y-100033666D01*
X143044333Y-100287666D01*
X143721667Y-100287666D01*
X143721667Y-101134333D01*
X144018000Y-101134333D01*
X144018000Y-99271666D01*
X142917333Y-99271666D01*
X142917333Y-99525666D01*
G37*
X142917333Y-99525666D02*
X143721667Y-99525666D01*
X143721667Y-100033666D01*
X143044333Y-100033666D01*
X143044333Y-100287666D01*
X143721667Y-100287666D01*
X143721667Y-101134333D01*
X144018000Y-101134333D01*
X144018000Y-99271666D01*
X142917333Y-99271666D01*
X142917333Y-99525666D01*
G36*
X134383656Y-102072454D02*
G01*
X134342808Y-102161481D01*
X134330057Y-102210701D01*
X134331129Y-102212674D01*
X134385799Y-102245868D01*
X134487835Y-102298034D01*
X134610220Y-102356471D01*
X134725938Y-102408476D01*
X134807975Y-102441345D01*
X134828770Y-102446666D01*
X134879443Y-102413522D01*
X134918274Y-102358374D01*
X134944303Y-102307909D01*
X134948053Y-102270853D01*
X134917425Y-102232969D01*
X134840319Y-102180020D01*
X134704636Y-102097769D01*
X134688597Y-102088117D01*
X134449889Y-101944375D01*
X134383656Y-102072454D01*
G37*
X134383656Y-102072454D02*
X134342808Y-102161481D01*
X134330057Y-102210701D01*
X134331129Y-102212674D01*
X134385799Y-102245868D01*
X134487835Y-102298034D01*
X134610220Y-102356471D01*
X134725938Y-102408476D01*
X134807975Y-102441345D01*
X134828770Y-102446666D01*
X134879443Y-102413522D01*
X134918274Y-102358374D01*
X134944303Y-102307909D01*
X134948053Y-102270853D01*
X134917425Y-102232969D01*
X134840319Y-102180020D01*
X134704636Y-102097769D01*
X134688597Y-102088117D01*
X134449889Y-101944375D01*
X134383656Y-102072454D01*
G36*
X137470675Y-102047631D02*
G01*
X137392082Y-102123962D01*
X137371667Y-102235000D01*
X137401651Y-102363428D01*
X137492182Y-102432797D01*
X137590824Y-102446666D01*
X137714093Y-102408896D01*
X137778863Y-102339099D01*
X137825166Y-102211605D01*
X137797546Y-102105051D01*
X137705496Y-102037602D01*
X137613874Y-102023333D01*
X137470675Y-102047631D01*
G37*
X137470675Y-102047631D02*
X137392082Y-102123962D01*
X137371667Y-102235000D01*
X137401651Y-102363428D01*
X137492182Y-102432797D01*
X137590824Y-102446666D01*
X137714093Y-102408896D01*
X137778863Y-102339099D01*
X137825166Y-102211605D01*
X137797546Y-102105051D01*
X137705496Y-102037602D01*
X137613874Y-102023333D01*
X137470675Y-102047631D01*
G36*
X133533451Y-102561642D02*
G01*
X133483291Y-102571972D01*
X133352872Y-102616813D01*
X133262139Y-102679138D01*
X133203279Y-102774140D01*
X133168481Y-102917012D01*
X133149932Y-103122947D01*
X133145197Y-103229517D01*
X133136325Y-103427885D01*
X133125068Y-103557324D01*
X133108023Y-103633565D01*
X133081787Y-103672339D01*
X133045887Y-103688633D01*
X132985262Y-103728979D01*
X132975325Y-103818985D01*
X132976468Y-103829934D01*
X132996313Y-103909593D01*
X133049016Y-103947450D01*
X133153069Y-103962886D01*
X133299857Y-103953908D01*
X133385903Y-103913228D01*
X133448855Y-103873348D01*
X133517953Y-103886413D01*
X133561667Y-103908925D01*
X133734114Y-103965877D01*
X133914715Y-103962826D01*
X134073161Y-103902445D01*
X134127394Y-103859060D01*
X134197873Y-103771286D01*
X134231022Y-103670354D01*
X134237563Y-103553892D01*
X133847015Y-103553892D01*
X133815211Y-103611383D01*
X133746788Y-103666662D01*
X133665082Y-103660292D01*
X133601217Y-103630510D01*
X133540353Y-103560718D01*
X133518851Y-103460937D01*
X133538134Y-103367000D01*
X133588797Y-103318069D01*
X133699942Y-103310955D01*
X133791623Y-103362910D01*
X133846446Y-103451401D01*
X133847015Y-103553892D01*
X134237563Y-103553892D01*
X134239000Y-103528314D01*
X134231238Y-103385316D01*
X134198868Y-103289300D01*
X134128270Y-103203298D01*
X134114189Y-103189596D01*
X134023093Y-103116525D01*
X133925007Y-103079787D01*
X133784346Y-103067220D01*
X133754356Y-103066622D01*
X133599628Y-103053776D01*
X133525989Y-103020126D01*
X133532173Y-102964526D01*
X133583626Y-102911676D01*
X133683351Y-102878055D01*
X133858943Y-102880177D01*
X133875374Y-102881793D01*
X134006677Y-102893254D01*
X134077107Y-102886036D01*
X134110002Y-102850224D01*
X134128702Y-102775905D01*
X134129079Y-102774023D01*
X134134208Y-102664929D01*
X134107077Y-102612957D01*
X134005434Y-102578390D01*
X133853497Y-102556840D01*
X133684942Y-102550519D01*
X133533451Y-102561642D01*
G37*
X133533451Y-102561642D02*
X133483291Y-102571972D01*
X133352872Y-102616813D01*
X133262139Y-102679138D01*
X133203279Y-102774140D01*
X133168481Y-102917012D01*
X133149932Y-103122947D01*
X133145197Y-103229517D01*
X133136325Y-103427885D01*
X133125068Y-103557324D01*
X133108023Y-103633565D01*
X133081787Y-103672339D01*
X133045887Y-103688633D01*
X132985262Y-103728979D01*
X132975325Y-103818985D01*
X132976468Y-103829934D01*
X132996313Y-103909593D01*
X133049016Y-103947450D01*
X133153069Y-103962886D01*
X133299857Y-103953908D01*
X133385903Y-103913228D01*
X133448855Y-103873348D01*
X133517953Y-103886413D01*
X133561667Y-103908925D01*
X133734114Y-103965877D01*
X133914715Y-103962826D01*
X134073161Y-103902445D01*
X134127394Y-103859060D01*
X134197873Y-103771286D01*
X134231022Y-103670354D01*
X134237563Y-103553892D01*
X133847015Y-103553892D01*
X133815211Y-103611383D01*
X133746788Y-103666662D01*
X133665082Y-103660292D01*
X133601217Y-103630510D01*
X133540353Y-103560718D01*
X133518851Y-103460937D01*
X133538134Y-103367000D01*
X133588797Y-103318069D01*
X133699942Y-103310955D01*
X133791623Y-103362910D01*
X133846446Y-103451401D01*
X133847015Y-103553892D01*
X134237563Y-103553892D01*
X134239000Y-103528314D01*
X134231238Y-103385316D01*
X134198868Y-103289300D01*
X134128270Y-103203298D01*
X134114189Y-103189596D01*
X134023093Y-103116525D01*
X133925007Y-103079787D01*
X133784346Y-103067220D01*
X133754356Y-103066622D01*
X133599628Y-103053776D01*
X133525989Y-103020126D01*
X133532173Y-102964526D01*
X133583626Y-102911676D01*
X133683351Y-102878055D01*
X133858943Y-102880177D01*
X133875374Y-102881793D01*
X134006677Y-102893254D01*
X134077107Y-102886036D01*
X134110002Y-102850224D01*
X134128702Y-102775905D01*
X134129079Y-102774023D01*
X134134208Y-102664929D01*
X134107077Y-102612957D01*
X134005434Y-102578390D01*
X133853497Y-102556840D01*
X133684942Y-102550519D01*
X133533451Y-102561642D01*
G36*
X134450667Y-103970666D02*
G01*
X134874000Y-103970666D01*
X134874000Y-102573666D01*
X134450667Y-102573666D01*
X134450667Y-103970666D01*
G37*
X134450667Y-103970666D02*
X134874000Y-103970666D01*
X134874000Y-102573666D01*
X134450667Y-102573666D01*
X134450667Y-103970666D01*
G36*
X135126744Y-102557969D02*
G01*
X135099724Y-102569203D01*
X135029010Y-102614475D01*
X135012109Y-102680321D01*
X135023906Y-102754151D01*
X135055245Y-102877756D01*
X135088725Y-102934672D01*
X135138205Y-102942061D01*
X135169032Y-102933913D01*
X135262764Y-102932749D01*
X135355969Y-102960152D01*
X135403719Y-102984640D01*
X135435281Y-103016902D01*
X135454006Y-103072997D01*
X135463245Y-103168984D01*
X135466349Y-103320921D01*
X135466667Y-103490628D01*
X135466667Y-103970666D01*
X135847667Y-103970666D01*
X135847667Y-102573666D01*
X135657167Y-102573666D01*
X135543549Y-102581431D01*
X135475401Y-102601077D01*
X135466667Y-102612755D01*
X135434177Y-102622254D01*
X135354163Y-102595333D01*
X135335796Y-102586557D01*
X135222403Y-102545699D01*
X135126744Y-102557969D01*
G37*
X135126744Y-102557969D02*
X135099724Y-102569203D01*
X135029010Y-102614475D01*
X135012109Y-102680321D01*
X135023906Y-102754151D01*
X135055245Y-102877756D01*
X135088725Y-102934672D01*
X135138205Y-102942061D01*
X135169032Y-102933913D01*
X135262764Y-102932749D01*
X135355969Y-102960152D01*
X135403719Y-102984640D01*
X135435281Y-103016902D01*
X135454006Y-103072997D01*
X135463245Y-103168984D01*
X135466349Y-103320921D01*
X135466667Y-103490628D01*
X135466667Y-103970666D01*
X135847667Y-103970666D01*
X135847667Y-102573666D01*
X135657167Y-102573666D01*
X135543549Y-102581431D01*
X135475401Y-102601077D01*
X135466667Y-102612755D01*
X135434177Y-102622254D01*
X135354163Y-102595333D01*
X135335796Y-102586557D01*
X135222403Y-102545699D01*
X135126744Y-102557969D01*
G36*
X136388583Y-102591419D02*
G01*
X136238265Y-102695969D01*
X136126181Y-102853300D01*
X136065958Y-103055836D01*
X136059399Y-103155750D01*
X136059333Y-103335666D01*
X136415204Y-103335666D01*
X136588130Y-103337088D01*
X136691982Y-103343897D01*
X136742338Y-103359909D01*
X136754777Y-103388940D01*
X136749650Y-103417591D01*
X136678939Y-103538794D01*
X136553604Y-103609711D01*
X136390189Y-103625928D01*
X136205234Y-103583026D01*
X136175750Y-103570822D01*
X136128736Y-103561544D01*
X136107096Y-103600573D01*
X136101676Y-103705498D01*
X136101667Y-103713185D01*
X136109990Y-103830814D01*
X136144920Y-103894336D01*
X136210256Y-103929381D01*
X136356172Y-103960624D01*
X136537532Y-103967254D01*
X136717097Y-103950681D01*
X136857630Y-103912315D01*
X136874017Y-103904241D01*
X137007495Y-103786976D01*
X137100116Y-103615439D01*
X137150911Y-103410042D01*
X137158908Y-103191196D01*
X137125069Y-102990740D01*
X136729028Y-102990740D01*
X136726390Y-103051687D01*
X136679175Y-103077172D01*
X136591444Y-103081666D01*
X136487153Y-103071981D01*
X136444862Y-103035488D01*
X136440333Y-103002183D01*
X136471075Y-102909934D01*
X136507382Y-102867055D01*
X136594119Y-102838532D01*
X136675218Y-102878482D01*
X136725680Y-102972953D01*
X136729028Y-102990740D01*
X137125069Y-102990740D01*
X137123139Y-102979312D01*
X137042632Y-102794801D01*
X136932665Y-102670221D01*
X136749410Y-102570968D01*
X136563507Y-102547226D01*
X136388583Y-102591419D01*
G37*
X136388583Y-102591419D02*
X136238265Y-102695969D01*
X136126181Y-102853300D01*
X136065958Y-103055836D01*
X136059399Y-103155750D01*
X136059333Y-103335666D01*
X136415204Y-103335666D01*
X136588130Y-103337088D01*
X136691982Y-103343897D01*
X136742338Y-103359909D01*
X136754777Y-103388940D01*
X136749650Y-103417591D01*
X136678939Y-103538794D01*
X136553604Y-103609711D01*
X136390189Y-103625928D01*
X136205234Y-103583026D01*
X136175750Y-103570822D01*
X136128736Y-103561544D01*
X136107096Y-103600573D01*
X136101676Y-103705498D01*
X136101667Y-103713185D01*
X136109990Y-103830814D01*
X136144920Y-103894336D01*
X136210256Y-103929381D01*
X136356172Y-103960624D01*
X136537532Y-103967254D01*
X136717097Y-103950681D01*
X136857630Y-103912315D01*
X136874017Y-103904241D01*
X137007495Y-103786976D01*
X137100116Y-103615439D01*
X137150911Y-103410042D01*
X137158908Y-103191196D01*
X137125069Y-102990740D01*
X136729028Y-102990740D01*
X136726390Y-103051687D01*
X136679175Y-103077172D01*
X136591444Y-103081666D01*
X136487153Y-103071981D01*
X136444862Y-103035488D01*
X136440333Y-103002183D01*
X136471075Y-102909934D01*
X136507382Y-102867055D01*
X136594119Y-102838532D01*
X136675218Y-102878482D01*
X136725680Y-102972953D01*
X136729028Y-102990740D01*
X137125069Y-102990740D01*
X137123139Y-102979312D01*
X137042632Y-102794801D01*
X136932665Y-102670221D01*
X136749410Y-102570968D01*
X136563507Y-102547226D01*
X136388583Y-102591419D01*
G36*
X137381202Y-103261583D02*
G01*
X137392833Y-103949500D01*
X137593917Y-103962402D01*
X137795000Y-103975305D01*
X137795000Y-102573666D01*
X137369570Y-102573666D01*
X137381202Y-103261583D01*
G37*
X137381202Y-103261583D02*
X137392833Y-103949500D01*
X137593917Y-103962402D01*
X137795000Y-103975305D01*
X137795000Y-102573666D01*
X137369570Y-102573666D01*
X137381202Y-103261583D01*
G36*
X138288713Y-102589230D02*
G01*
X138196278Y-102644809D01*
X138129777Y-102730392D01*
X138086166Y-102857641D01*
X138062401Y-103038216D01*
X138055438Y-103283778D01*
X138058189Y-103472369D01*
X138070167Y-103949500D01*
X138269929Y-103962348D01*
X138469691Y-103975197D01*
X138481596Y-103454348D01*
X138493500Y-102933500D01*
X138789833Y-102933500D01*
X138801720Y-103452083D01*
X138813606Y-103970666D01*
X139234333Y-103970666D01*
X139234333Y-102573666D01*
X139047361Y-102573666D01*
X138920106Y-102585167D01*
X138849179Y-102615930D01*
X138842579Y-102626583D01*
X138811401Y-102657468D01*
X138764968Y-102631471D01*
X138622953Y-102565425D01*
X138448273Y-102551972D01*
X138288713Y-102589230D01*
G37*
X138288713Y-102589230D02*
X138196278Y-102644809D01*
X138129777Y-102730392D01*
X138086166Y-102857641D01*
X138062401Y-103038216D01*
X138055438Y-103283778D01*
X138058189Y-103472369D01*
X138070167Y-103949500D01*
X138269929Y-103962348D01*
X138469691Y-103975197D01*
X138481596Y-103454348D01*
X138493500Y-102933500D01*
X138789833Y-102933500D01*
X138801720Y-103452083D01*
X138813606Y-103970666D01*
X139234333Y-103970666D01*
X139234333Y-102573666D01*
X139047361Y-102573666D01*
X138920106Y-102585167D01*
X138849179Y-102615930D01*
X138842579Y-102626583D01*
X138811401Y-102657468D01*
X138764968Y-102631471D01*
X138622953Y-102565425D01*
X138448273Y-102551972D01*
X138288713Y-102589230D01*
G36*
X139717330Y-102595503D02*
G01*
X139574716Y-102710601D01*
X139482265Y-102888525D01*
X139446258Y-103123998D01*
X139446000Y-103147922D01*
X139446000Y-103335666D01*
X139784667Y-103335666D01*
X139969152Y-103339977D01*
X140078305Y-103357406D01*
X140121222Y-103394695D01*
X140106998Y-103458590D01*
X140057433Y-103537913D01*
X139986056Y-103603667D01*
X139876891Y-103629523D01*
X139814016Y-103631351D01*
X139686986Y-103621903D01*
X139590282Y-103599195D01*
X139574117Y-103591253D01*
X139505153Y-103580949D01*
X139460926Y-103645924D01*
X139446648Y-103762788D01*
X139478100Y-103862546D01*
X139576945Y-103928849D01*
X139747842Y-103963774D01*
X139912186Y-103970666D01*
X140065210Y-103964724D01*
X140169711Y-103939088D01*
X140261456Y-103882044D01*
X140311770Y-103839799D01*
X140443027Y-103677400D01*
X140520422Y-103481008D01*
X140546473Y-103267951D01*
X140523700Y-103055553D01*
X140511490Y-103021190D01*
X140123333Y-103021190D01*
X140086371Y-103066945D01*
X139975167Y-103081666D01*
X139871300Y-103071071D01*
X139830282Y-103032452D01*
X139827000Y-103005466D01*
X139853283Y-102916454D01*
X139913099Y-102845747D01*
X139959443Y-102827666D01*
X140021649Y-102860283D01*
X140086404Y-102933443D01*
X140122344Y-103010112D01*
X140123333Y-103021190D01*
X140511490Y-103021190D01*
X140454619Y-102861141D01*
X140341751Y-102702042D01*
X140187612Y-102595582D01*
X140127921Y-102574901D01*
X139903825Y-102548511D01*
X139717330Y-102595503D01*
G37*
X139717330Y-102595503D02*
X139574716Y-102710601D01*
X139482265Y-102888525D01*
X139446258Y-103123998D01*
X139446000Y-103147922D01*
X139446000Y-103335666D01*
X139784667Y-103335666D01*
X139969152Y-103339977D01*
X140078305Y-103357406D01*
X140121222Y-103394695D01*
X140106998Y-103458590D01*
X140057433Y-103537913D01*
X139986056Y-103603667D01*
X139876891Y-103629523D01*
X139814016Y-103631351D01*
X139686986Y-103621903D01*
X139590282Y-103599195D01*
X139574117Y-103591253D01*
X139505153Y-103580949D01*
X139460926Y-103645924D01*
X139446648Y-103762788D01*
X139478100Y-103862546D01*
X139576945Y-103928849D01*
X139747842Y-103963774D01*
X139912186Y-103970666D01*
X140065210Y-103964724D01*
X140169711Y-103939088D01*
X140261456Y-103882044D01*
X140311770Y-103839799D01*
X140443027Y-103677400D01*
X140520422Y-103481008D01*
X140546473Y-103267951D01*
X140523700Y-103055553D01*
X140511490Y-103021190D01*
X140123333Y-103021190D01*
X140086371Y-103066945D01*
X139975167Y-103081666D01*
X139871300Y-103071071D01*
X139830282Y-103032452D01*
X139827000Y-103005466D01*
X139853283Y-102916454D01*
X139913099Y-102845747D01*
X139959443Y-102827666D01*
X140021649Y-102860283D01*
X140086404Y-102933443D01*
X140122344Y-103010112D01*
X140123333Y-103021190D01*
X140511490Y-103021190D01*
X140454619Y-102861141D01*
X140341751Y-102702042D01*
X140187612Y-102595582D01*
X140127921Y-102574901D01*
X139903825Y-102548511D01*
X139717330Y-102595503D01*
G36*
X142381073Y-102581684D02*
G01*
X142252747Y-102667562D01*
X142221682Y-102713548D01*
X142199201Y-102781613D01*
X142183428Y-102886094D01*
X142172486Y-103041327D01*
X142164498Y-103261652D01*
X142161947Y-103361203D01*
X142147395Y-103970666D01*
X142578667Y-103970666D01*
X142578667Y-102907222D01*
X142896167Y-102933500D01*
X142919939Y-103970666D01*
X143102081Y-103970666D01*
X143220458Y-103964620D01*
X143299710Y-103949454D01*
X143312445Y-103942444D01*
X143322063Y-103892502D01*
X143330273Y-103772950D01*
X143336467Y-103598841D01*
X143340037Y-103385228D01*
X143340667Y-103243944D01*
X143340667Y-102573666D01*
X143153695Y-102573666D01*
X143037618Y-102582120D01*
X142963857Y-102603428D01*
X142952611Y-102614826D01*
X142906514Y-102628820D01*
X142802312Y-102607960D01*
X142760144Y-102594405D01*
X142556738Y-102554969D01*
X142381073Y-102581684D01*
G37*
X142381073Y-102581684D02*
X142252747Y-102667562D01*
X142221682Y-102713548D01*
X142199201Y-102781613D01*
X142183428Y-102886094D01*
X142172486Y-103041327D01*
X142164498Y-103261652D01*
X142161947Y-103361203D01*
X142147395Y-103970666D01*
X142578667Y-103970666D01*
X142578667Y-102907222D01*
X142896167Y-102933500D01*
X142919939Y-103970666D01*
X143102081Y-103970666D01*
X143220458Y-103964620D01*
X143299710Y-103949454D01*
X143312445Y-103942444D01*
X143322063Y-103892502D01*
X143330273Y-103772950D01*
X143336467Y-103598841D01*
X143340037Y-103385228D01*
X143340667Y-103243944D01*
X143340667Y-102573666D01*
X143153695Y-102573666D01*
X143037618Y-102582120D01*
X142963857Y-102603428D01*
X142952611Y-102614826D01*
X142906514Y-102628820D01*
X142802312Y-102607960D01*
X142760144Y-102594405D01*
X142556738Y-102554969D01*
X142381073Y-102581684D01*
G36*
X143637000Y-103970666D02*
G01*
X144060333Y-103970666D01*
X144060333Y-102108000D01*
X143637000Y-102108000D01*
X143637000Y-103970666D01*
G37*
X143637000Y-103970666D02*
X144060333Y-103970666D01*
X144060333Y-102108000D01*
X143637000Y-102108000D01*
X143637000Y-103970666D01*
G36*
X146621500Y-101793537D02*
G01*
X146381017Y-101797925D01*
X146206241Y-101809267D01*
X146078344Y-101829839D01*
X145978494Y-101861920D01*
X145949752Y-101874815D01*
X145779465Y-101997802D01*
X145670587Y-102164151D01*
X145624728Y-102357290D01*
X145643496Y-102560646D01*
X145728499Y-102757646D01*
X145849867Y-102903858D01*
X145954112Y-103001216D01*
X145751941Y-103453936D01*
X145674259Y-103634032D01*
X145613911Y-103785882D01*
X145577076Y-103893064D01*
X145569550Y-103938661D01*
X145619615Y-103956693D01*
X145726580Y-103968301D01*
X145811732Y-103970666D01*
X146034135Y-103970666D01*
X146131712Y-103748416D01*
X146207082Y-103571291D01*
X146285123Y-103379735D01*
X146314853Y-103303916D01*
X146368596Y-103176193D01*
X146415637Y-103109617D01*
X146475037Y-103084686D01*
X146532125Y-103081567D01*
X146663833Y-103081467D01*
X146649875Y-103425070D01*
X146643248Y-103648453D01*
X146648866Y-103800873D01*
X146672882Y-103895816D01*
X146721447Y-103946765D01*
X146800715Y-103967206D01*
X146898802Y-103970666D01*
X147042669Y-103959947D01*
X147122141Y-103930000D01*
X147131604Y-103916950D01*
X147136878Y-103861159D01*
X147140731Y-103732968D01*
X147143059Y-103544637D01*
X147143757Y-103308421D01*
X147142722Y-103036578D01*
X147140858Y-102826867D01*
X147140035Y-102751738D01*
X146663833Y-102751738D01*
X146454858Y-102731658D01*
X146291181Y-102699748D01*
X146187017Y-102636668D01*
X146169108Y-102616766D01*
X146092994Y-102475871D01*
X146095697Y-102349728D01*
X146171514Y-102248113D01*
X146314740Y-102180805D01*
X146435240Y-102160561D01*
X146663833Y-102141604D01*
X146663833Y-102751738D01*
X147140035Y-102751738D01*
X147129500Y-101790500D01*
X146621500Y-101793537D01*
G37*
X146621500Y-101793537D02*
X146381017Y-101797925D01*
X146206241Y-101809267D01*
X146078344Y-101829839D01*
X145978494Y-101861920D01*
X145949752Y-101874815D01*
X145779465Y-101997802D01*
X145670587Y-102164151D01*
X145624728Y-102357290D01*
X145643496Y-102560646D01*
X145728499Y-102757646D01*
X145849867Y-102903858D01*
X145954112Y-103001216D01*
X145751941Y-103453936D01*
X145674259Y-103634032D01*
X145613911Y-103785882D01*
X145577076Y-103893064D01*
X145569550Y-103938661D01*
X145619615Y-103956693D01*
X145726580Y-103968301D01*
X145811732Y-103970666D01*
X146034135Y-103970666D01*
X146131712Y-103748416D01*
X146207082Y-103571291D01*
X146285123Y-103379735D01*
X146314853Y-103303916D01*
X146368596Y-103176193D01*
X146415637Y-103109617D01*
X146475037Y-103084686D01*
X146532125Y-103081567D01*
X146663833Y-103081467D01*
X146649875Y-103425070D01*
X146643248Y-103648453D01*
X146648866Y-103800873D01*
X146672882Y-103895816D01*
X146721447Y-103946765D01*
X146800715Y-103967206D01*
X146898802Y-103970666D01*
X147042669Y-103959947D01*
X147122141Y-103930000D01*
X147131604Y-103916950D01*
X147136878Y-103861159D01*
X147140731Y-103732968D01*
X147143059Y-103544637D01*
X147143757Y-103308421D01*
X147142722Y-103036578D01*
X147140858Y-102826867D01*
X147140035Y-102751738D01*
X146663833Y-102751738D01*
X146454858Y-102731658D01*
X146291181Y-102699748D01*
X146187017Y-102636668D01*
X146169108Y-102616766D01*
X146092994Y-102475871D01*
X146095697Y-102349728D01*
X146171514Y-102248113D01*
X146314740Y-102180805D01*
X146435240Y-102160561D01*
X146663833Y-102141604D01*
X146663833Y-102751738D01*
X147140035Y-102751738D01*
X147129500Y-101790500D01*
X146621500Y-101793537D01*
G36*
X147489333Y-102192666D02*
G01*
X148336000Y-102192666D01*
X148336000Y-102658333D01*
X147574000Y-102658333D01*
X147574000Y-103039333D01*
X148336000Y-103039333D01*
X148336000Y-103547333D01*
X147447000Y-103547333D01*
X147447000Y-103970666D01*
X148125662Y-103970666D01*
X148398447Y-103968855D01*
X148595745Y-103962956D01*
X148726666Y-103952267D01*
X148800324Y-103936091D01*
X148824937Y-103916950D01*
X148830211Y-103861159D01*
X148834064Y-103732968D01*
X148836392Y-103544637D01*
X148837090Y-103308421D01*
X148836055Y-103036578D01*
X148834192Y-102826867D01*
X148822833Y-101790500D01*
X148156083Y-101778841D01*
X147489333Y-101767183D01*
X147489333Y-102192666D01*
G37*
X147489333Y-102192666D02*
X148336000Y-102192666D01*
X148336000Y-102658333D01*
X147574000Y-102658333D01*
X147574000Y-103039333D01*
X148336000Y-103039333D01*
X148336000Y-103547333D01*
X147447000Y-103547333D01*
X147447000Y-103970666D01*
X148125662Y-103970666D01*
X148398447Y-103968855D01*
X148595745Y-103962956D01*
X148726666Y-103952267D01*
X148800324Y-103936091D01*
X148824937Y-103916950D01*
X148830211Y-103861159D01*
X148834064Y-103732968D01*
X148836392Y-103544637D01*
X148837090Y-103308421D01*
X148836055Y-103036578D01*
X148834192Y-102826867D01*
X148822833Y-101790500D01*
X148156083Y-101778841D01*
X147489333Y-101767183D01*
X147489333Y-102192666D01*
G36*
X150675856Y-101777361D02*
G01*
X150622296Y-101783492D01*
X150576292Y-101798202D01*
X150530565Y-101830895D01*
X150477832Y-101890972D01*
X150410815Y-101987837D01*
X150322231Y-102130893D01*
X150204801Y-102329542D01*
X150072606Y-102556454D01*
X149627167Y-103322409D01*
X149615640Y-102543372D01*
X149604114Y-101764334D01*
X149288500Y-101790500D01*
X149288500Y-103949500D01*
X149436667Y-103949500D01*
X149487127Y-103947665D01*
X149531047Y-103936036D01*
X149575712Y-103905428D01*
X149628409Y-103846655D01*
X149696423Y-103750531D01*
X149787039Y-103607869D01*
X149907544Y-103409483D01*
X150038908Y-103190194D01*
X150492982Y-102430889D01*
X150504575Y-103190194D01*
X150516167Y-103949500D01*
X150674917Y-103962638D01*
X150833667Y-103975777D01*
X150833667Y-101764222D01*
X150675856Y-101777361D01*
G37*
X150675856Y-101777361D02*
X150622296Y-101783492D01*
X150576292Y-101798202D01*
X150530565Y-101830895D01*
X150477832Y-101890972D01*
X150410815Y-101987837D01*
X150322231Y-102130893D01*
X150204801Y-102329542D01*
X150072606Y-102556454D01*
X149627167Y-103322409D01*
X149615640Y-102543372D01*
X149604114Y-101764334D01*
X149288500Y-101790500D01*
X149288500Y-103949500D01*
X149436667Y-103949500D01*
X149487127Y-103947665D01*
X149531047Y-103936036D01*
X149575712Y-103905428D01*
X149628409Y-103846655D01*
X149696423Y-103750531D01*
X149787039Y-103607869D01*
X149907544Y-103409483D01*
X150038908Y-103190194D01*
X150492982Y-102430889D01*
X150504575Y-103190194D01*
X150516167Y-103949500D01*
X150674917Y-103962638D01*
X150833667Y-103975777D01*
X150833667Y-101764222D01*
X150675856Y-101777361D01*
G36*
X151341733Y-102624027D02*
G01*
X151343433Y-102953114D01*
X151350187Y-103209441D01*
X151364558Y-103404879D01*
X151389112Y-103551297D01*
X151426414Y-103660567D01*
X151479026Y-103744558D01*
X151549515Y-103815141D01*
X151609108Y-103861639D01*
X151747498Y-103924325D01*
X151935972Y-103960452D01*
X152143928Y-103969114D01*
X152340761Y-103949405D01*
X152495868Y-103900417D01*
X152516804Y-103888539D01*
X152612183Y-103823917D01*
X152685467Y-103756776D01*
X152739549Y-103675376D01*
X152777322Y-103567977D01*
X152801678Y-103422840D01*
X152815511Y-103228225D01*
X152821712Y-102972393D01*
X152823175Y-102645194D01*
X152823333Y-101764222D01*
X152505833Y-101790500D01*
X152484667Y-102651583D01*
X152477201Y-102942343D01*
X152470062Y-103160339D01*
X152461723Y-103317450D01*
X152450655Y-103425559D01*
X152435332Y-103496547D01*
X152414226Y-103542294D01*
X152385809Y-103574683D01*
X152363560Y-103593500D01*
X152224152Y-103658043D01*
X152082500Y-103674333D01*
X151904988Y-103647730D01*
X151801440Y-103593500D01*
X151767655Y-103563427D01*
X151742140Y-103527451D01*
X151723366Y-103473690D01*
X151709807Y-103390265D01*
X151699934Y-103265292D01*
X151692221Y-103086891D01*
X151685139Y-102843181D01*
X151680333Y-102651583D01*
X151659167Y-101790500D01*
X151341667Y-101764222D01*
X151341733Y-102624027D01*
G37*
X151341733Y-102624027D02*
X151343433Y-102953114D01*
X151350187Y-103209441D01*
X151364558Y-103404879D01*
X151389112Y-103551297D01*
X151426414Y-103660567D01*
X151479026Y-103744558D01*
X151549515Y-103815141D01*
X151609108Y-103861639D01*
X151747498Y-103924325D01*
X151935972Y-103960452D01*
X152143928Y-103969114D01*
X152340761Y-103949405D01*
X152495868Y-103900417D01*
X152516804Y-103888539D01*
X152612183Y-103823917D01*
X152685467Y-103756776D01*
X152739549Y-103675376D01*
X152777322Y-103567977D01*
X152801678Y-103422840D01*
X152815511Y-103228225D01*
X152821712Y-102972393D01*
X152823175Y-102645194D01*
X152823333Y-101764222D01*
X152505833Y-101790500D01*
X152484667Y-102651583D01*
X152477201Y-102942343D01*
X152470062Y-103160339D01*
X152461723Y-103317450D01*
X152450655Y-103425559D01*
X152435332Y-103496547D01*
X152414226Y-103542294D01*
X152385809Y-103574683D01*
X152363560Y-103593500D01*
X152224152Y-103658043D01*
X152082500Y-103674333D01*
X151904988Y-103647730D01*
X151801440Y-103593500D01*
X151767655Y-103563427D01*
X151742140Y-103527451D01*
X151723366Y-103473690D01*
X151709807Y-103390265D01*
X151699934Y-103265292D01*
X151692221Y-103086891D01*
X151685139Y-102843181D01*
X151680333Y-102651583D01*
X151659167Y-101790500D01*
X151341667Y-101764222D01*
X151341733Y-102624027D01*
G36*
X141353942Y-102569808D02*
G01*
X141189783Y-102570254D01*
X141044083Y-102570483D01*
X140758333Y-102570760D01*
X140758333Y-103338399D01*
X140760931Y-103661318D01*
X140770459Y-103911018D01*
X140789523Y-104098832D01*
X140820727Y-104236098D01*
X140866678Y-104334151D01*
X140929980Y-104404327D01*
X141013239Y-104457961D01*
X141015940Y-104459364D01*
X141148933Y-104498524D01*
X141329676Y-104514487D01*
X141524357Y-104506778D01*
X141699163Y-104474923D01*
X141717924Y-104469222D01*
X141805667Y-104433103D01*
X141836914Y-104381648D01*
X141829867Y-104282427D01*
X141828349Y-104272461D01*
X141809633Y-104167959D01*
X141793831Y-104107280D01*
X141791669Y-104103355D01*
X141747429Y-104105309D01*
X141656482Y-104130562D01*
X141643177Y-104135105D01*
X141444208Y-104180056D01*
X141294382Y-104159998D01*
X141205234Y-104088247D01*
X141149470Y-103985697D01*
X141143070Y-103918192D01*
X141185362Y-103900426D01*
X141213417Y-103909488D01*
X141417933Y-103962903D01*
X141599020Y-103939551D01*
X141749309Y-103845799D01*
X141861435Y-103688008D01*
X141928031Y-103472543D01*
X141943667Y-103278696D01*
X141943562Y-103277705D01*
X141520333Y-103277705D01*
X141504422Y-103465037D01*
X141454609Y-103578794D01*
X141367771Y-103624277D01*
X141316403Y-103623953D01*
X141260497Y-103613669D01*
X141225450Y-103586888D01*
X141204696Y-103525972D01*
X141191669Y-103413280D01*
X141181667Y-103261953D01*
X141173475Y-103078318D01*
X141180649Y-102963122D01*
X141210204Y-102900549D01*
X141269154Y-102874786D01*
X141355510Y-102870000D01*
X141435919Y-102909520D01*
X141491311Y-103022428D01*
X141518257Y-103200241D01*
X141520333Y-103277705D01*
X141943562Y-103277705D01*
X141917691Y-103033659D01*
X141844762Y-102829321D01*
X141732384Y-102676976D01*
X141588056Y-102587918D01*
X141472441Y-102569276D01*
X141353942Y-102569808D01*
G37*
X141353942Y-102569808D02*
X141189783Y-102570254D01*
X141044083Y-102570483D01*
X140758333Y-102570760D01*
X140758333Y-103338399D01*
X140760931Y-103661318D01*
X140770459Y-103911018D01*
X140789523Y-104098832D01*
X140820727Y-104236098D01*
X140866678Y-104334151D01*
X140929980Y-104404327D01*
X141013239Y-104457961D01*
X141015940Y-104459364D01*
X141148933Y-104498524D01*
X141329676Y-104514487D01*
X141524357Y-104506778D01*
X141699163Y-104474923D01*
X141717924Y-104469222D01*
X141805667Y-104433103D01*
X141836914Y-104381648D01*
X141829867Y-104282427D01*
X141828349Y-104272461D01*
X141809633Y-104167959D01*
X141793831Y-104107280D01*
X141791669Y-104103355D01*
X141747429Y-104105309D01*
X141656482Y-104130562D01*
X141643177Y-104135105D01*
X141444208Y-104180056D01*
X141294382Y-104159998D01*
X141205234Y-104088247D01*
X141149470Y-103985697D01*
X141143070Y-103918192D01*
X141185362Y-103900426D01*
X141213417Y-103909488D01*
X141417933Y-103962903D01*
X141599020Y-103939551D01*
X141749309Y-103845799D01*
X141861435Y-103688008D01*
X141928031Y-103472543D01*
X141943667Y-103278696D01*
X141943562Y-103277705D01*
X141520333Y-103277705D01*
X141504422Y-103465037D01*
X141454609Y-103578794D01*
X141367771Y-103624277D01*
X141316403Y-103623953D01*
X141260497Y-103613669D01*
X141225450Y-103586888D01*
X141204696Y-103525972D01*
X141191669Y-103413280D01*
X141181667Y-103261953D01*
X141173475Y-103078318D01*
X141180649Y-102963122D01*
X141210204Y-102900549D01*
X141269154Y-102874786D01*
X141355510Y-102870000D01*
X141435919Y-102909520D01*
X141491311Y-103022428D01*
X141518257Y-103200241D01*
X141520333Y-103277705D01*
X141943562Y-103277705D01*
X141917691Y-103033659D01*
X141844762Y-102829321D01*
X141732384Y-102676976D01*
X141588056Y-102587918D01*
X141472441Y-102569276D01*
X141353942Y-102569808D01*
%TO.C,JP7*%
D11*
X137993333Y-79567380D02*
X137993333Y-80281666D01*
X138040952Y-80424523D01*
X138136190Y-80519761D01*
X138279047Y-80567380D01*
X138374285Y-80567380D01*
X137517142Y-80567380D02*
X137517142Y-79567380D01*
X137136190Y-79567380D01*
X137040952Y-79615000D01*
X136993333Y-79662619D01*
X136945714Y-79757857D01*
X136945714Y-79900714D01*
X136993333Y-79995952D01*
X137040952Y-80043571D01*
X137136190Y-80091190D01*
X137517142Y-80091190D01*
X136612380Y-79567380D02*
X135945714Y-79567380D01*
X136374285Y-80567380D01*
X139474285Y-82367380D02*
X140045714Y-82367380D01*
X139760000Y-82367380D02*
X139760000Y-81367380D01*
X139855238Y-81510238D01*
X139950476Y-81605476D01*
X140045714Y-81653095D01*
X134893333Y-81367380D02*
X134274285Y-81367380D01*
X134607619Y-81748333D01*
X134464761Y-81748333D01*
X134369523Y-81795952D01*
X134321904Y-81843571D01*
X134274285Y-81938809D01*
X134274285Y-82176904D01*
X134321904Y-82272142D01*
X134369523Y-82319761D01*
X134464761Y-82367380D01*
X134750476Y-82367380D01*
X134845714Y-82319761D01*
X134893333Y-82272142D01*
%TO.C,JP6*%
X137993333Y-92267380D02*
X137993333Y-92981666D01*
X138040952Y-93124523D01*
X138136190Y-93219761D01*
X138279047Y-93267380D01*
X138374285Y-93267380D01*
X137517142Y-93267380D02*
X137517142Y-92267380D01*
X137136190Y-92267380D01*
X137040952Y-92315000D01*
X136993333Y-92362619D01*
X136945714Y-92457857D01*
X136945714Y-92600714D01*
X136993333Y-92695952D01*
X137040952Y-92743571D01*
X137136190Y-92791190D01*
X137517142Y-92791190D01*
X136088571Y-92267380D02*
X136279047Y-92267380D01*
X136374285Y-92315000D01*
X136421904Y-92362619D01*
X136517142Y-92505476D01*
X136564761Y-92695952D01*
X136564761Y-93076904D01*
X136517142Y-93172142D01*
X136469523Y-93219761D01*
X136374285Y-93267380D01*
X136183809Y-93267380D01*
X136088571Y-93219761D01*
X136040952Y-93172142D01*
X135993333Y-93076904D01*
X135993333Y-92838809D01*
X136040952Y-92743571D01*
X136088571Y-92695952D01*
X136183809Y-92648333D01*
X136374285Y-92648333D01*
X136469523Y-92695952D01*
X136517142Y-92743571D01*
X136564761Y-92838809D01*
X139474285Y-95067380D02*
X140045714Y-95067380D01*
X139760000Y-95067380D02*
X139760000Y-94067380D01*
X139855238Y-94210238D01*
X139950476Y-94305476D01*
X140045714Y-94353095D01*
X134893333Y-94067380D02*
X134274285Y-94067380D01*
X134607619Y-94448333D01*
X134464761Y-94448333D01*
X134369523Y-94495952D01*
X134321904Y-94543571D01*
X134274285Y-94638809D01*
X134274285Y-94876904D01*
X134321904Y-94972142D01*
X134369523Y-95019761D01*
X134464761Y-95067380D01*
X134750476Y-95067380D01*
X134845714Y-95019761D01*
X134893333Y-94972142D01*
%TO.C,JP5*%
X137993333Y-85282380D02*
X137993333Y-85996666D01*
X138040952Y-86139523D01*
X138136190Y-86234761D01*
X138279047Y-86282380D01*
X138374285Y-86282380D01*
X137517142Y-86282380D02*
X137517142Y-85282380D01*
X137136190Y-85282380D01*
X137040952Y-85330000D01*
X136993333Y-85377619D01*
X136945714Y-85472857D01*
X136945714Y-85615714D01*
X136993333Y-85710952D01*
X137040952Y-85758571D01*
X137136190Y-85806190D01*
X137517142Y-85806190D01*
X136040952Y-85282380D02*
X136517142Y-85282380D01*
X136564761Y-85758571D01*
X136517142Y-85710952D01*
X136421904Y-85663333D01*
X136183809Y-85663333D01*
X136088571Y-85710952D01*
X136040952Y-85758571D01*
X135993333Y-85853809D01*
X135993333Y-86091904D01*
X136040952Y-86187142D01*
X136088571Y-86234761D01*
X136183809Y-86282380D01*
X136421904Y-86282380D01*
X136517142Y-86234761D01*
X136564761Y-86187142D01*
X139474285Y-88082380D02*
X140045714Y-88082380D01*
X139760000Y-88082380D02*
X139760000Y-87082380D01*
X139855238Y-87225238D01*
X139950476Y-87320476D01*
X140045714Y-87368095D01*
X134893333Y-87082380D02*
X134274285Y-87082380D01*
X134607619Y-87463333D01*
X134464761Y-87463333D01*
X134369523Y-87510952D01*
X134321904Y-87558571D01*
X134274285Y-87653809D01*
X134274285Y-87891904D01*
X134321904Y-87987142D01*
X134369523Y-88034761D01*
X134464761Y-88082380D01*
X134750476Y-88082380D01*
X134845714Y-88034761D01*
X134893333Y-87987142D01*
%TO.C,JP4*%
X137993333Y-73852380D02*
X137993333Y-74566666D01*
X138040952Y-74709523D01*
X138136190Y-74804761D01*
X138279047Y-74852380D01*
X138374285Y-74852380D01*
X137517142Y-74852380D02*
X137517142Y-73852380D01*
X137136190Y-73852380D01*
X137040952Y-73900000D01*
X136993333Y-73947619D01*
X136945714Y-74042857D01*
X136945714Y-74185714D01*
X136993333Y-74280952D01*
X137040952Y-74328571D01*
X137136190Y-74376190D01*
X137517142Y-74376190D01*
X136088571Y-74185714D02*
X136088571Y-74852380D01*
X136326666Y-73804761D02*
X136564761Y-74519047D01*
X135945714Y-74519047D01*
X139474285Y-76652380D02*
X140045714Y-76652380D01*
X139760000Y-76652380D02*
X139760000Y-75652380D01*
X139855238Y-75795238D01*
X139950476Y-75890476D01*
X140045714Y-75938095D01*
X134893333Y-75652380D02*
X134274285Y-75652380D01*
X134607619Y-76033333D01*
X134464761Y-76033333D01*
X134369523Y-76080952D01*
X134321904Y-76128571D01*
X134274285Y-76223809D01*
X134274285Y-76461904D01*
X134321904Y-76557142D01*
X134369523Y-76604761D01*
X134464761Y-76652380D01*
X134750476Y-76652380D01*
X134845714Y-76604761D01*
X134893333Y-76557142D01*
%TO.C,JP3*%
X149423333Y-92267380D02*
X149423333Y-92981666D01*
X149470952Y-93124523D01*
X149566190Y-93219761D01*
X149709047Y-93267380D01*
X149804285Y-93267380D01*
X148947142Y-93267380D02*
X148947142Y-92267380D01*
X148566190Y-92267380D01*
X148470952Y-92315000D01*
X148423333Y-92362619D01*
X148375714Y-92457857D01*
X148375714Y-92600714D01*
X148423333Y-92695952D01*
X148470952Y-92743571D01*
X148566190Y-92791190D01*
X148947142Y-92791190D01*
X148042380Y-92267380D02*
X147423333Y-92267380D01*
X147756666Y-92648333D01*
X147613809Y-92648333D01*
X147518571Y-92695952D01*
X147470952Y-92743571D01*
X147423333Y-92838809D01*
X147423333Y-93076904D01*
X147470952Y-93172142D01*
X147518571Y-93219761D01*
X147613809Y-93267380D01*
X147899523Y-93267380D01*
X147994761Y-93219761D01*
X148042380Y-93172142D01*
X150904285Y-95067380D02*
X151475714Y-95067380D01*
X151190000Y-95067380D02*
X151190000Y-94067380D01*
X151285238Y-94210238D01*
X151380476Y-94305476D01*
X151475714Y-94353095D01*
X146323333Y-94067380D02*
X145704285Y-94067380D01*
X146037619Y-94448333D01*
X145894761Y-94448333D01*
X145799523Y-94495952D01*
X145751904Y-94543571D01*
X145704285Y-94638809D01*
X145704285Y-94876904D01*
X145751904Y-94972142D01*
X145799523Y-95019761D01*
X145894761Y-95067380D01*
X146180476Y-95067380D01*
X146275714Y-95019761D01*
X146323333Y-94972142D01*
%TO.C,JP2*%
X149423333Y-85282380D02*
X149423333Y-85996666D01*
X149470952Y-86139523D01*
X149566190Y-86234761D01*
X149709047Y-86282380D01*
X149804285Y-86282380D01*
X148947142Y-86282380D02*
X148947142Y-85282380D01*
X148566190Y-85282380D01*
X148470952Y-85330000D01*
X148423333Y-85377619D01*
X148375714Y-85472857D01*
X148375714Y-85615714D01*
X148423333Y-85710952D01*
X148470952Y-85758571D01*
X148566190Y-85806190D01*
X148947142Y-85806190D01*
X147994761Y-85377619D02*
X147947142Y-85330000D01*
X147851904Y-85282380D01*
X147613809Y-85282380D01*
X147518571Y-85330000D01*
X147470952Y-85377619D01*
X147423333Y-85472857D01*
X147423333Y-85568095D01*
X147470952Y-85710952D01*
X148042380Y-86282380D01*
X147423333Y-86282380D01*
X150904285Y-88082380D02*
X151475714Y-88082380D01*
X151190000Y-88082380D02*
X151190000Y-87082380D01*
X151285238Y-87225238D01*
X151380476Y-87320476D01*
X151475714Y-87368095D01*
X146323333Y-87082380D02*
X145704285Y-87082380D01*
X146037619Y-87463333D01*
X145894761Y-87463333D01*
X145799523Y-87510952D01*
X145751904Y-87558571D01*
X145704285Y-87653809D01*
X145704285Y-87891904D01*
X145751904Y-87987142D01*
X145799523Y-88034761D01*
X145894761Y-88082380D01*
X146180476Y-88082380D01*
X146275714Y-88034761D01*
X146323333Y-87987142D01*
%TO.C,JP1*%
X149423333Y-76392380D02*
X149423333Y-77106666D01*
X149470952Y-77249523D01*
X149566190Y-77344761D01*
X149709047Y-77392380D01*
X149804285Y-77392380D01*
X148947142Y-77392380D02*
X148947142Y-76392380D01*
X148566190Y-76392380D01*
X148470952Y-76440000D01*
X148423333Y-76487619D01*
X148375714Y-76582857D01*
X148375714Y-76725714D01*
X148423333Y-76820952D01*
X148470952Y-76868571D01*
X148566190Y-76916190D01*
X148947142Y-76916190D01*
X147423333Y-77392380D02*
X147994761Y-77392380D01*
X147709047Y-77392380D02*
X147709047Y-76392380D01*
X147804285Y-76535238D01*
X147899523Y-76630476D01*
X147994761Y-76678095D01*
X150904285Y-79192380D02*
X151475714Y-79192380D01*
X151190000Y-79192380D02*
X151190000Y-78192380D01*
X151285238Y-78335238D01*
X151380476Y-78430476D01*
X151475714Y-78478095D01*
X146323333Y-78192380D02*
X145704285Y-78192380D01*
X146037619Y-78573333D01*
X145894761Y-78573333D01*
X145799523Y-78620952D01*
X145751904Y-78668571D01*
X145704285Y-78763809D01*
X145704285Y-79001904D01*
X145751904Y-79097142D01*
X145799523Y-79144761D01*
X145894761Y-79192380D01*
X146180476Y-79192380D01*
X146275714Y-79144761D01*
X146323333Y-79097142D01*
%TD*%
M02*
