%TF.GenerationSoftware,KiCad,Pcbnew,(5.1.9)-1*%
%TF.CreationDate,2021-04-28T11:17:24-03:00*%
%TF.ProjectId,1335_rev1,31333335-5f72-4657-9631-2e6b69636164,rev?*%
%TF.SameCoordinates,Original*%
%TF.FileFunction,Soldermask,Top*%
%TF.FilePolarity,Negative*%
%FSLAX46Y46*%
G04 Gerber Fmt 4.6, Leading zero omitted, Abs format (unit mm)*
G04 Created by KiCad (PCBNEW (5.1.9)-1) date 2021-04-28 11:17:24*
%MOMM*%
%LPD*%
G01*
G04 APERTURE LIST*
%ADD10O,1.700000X1.700000*%
%ADD11R,1.700000X1.700000*%
%ADD12C,6.400000*%
%ADD13C,0.800000*%
%ADD14R,1.570000X0.410000*%
G04 APERTURE END LIST*
D10*
%TO.C,J1*%
X130810000Y-83185000D03*
X130810000Y-85725000D03*
X130810000Y-88265000D03*
X130810000Y-90805000D03*
D11*
X130810000Y-93345000D03*
%TD*%
D10*
%TO.C,J2*%
X154305000Y-93980000D03*
X154305000Y-91440000D03*
X154305000Y-88900000D03*
X154305000Y-86360000D03*
X154305000Y-83820000D03*
D11*
X154305000Y-81280000D03*
%TD*%
%TO.C,R1*%
G36*
G01*
X144990000Y-96880000D02*
X144990000Y-97430000D01*
G75*
G02*
X144790000Y-97630000I-200000J0D01*
G01*
X144390000Y-97630000D01*
G75*
G02*
X144190000Y-97430000I0J200000D01*
G01*
X144190000Y-96880000D01*
G75*
G02*
X144390000Y-96680000I200000J0D01*
G01*
X144790000Y-96680000D01*
G75*
G02*
X144990000Y-96880000I0J-200000D01*
G01*
G37*
G36*
G01*
X146640000Y-96880000D02*
X146640000Y-97430000D01*
G75*
G02*
X146440000Y-97630000I-200000J0D01*
G01*
X146040000Y-97630000D01*
G75*
G02*
X145840000Y-97430000I0J200000D01*
G01*
X145840000Y-96880000D01*
G75*
G02*
X146040000Y-96680000I200000J0D01*
G01*
X146440000Y-96680000D01*
G75*
G02*
X146640000Y-96880000I0J-200000D01*
G01*
G37*
%TD*%
%TO.C,R3*%
G36*
G01*
X143300000Y-91715000D02*
X143300000Y-91165000D01*
G75*
G02*
X143500000Y-90965000I200000J0D01*
G01*
X143900000Y-90965000D01*
G75*
G02*
X144100000Y-91165000I0J-200000D01*
G01*
X144100000Y-91715000D01*
G75*
G02*
X143900000Y-91915000I-200000J0D01*
G01*
X143500000Y-91915000D01*
G75*
G02*
X143300000Y-91715000I0J200000D01*
G01*
G37*
G36*
G01*
X141650000Y-91715000D02*
X141650000Y-91165000D01*
G75*
G02*
X141850000Y-90965000I200000J0D01*
G01*
X142250000Y-90965000D01*
G75*
G02*
X142450000Y-91165000I0J-200000D01*
G01*
X142450000Y-91715000D01*
G75*
G02*
X142250000Y-91915000I-200000J0D01*
G01*
X141850000Y-91915000D01*
G75*
G02*
X141650000Y-91715000I0J200000D01*
G01*
G37*
%TD*%
%TO.C,R2*%
G36*
G01*
X143300000Y-89810000D02*
X143300000Y-89260000D01*
G75*
G02*
X143500000Y-89060000I200000J0D01*
G01*
X143900000Y-89060000D01*
G75*
G02*
X144100000Y-89260000I0J-200000D01*
G01*
X144100000Y-89810000D01*
G75*
G02*
X143900000Y-90010000I-200000J0D01*
G01*
X143500000Y-90010000D01*
G75*
G02*
X143300000Y-89810000I0J200000D01*
G01*
G37*
G36*
G01*
X141650000Y-89810000D02*
X141650000Y-89260000D01*
G75*
G02*
X141850000Y-89060000I200000J0D01*
G01*
X142250000Y-89060000D01*
G75*
G02*
X142450000Y-89260000I0J-200000D01*
G01*
X142450000Y-89810000D01*
G75*
G02*
X142250000Y-90010000I-200000J0D01*
G01*
X141850000Y-90010000D01*
G75*
G02*
X141650000Y-89810000I0J200000D01*
G01*
G37*
%TD*%
%TO.C,D1*%
G36*
G01*
X140685000Y-97411250D02*
X140685000Y-96898750D01*
G75*
G02*
X140903750Y-96680000I218750J0D01*
G01*
X141341250Y-96680000D01*
G75*
G02*
X141560000Y-96898750I0J-218750D01*
G01*
X141560000Y-97411250D01*
G75*
G02*
X141341250Y-97630000I-218750J0D01*
G01*
X140903750Y-97630000D01*
G75*
G02*
X140685000Y-97411250I0J218750D01*
G01*
G37*
G36*
G01*
X139110000Y-97411250D02*
X139110000Y-96898750D01*
G75*
G02*
X139328750Y-96680000I218750J0D01*
G01*
X139766250Y-96680000D01*
G75*
G02*
X139985000Y-96898750I0J-218750D01*
G01*
X139985000Y-97411250D01*
G75*
G02*
X139766250Y-97630000I-218750J0D01*
G01*
X139328750Y-97630000D01*
G75*
G02*
X139110000Y-97411250I0J218750D01*
G01*
G37*
%TD*%
%TO.C,C2*%
G36*
G01*
X136884999Y-68120000D02*
X137435001Y-68120000D01*
G75*
G02*
X137685000Y-68369999I0J-249999D01*
G01*
X137685000Y-68945001D01*
G75*
G02*
X137435001Y-69195000I-249999J0D01*
G01*
X136884999Y-69195000D01*
G75*
G02*
X136635000Y-68945001I0J249999D01*
G01*
X136635000Y-68369999D01*
G75*
G02*
X136884999Y-68120000I249999J0D01*
G01*
G37*
G36*
G01*
X136884999Y-66695000D02*
X137435001Y-66695000D01*
G75*
G02*
X137685000Y-66944999I0J-249999D01*
G01*
X137685000Y-67520001D01*
G75*
G02*
X137435001Y-67770000I-249999J0D01*
G01*
X136884999Y-67770000D01*
G75*
G02*
X136635000Y-67520001I0J249999D01*
G01*
X136635000Y-66944999D01*
G75*
G02*
X136884999Y-66695000I249999J0D01*
G01*
G37*
%TD*%
%TO.C,C1*%
G36*
G01*
X137435001Y-65385000D02*
X136884999Y-65385000D01*
G75*
G02*
X136635000Y-65135001I0J249999D01*
G01*
X136635000Y-64559999D01*
G75*
G02*
X136884999Y-64310000I249999J0D01*
G01*
X137435001Y-64310000D01*
G75*
G02*
X137685000Y-64559999I0J-249999D01*
G01*
X137685000Y-65135001D01*
G75*
G02*
X137435001Y-65385000I-249999J0D01*
G01*
G37*
G36*
G01*
X137435001Y-63960000D02*
X136884999Y-63960000D01*
G75*
G02*
X136635000Y-63710001I0J249999D01*
G01*
X136635000Y-63134999D01*
G75*
G02*
X136884999Y-62885000I249999J0D01*
G01*
X137435001Y-62885000D01*
G75*
G02*
X137685000Y-63134999I0J-249999D01*
G01*
X137685000Y-63710001D01*
G75*
G02*
X137435001Y-63960000I-249999J0D01*
G01*
G37*
%TD*%
D12*
%TO.C,H1*%
X125000000Y-75000000D03*
D13*
X127400000Y-75000000D03*
X126697056Y-76697056D03*
X125000000Y-77400000D03*
X123302944Y-76697056D03*
X122600000Y-75000000D03*
X123302944Y-73302944D03*
X125000000Y-72600000D03*
X126697056Y-73302944D03*
%TD*%
%TO.C,H2*%
X161697056Y-73302944D03*
X160000000Y-72600000D03*
X158302944Y-73302944D03*
X157600000Y-75000000D03*
X158302944Y-76697056D03*
X160000000Y-77400000D03*
X161697056Y-76697056D03*
X162400000Y-75000000D03*
D12*
X160000000Y-75000000D03*
%TD*%
%TO.C,H3*%
X125000000Y-100000000D03*
D13*
X127400000Y-100000000D03*
X126697056Y-101697056D03*
X125000000Y-102400000D03*
X123302944Y-101697056D03*
X122600000Y-100000000D03*
X123302944Y-98302944D03*
X125000000Y-97600000D03*
X126697056Y-98302944D03*
%TD*%
%TO.C,H4*%
X161697056Y-98302944D03*
X160000000Y-97600000D03*
X158302944Y-98302944D03*
X157600000Y-100000000D03*
X158302944Y-101697056D03*
X160000000Y-102400000D03*
X161697056Y-101697056D03*
X162400000Y-100000000D03*
D12*
X160000000Y-100000000D03*
%TD*%
D14*
%TO.C,U1*%
X140005000Y-64725000D03*
X140005000Y-65375000D03*
X140005000Y-66025000D03*
X140005000Y-66675000D03*
X140005000Y-67325000D03*
X140005000Y-67975000D03*
X140005000Y-68625000D03*
X145745000Y-68625000D03*
X145745000Y-67975000D03*
X145745000Y-67325000D03*
X145745000Y-66675000D03*
X145745000Y-66025000D03*
X145745000Y-65375000D03*
X145745000Y-64725000D03*
%TD*%
M02*
